<svg xmlns="http://www.w3.org/2000/svg" xmlns:xlink="http://www.w3.org/1999/xlink" viewBox="0 0 192.82 26.77"><defs><style>.cls-1{isolation:isolate;}.cls-2{fill:#ffefcb;}.cls-3{fill:url(#linear-gradient);}.cls-4{fill:#ebb199;}.cls-5,.cls-6{fill:#fff;}.cls-6{mix-blend-mode:overlay;}.cls-7{fill:url(#linear-gradient-2);}.cls-8{fill:url(#linear-gradient-3);}.cls-9{fill:url(#linear-gradient-4);}.cls-10{fill:url(#linear-gradient-5);}.cls-11{fill:url(#linear-gradient-6);}.cls-12{fill:url(#linear-gradient-7);}</style><linearGradient id="linear-gradient" x1="173.44" y1="21.31" x2="190.41" y2="4.34" gradientUnits="userSpaceOnUse"><stop offset="0.04" stop-color="#ba6250"/><stop offset="0.6" stop-color="#502f40"/></linearGradient><linearGradient id="linear-gradient-2" x1="144.75" y1="21.31" x2="161.72" y2="4.34" xlink:href="#linear-gradient"/><linearGradient id="linear-gradient-3" x1="116.06" y1="21.31" x2="133.03" y2="4.34" xlink:href="#linear-gradient"/><linearGradient id="linear-gradient-4" x1="87.36" y1="21.31" x2="104.33" y2="4.34" xlink:href="#linear-gradient"/><linearGradient id="linear-gradient-5" x1="58.67" y1="21.31" x2="75.64" y2="4.34" xlink:href="#linear-gradient"/><linearGradient id="linear-gradient-6" x1="29.97" y1="21.31" x2="46.94" y2="4.34" xlink:href="#linear-gradient"/><linearGradient id="linear-gradient-7" x1="1.28" y1="21.31" x2="18.25" y2="4.34" xlink:href="#linear-gradient"/></defs><g class="cls-1"><g id="Layer_2" data-name="Layer 2"><g id="Layer_1-2" data-name="Layer 1"><path class="cls-2" d="M191.79,12.45H187.6l0-.14c-.34-4-2.56-7-5-7-2.76,0-5.1,3.72-5.1,8.13s2.34,8.13,5.1,8.13a2.12,2.12,0,0,1,2.13,2.12,2,2,0,0,1-.23,1,2.11,2.11,0,0,1-.82.88,2.15,2.15,0,0,1-1.08.29c-5.25,0-9.36-5.44-9.36-12.38,0-6.32,3.4-11.39,8-12.25a6.52,6.52,0,0,1,1.4-.14c4.76,0,8.76,4.71,9.29,11A1.67,1.67,0,0,1,191.79,12.45Z"/><path class="cls-3" d="M182.52,1c4.76,0,8.76,4.71,9.29,11a1.67,1.67,0,0,1,0,.5H187.6l0-.14c-.34-4-2.56-7-5-7-2.76,0-5.1,3.72-5.1,8.13s2.34,8.13,5.1,8.13a2.12,2.12,0,0,1,2.13,2.12,2,2,0,0,1-.23,1,2.11,2.11,0,0,1-.82.88,2.15,2.15,0,0,1-1.08.29c-5.25,0-9.36-5.44-9.36-12.38,0-6.32,3.4-11.39,8-12.25a6.46,6.46,0,0,1,1.4-.14m0-1a8.32,8.32,0,0,0-1.59.15c-5.08,1-8.77,6.53-8.77,13.24,0,7.5,4.55,13.38,10.36,13.38a3.19,3.19,0,0,0,1.59-.43,3.13,3.13,0,0,0-1.59-5.82c-2.18,0-4.1-3.34-4.1-7.13s1.92-7.13,4.1-7.13c1.95,0,3.76,2.75,4.06,6.14a.54.54,0,0,0,0,.19,1,1,0,0,0,1,.86h4.19a1,1,0,0,0,1-.85,3.08,3.08,0,0,0,0-.74C192.23,5.1,187.81,0,182.52,0Z"/><path class="cls-4" d="M189.77,12.45H187.6l0-.14c-.34-4-2.56-7-5-7-2.76,0-5.1,3.72-5.1,8.13s2.34,8.13,5.1,8.13a2.14,2.14,0,0,1,1.66.79,2.09,2.09,0,0,1,.47,1.33,2,2,0,0,1-.23,1,9.87,9.87,0,0,1-8.35-7c-2.62-7.36,2-15.75,7.54-14.72S189.68,12,189.68,12,189.72,12.19,189.77,12.45Z"/><path class="cls-5" d="M187.6,12.45l0-.14c-.34-4-2.56-7-5-7-2.76,0-5.1,3.72-5.1,8.13s2.34,8.13,5.1,8.13a2.14,2.14,0,0,1,1.66.79,2.65,2.65,0,0,0-.9-.3c-1-.15-4,.8-5.88-4.68s.52-13.07,5.34-12.56S187.6,12.45,187.6,12.45Z"/><path class="cls-6" d="M183.6,25.48a2.15,2.15,0,0,1-1.08.29c-5.25,0-9.36-5.44-9.36-12.38,0-6.32,3.4-11.39,8-12.25-1.94.78-4.8,2.45-6.32,7.46-2.49,8.22,1.48,14.61,5.41,16.13A11.42,11.42,0,0,0,183.6,25.48Z"/><ellipse class="cls-6" cx="174.35" cy="13.3" rx="0.91" ry="2.14"/><ellipse class="cls-6" cx="175.93" cy="13.13" rx="0.53" ry="1.04"/><path class="cls-2" d="M163.1,12.45h-4.2s0-.09,0-.14c-.34-4-2.56-7-5-7-2.76,0-5.1,3.72-5.1,8.13s2.34,8.13,5.1,8.13A2.13,2.13,0,0,1,156,23.64a2.15,2.15,0,0,1-1.05,1.84,2.21,2.21,0,0,1-1.08.29c-5.25,0-9.36-5.44-9.36-12.38,0-6.32,3.4-11.39,8-12.25a6.46,6.46,0,0,1,1.4-.14c4.76,0,8.75,4.71,9.29,11A2.75,2.75,0,0,1,163.1,12.45Z"/><path class="cls-7" d="M153.83,1c4.76,0,8.75,4.71,9.29,11a2.75,2.75,0,0,1,0,.5h-4.2s0-.09,0-.14c-.34-4-2.56-7-5-7-2.76,0-5.1,3.72-5.1,8.13s2.34,8.13,5.1,8.13A2.13,2.13,0,0,1,156,23.64a2.15,2.15,0,0,1-1.05,1.84,2.21,2.21,0,0,1-1.08.29c-5.25,0-9.36-5.44-9.36-12.38,0-6.32,3.4-11.39,8-12.25a6.46,6.46,0,0,1,1.4-.14m0-1a8.43,8.43,0,0,0-1.6.15c-5.07,1-8.76,6.53-8.76,13.24,0,7.5,4.55,13.38,10.36,13.38a3.15,3.15,0,0,0,1.58-.43,3.07,3.07,0,0,0,1.21-1.29,3.11,3.11,0,0,0-2.79-4.53c-2.19,0-4.1-3.34-4.1-7.13s1.91-7.13,4.1-7.13c1.94,0,3.76,2.75,4,6.14,0,.08,0,.13,0,.19a1,1,0,0,0,1,.86h4.2a1,1,0,0,0,1-.85,2.63,2.63,0,0,0,0-.74C163.54,5.1,159.11,0,153.83,0Z"/><path class="cls-4" d="M161.08,12.45H158.9s0-.09,0-.14c-.34-4-2.56-7-5-7-2.76,0-5.1,3.72-5.1,8.13s2.34,8.13,5.1,8.13A2.14,2.14,0,0,1,156,23.64a2.16,2.16,0,0,1-.23,1,9.86,9.86,0,0,1-8.35-7c-2.62-7.36,2-15.75,7.53-14.72S161,12,161,12,161,12.19,161.08,12.45Z"/><path class="cls-5" d="M158.9,12.45s0-.09,0-.14c-.34-4-2.56-7-5-7-2.76,0-5.1,3.72-5.1,8.13s2.34,8.13,5.1,8.13a2.1,2.1,0,0,1,1.65.79,2.58,2.58,0,0,0-.9-.3c-1-.15-4,.8-5.87-4.68S149.23,4.26,154,4.77,158.9,12.45,158.9,12.45Z"/><path class="cls-6" d="M154.91,25.48a2.21,2.21,0,0,1-1.08.29c-5.25,0-9.36-5.44-9.36-12.38,0-6.32,3.4-11.39,8-12.25-1.94.78-4.8,2.45-6.32,7.46-2.5,8.22,1.48,14.61,5.41,16.13A11.36,11.36,0,0,0,154.91,25.48Z"/><ellipse class="cls-6" cx="145.66" cy="13.3" rx="0.91" ry="2.14"/><ellipse class="cls-6" cx="147.23" cy="13.13" rx="0.53" ry="1.04"/><path class="cls-2" d="M134.4,12.45h-4.19l0-.14c-.34-4-2.56-7-5.05-7C122.37,5.26,120,9,120,13.39s2.33,8.13,5.09,8.13a2.12,2.12,0,0,1,2.13,2.12,2,2,0,0,1-.23,1,2.11,2.11,0,0,1-.82.88,2.15,2.15,0,0,1-1.08.29c-5.24,0-9.35-5.44-9.35-12.38,0-6.32,3.4-11.39,8-12.25a6.58,6.58,0,0,1,1.4-.14c4.76,0,8.76,4.71,9.29,11A1.67,1.67,0,0,1,134.4,12.45Z"/><path class="cls-8" d="M125.13,1c4.76,0,8.76,4.71,9.3,11a2.75,2.75,0,0,1,0,.5h-4.2l0-.14c-.34-4-2.56-7-5.05-7C122.37,5.26,120,9,120,13.39s2.33,8.13,5.09,8.13a2.12,2.12,0,0,1,2.13,2.12,2,2,0,0,1-.23,1,2.11,2.11,0,0,1-.82.88,2.15,2.15,0,0,1-1.08.29c-5.24,0-9.35-5.44-9.35-12.38,0-6.32,3.4-11.39,8-12.25a6.58,6.58,0,0,1,1.4-.14m0-1a8.32,8.32,0,0,0-1.59.15c-5.08,1-8.76,6.53-8.76,13.24,0,7.5,4.54,13.38,10.35,13.38a3.16,3.16,0,0,0,1.59-.43,3.2,3.2,0,0,0,1.21-1.29,3.13,3.13,0,0,0-2.8-4.53c-2.18,0-4.09-3.34-4.09-7.13s1.91-7.13,4.09-7.13c2,0,3.77,2.75,4.06,6.14,0,.08,0,.13,0,.19a1,1,0,0,0,1,.86h4.2a1,1,0,0,0,1-.85,3.08,3.08,0,0,0,0-.74C134.84,5.1,130.42,0,125.13,0Z"/><path class="cls-4" d="M132.38,12.45h-2.17l0-.14c-.34-4-2.56-7-5.05-7C122.37,5.26,120,9,120,13.39s2.33,8.13,5.09,8.13a2.14,2.14,0,0,1,1.66.79,2.09,2.09,0,0,1,.47,1.33,2,2,0,0,1-.23,1,9.86,9.86,0,0,1-8.34-7c-2.62-7.36,2-15.75,7.53-14.72S132.29,12,132.29,12,132.33,12.19,132.38,12.45Z"/><path class="cls-5" d="M130.21,12.45l0-.14c-.34-4-2.56-7-5.05-7C122.37,5.26,120,9,120,13.39s2.33,8.13,5.09,8.13a2.14,2.14,0,0,1,1.66.79,2.65,2.65,0,0,0-.9-.3c-1-.15-4,.8-5.88-4.68s.52-13.07,5.34-12.56S130.21,12.45,130.21,12.45Z"/><path class="cls-6" d="M126.21,25.48a2.15,2.15,0,0,1-1.08.29c-5.24,0-9.35-5.44-9.35-12.38,0-6.32,3.4-11.39,8-12.25-1.94.78-4.8,2.45-6.32,7.46-2.49,8.22,1.49,14.61,5.41,16.13A11.49,11.49,0,0,0,126.21,25.48Z"/><ellipse class="cls-6" cx="116.96" cy="13.3" rx="0.91" ry="2.14"/><ellipse class="cls-6" cx="118.54" cy="13.13" rx="0.53" ry="1.04"/><path class="cls-2" d="M105.71,12.45h-4.19l0-.14c-.34-4-2.56-7-5-7-2.76,0-5.1,3.72-5.1,8.13s2.34,8.13,5.1,8.13a2.13,2.13,0,0,1,2.13,2.12,2.15,2.15,0,0,1-1,1.84,2.21,2.21,0,0,1-1.08.29c-5.25,0-9.36-5.44-9.36-12.38,0-6.32,3.4-11.39,8-12.25A6.46,6.46,0,0,1,96.44,1c4.76,0,8.76,4.71,9.29,11A1.67,1.67,0,0,1,105.71,12.45Z"/><path class="cls-9" d="M96.44,1c4.76,0,8.76,4.71,9.29,11a1.67,1.67,0,0,1,0,.5h-4.19l0-.14c-.34-4-2.56-7-5-7-2.76,0-5.1,3.72-5.1,8.13s2.34,8.13,5.1,8.13a2.13,2.13,0,0,1,2.13,2.12,2.15,2.15,0,0,1-1,1.84,2.21,2.21,0,0,1-1.08.29c-5.25,0-9.36-5.44-9.36-12.38,0-6.32,3.4-11.39,8-12.25A6.46,6.46,0,0,1,96.44,1m0-1a8.51,8.51,0,0,0-1.6.15c-5.07,1-8.76,6.53-8.76,13.24,0,7.5,4.55,13.38,10.36,13.38A3.22,3.22,0,0,0,98,26.34a3.13,3.13,0,0,0-1.59-5.82c-2.18,0-4.1-3.34-4.1-7.13s1.92-7.13,4.1-7.13c1.94,0,3.76,2.75,4,6.14,0,.08,0,.13,0,.19a1,1,0,0,0,1,.86h4.19a1,1,0,0,0,1-.85,3.08,3.08,0,0,0,0-.74C106.15,5.1,101.72,0,96.44,0Z"/><path class="cls-4" d="M103.69,12.45h-2.17l0-.14c-.34-4-2.56-7-5-7-2.76,0-5.1,3.72-5.1,8.13s2.34,8.13,5.1,8.13a2.14,2.14,0,0,1,2.13,2.12,2.16,2.16,0,0,1-.23,1,9.86,9.86,0,0,1-8.35-7c-2.62-7.36,2-15.75,7.53-14.72S103.6,12,103.6,12,103.64,12.19,103.69,12.45Z"/><path class="cls-5" d="M101.52,12.45l0-.14c-.34-4-2.56-7-5-7-2.76,0-5.1,3.72-5.1,8.13s2.34,8.13,5.1,8.13a2.1,2.1,0,0,1,1.65.79,2.58,2.58,0,0,0-.9-.3c-1-.15-4,.8-5.87-4.68s.52-13.07,5.33-12.56S101.52,12.45,101.52,12.45Z"/><path class="cls-6" d="M97.52,25.48a2.21,2.21,0,0,1-1.08.29c-5.25,0-9.36-5.44-9.36-12.38,0-6.32,3.4-11.39,8-12.25-1.94.78-4.8,2.45-6.32,7.46-2.5,8.22,1.48,14.61,5.41,16.13A11.36,11.36,0,0,0,97.52,25.48Z"/><ellipse class="cls-6" cx="88.27" cy="13.3" rx="0.91" ry="2.14"/><ellipse class="cls-6" cx="89.85" cy="13.13" rx="0.53" ry="1.04"/><path class="cls-2" d="M77,12.45h-4.2s0-.09,0-.14c-.34-4-2.56-7-5.06-7C65,5.26,62.65,9,62.65,13.39s2.33,8.13,5.09,8.13a2.13,2.13,0,0,1,2.14,2.12,2.15,2.15,0,0,1-1,1.84,2.22,2.22,0,0,1-1.09.29c-5.24,0-9.35-5.44-9.35-12.38,0-6.32,3.4-11.39,8-12.25A6.58,6.58,0,0,1,67.74,1C72.51,1,76.5,5.71,77,12A2.75,2.75,0,0,1,77,12.45Z"/><path class="cls-10" d="M67.74,1C72.51,1,76.5,5.71,77,12a2.75,2.75,0,0,1,0,.5h-4.2s0-.09,0-.14c-.34-4-2.56-7-5.06-7C65,5.26,62.65,9,62.65,13.39s2.33,8.13,5.09,8.13a2.13,2.13,0,0,1,2.14,2.12,2.15,2.15,0,0,1-1,1.84,2.22,2.22,0,0,1-1.09.29c-5.24,0-9.35-5.44-9.35-12.38,0-6.32,3.4-11.39,8-12.25A6.58,6.58,0,0,1,67.74,1m0-1a8.4,8.4,0,0,0-1.59.15c-5.07,1-8.76,6.53-8.76,13.24,0,7.5,4.55,13.38,10.35,13.38a3.13,3.13,0,0,0,2.8-1.72,3.11,3.11,0,0,0-2.8-4.53c-2.18,0-4.09-3.34-4.09-7.13s1.91-7.13,4.09-7.13c2,0,3.77,2.75,4.06,6.14,0,.08,0,.13,0,.19a1,1,0,0,0,1,.86H77a1,1,0,0,0,1-.85,3.07,3.07,0,0,0,0-.74C77.45,5.1,73,0,67.74,0Z"/><path class="cls-4" d="M75,12.45H72.82s0-.09,0-.14c-.34-4-2.56-7-5.06-7C65,5.26,62.65,9,62.65,13.39s2.33,8.13,5.09,8.13a2.14,2.14,0,0,1,2.14,2.12,2.16,2.16,0,0,1-.23,1,9.86,9.86,0,0,1-8.35-7c-2.62-7.36,2-15.75,7.53-14.72S74.91,12,74.91,12,74.94,12.19,75,12.45Z"/><path class="cls-5" d="M72.82,12.45s0-.09,0-.14c-.34-4-2.56-7-5.06-7C65,5.26,62.65,9,62.65,13.39s2.33,8.13,5.09,8.13a2.11,2.11,0,0,1,1.66.79,2.58,2.58,0,0,0-.9-.3c-1-.15-4,.8-5.88-4.68S63.14,4.26,68,4.77,72.82,12.45,72.82,12.45Z"/><path class="cls-6" d="M68.83,25.48a2.22,2.22,0,0,1-1.09.29c-5.24,0-9.35-5.44-9.35-12.38,0-6.32,3.4-11.39,8-12.25C64.4,1.92,61.55,3.59,60,8.6c-2.5,8.22,1.48,14.61,5.4,16.13A11.48,11.48,0,0,0,68.83,25.48Z"/><ellipse class="cls-6" cx="59.58" cy="13.3" rx="0.91" ry="2.14"/><ellipse class="cls-6" cx="61.15" cy="13.13" rx="0.53" ry="1.04"/><path class="cls-2" d="M48.32,12.45H44.13l0-.14c-.34-4-2.56-7-5.05-7C36.29,5.26,34,9,34,13.39s2.34,8.13,5.1,8.13a2.12,2.12,0,0,1,2.13,2.12,2,2,0,0,1-.23,1,2.11,2.11,0,0,1-.82.88,2.15,2.15,0,0,1-1.08.29c-5.25,0-9.36-5.44-9.36-12.38,0-6.32,3.4-11.39,8-12.25A6.58,6.58,0,0,1,39.05,1c4.76,0,8.76,4.71,9.29,11A1.67,1.67,0,0,1,48.32,12.45Z"/><path class="cls-11" d="M39.05,1c4.76,0,8.76,4.71,9.29,11a1.67,1.67,0,0,1,0,.5H44.13l0-.14c-.34-4-2.56-7-5.05-7C36.29,5.26,34,9,34,13.39s2.34,8.13,5.1,8.13a2.12,2.12,0,0,1,2.13,2.12,2,2,0,0,1-.23,1,2.11,2.11,0,0,1-.82.88,2.15,2.15,0,0,1-1.08.29c-5.25,0-9.36-5.44-9.36-12.38,0-6.32,3.4-11.39,8-12.25A6.58,6.58,0,0,1,39.05,1m0-1a8.32,8.32,0,0,0-1.59.15c-5.08,1-8.77,6.53-8.77,13.24,0,7.5,4.55,13.38,10.36,13.38a3.16,3.16,0,0,0,1.59-.43,3.13,3.13,0,0,0-1.59-5.82c-2.18,0-4.1-3.34-4.1-7.13s1.92-7.13,4.1-7.13c2,0,3.77,2.75,4.06,6.14a.54.54,0,0,0,0,.19,1,1,0,0,0,1,.86h4.19a1,1,0,0,0,1-.85,3.08,3.08,0,0,0,0-.74C48.76,5.1,44.34,0,39.05,0Z"/><path class="cls-4" d="M46.3,12.45H44.13l0-.14c-.34-4-2.56-7-5.05-7C36.29,5.26,34,9,34,13.39s2.34,8.13,5.1,8.13a2.14,2.14,0,0,1,1.66.79,2.09,2.09,0,0,1,.47,1.33,2,2,0,0,1-.23,1,9.87,9.87,0,0,1-8.35-7C30,10.26,34.55,1.87,40.14,2.9S46.21,12,46.21,12,46.25,12.19,46.3,12.45Z"/><path class="cls-5" d="M44.13,12.45l0-.14c-.34-4-2.56-7-5.05-7C36.29,5.26,34,9,34,13.39s2.34,8.13,5.1,8.13a2.14,2.14,0,0,1,1.66.79,2.65,2.65,0,0,0-.9-.3c-1-.15-4,.8-5.88-4.68s.52-13.07,5.34-12.56S44.13,12.45,44.13,12.45Z"/><path class="cls-6" d="M40.13,25.48a2.15,2.15,0,0,1-1.08.29c-5.25,0-9.36-5.44-9.36-12.38,0-6.32,3.4-11.39,8-12.25-1.94.78-4.8,2.45-6.32,7.46-2.49,8.22,1.48,14.61,5.41,16.13A11.49,11.49,0,0,0,40.13,25.48Z"/><ellipse class="cls-6" cx="30.88" cy="13.3" rx="0.91" ry="2.14"/><ellipse class="cls-6" cx="32.46" cy="13.13" rx="0.53" ry="1.04"/><path class="cls-2" d="M19.63,12.45h-4.2s0-.09,0-.14c-.34-4-2.56-7-5.05-7-2.76,0-5.1,3.72-5.1,8.13s2.34,8.13,5.1,8.13a2.13,2.13,0,0,1,2.13,2.12,2.15,2.15,0,0,1-1.05,1.84,2.21,2.21,0,0,1-1.08.29C5.11,25.77,1,20.33,1,13.39,1,7.07,4.4,2,9,1.14A6.46,6.46,0,0,1,10.36,1c4.76,0,8.75,4.71,9.29,11A2.75,2.75,0,0,1,19.63,12.45Z"/><path class="cls-12" d="M10.36,1c4.76,0,8.75,4.71,9.29,11a2.75,2.75,0,0,1,0,.5h-4.2s0-.09,0-.14c-.34-4-2.56-7-5.05-7-2.76,0-5.1,3.72-5.1,8.13s2.34,8.13,5.1,8.13a2.13,2.13,0,0,1,2.13,2.12,2.15,2.15,0,0,1-1.05,1.84,2.21,2.21,0,0,1-1.08.29C5.11,25.77,1,20.33,1,13.39,1,7.07,4.4,2,9,1.14A6.46,6.46,0,0,1,10.36,1m0-1a8.51,8.51,0,0,0-1.6.15C3.69,1.12,0,6.68,0,13.39c0,7.5,4.55,13.38,10.36,13.38a3.15,3.15,0,0,0,1.58-.43,3.07,3.07,0,0,0,1.21-1.29,3.11,3.11,0,0,0-2.79-4.53c-2.18,0-4.1-3.34-4.1-7.13s1.92-7.13,4.1-7.13c1.94,0,3.76,2.75,4.05,6.14,0,.08,0,.13,0,.19a1,1,0,0,0,1,.86h4.2a1,1,0,0,0,1-.85,3.08,3.08,0,0,0,0-.74C20.07,5.1,15.64,0,10.36,0Z"/><path class="cls-4" d="M17.61,12.45H15.43s0-.09,0-.14c-.34-4-2.56-7-5.05-7-2.76,0-5.1,3.72-5.1,8.13s2.34,8.13,5.1,8.13a2.14,2.14,0,0,1,2.13,2.12,2.16,2.16,0,0,1-.23,1,9.86,9.86,0,0,1-8.35-7c-2.62-7.36,2-15.75,7.53-14.72S17.52,12,17.52,12,17.55,12.19,17.61,12.45Z"/><path class="cls-5" d="M15.43,12.45s0-.09,0-.14c-.34-4-2.56-7-5.05-7-2.76,0-5.1,3.72-5.1,8.13s2.34,8.13,5.1,8.13a2.1,2.1,0,0,1,1.65.79,2.58,2.58,0,0,0-.9-.3c-1-.15-3.95.8-5.87-4.68S5.76,4.26,10.57,4.77,15.43,12.45,15.43,12.45Z"/><path class="cls-6" d="M11.44,25.48a2.21,2.21,0,0,1-1.08.29C5.11,25.77,1,20.33,1,13.39,1,7.07,4.4,2,9,1.14,7,1.92,4.16,3.59,2.64,8.6.14,16.82,4.12,23.21,8.05,24.73A11.36,11.36,0,0,0,11.44,25.48Z"/><ellipse class="cls-6" cx="2.19" cy="13.3" rx="0.91" ry="2.14"/><ellipse class="cls-6" cx="3.77" cy="13.13" rx="0.53" ry="1.04"/></g></g></g></svg>