<svg xmlns="http://www.w3.org/2000/svg" xmlns:xlink="http://www.w3.org/1999/xlink" viewBox="0 0 856.47 43.95"><defs><style>.cls-1{fill:none;}.cls-2{isolation:isolate;}.cls-11,.cls-3{stroke:#9e5135;stroke-linecap:round;stroke-linejoin:round;stroke-width:3px;}.cls-3{fill:url(#linear-gradient);}.cls-4{clip-path:url(#clip-path);}.cls-5{fill:url(#linear-gradient-2);}.cls-6{fill:#9e5135;}.cls-14,.cls-7{mix-blend-mode:multiply;opacity:0.65;}.cls-7{fill:url(#radial-gradient);}.cls-8{mix-blend-mode:overlay;}.cls-9{fill:#fff;}.cls-10{fill:#eb9669;}.cls-11{fill:url(#linear-gradient-3);}.cls-12{clip-path:url(#clip-path-2);}.cls-13{fill:url(#linear-gradient-4);}.cls-14{fill:url(#radial-gradient-2);}</style><linearGradient id="linear-gradient" x1="1.5" y1="20.48" x2="426.73" y2="20.48" gradientUnits="userSpaceOnUse"><stop offset="0" stop-color="#ffefcb"/><stop offset="0.73" stop-color="#ffd5b0"/></linearGradient><clipPath id="clip-path" transform="translate(1.5 1.5)"><path class="cls-1" d="M426.73,1.5v38H1.5A36,36,0,0,1,13.89,12.62a4.71,4.71,0,0,1,.42-.36A44.68,44.68,0,0,1,43.79,1.5Z"/></clipPath><linearGradient id="linear-gradient-2" x1="0" y1="20.48" x2="438.23" y2="20.48" xlink:href="#linear-gradient"/><radialGradient id="radial-gradient" cx="633.23" cy="162.3" r="103.38" gradientTransform="translate(-980.72 -126.03) scale(1.56 1.4)" gradientUnits="userSpaceOnUse"><stop offset="0" stop-color="#ffeee3"/><stop offset="0.98" stop-color="#e8ba95"/></radialGradient><linearGradient id="linear-gradient-3" x1="298.73" y1="20.48" x2="723.97" y2="20.48" gradientTransform="matrix(-1, 0, 0, 1, 1150.7, 0)" xlink:href="#linear-gradient"/><clipPath id="clip-path-2" transform="translate(1.5 1.5)"><path class="cls-1" d="M426.73,1.5v38H852a36.05,36.05,0,0,0-12.39-26.83l-.42-.36A44.68,44.68,0,0,0,809.67,1.5Z"/></clipPath><linearGradient id="linear-gradient-4" x1="297.23" y1="20.48" x2="735.47" y2="20.48" gradientTransform="matrix(-1, 0, 0, 1, 1150.7, 0)" xlink:href="#linear-gradient"/><radialGradient id="radial-gradient-2" cx="823.99" cy="162.3" r="103.38" gradientTransform="matrix(-1.56, 0, 0, 1.4, 2131.42, -126.03)" xlink:href="#radial-gradient"/></defs><g class="cls-2"><g id="Layer_2" data-name="Layer 2"><g id="Layer_1-2" data-name="Layer 1"><path class="cls-3" d="M426.73,39.45H1.5A36,36,0,0,1,13.89,12.62a4.71,4.71,0,0,1,.42-.36A44.68,44.68,0,0,1,43.79,1.5H426.73" transform="translate(1.5 1.5)"/><g class="cls-4"><path class="cls-5" d="M1.5,41A1.5,1.5,0,0,1,0,39.45C0,28.9,4.58,19,12.89,11.5l.49-.42A46,46,0,0,1,43.79,0H436.73a1.5,1.5,0,0,1,1.5,1.5v38a1.5,1.5,0,0,1-1.5,1.5Z" transform="translate(1.5 1.5)"/><path class="cls-6" d="M436.73,1.5v38H1.5A36,36,0,0,1,13.89,12.62a4.71,4.71,0,0,1,.42-.36A44.68,44.68,0,0,1,43.79,1.5H436.73m0-3H43.79A47.61,47.61,0,0,0,12.38,10l-.49.42C3.25,18.15-1.5,28.47-1.5,39.45a3,3,0,0,0,3,3H436.73a3,3,0,0,0,3-3V1.5a3,3,0,0,0-3-3Z" transform="translate(1.5 1.5)"/><path class="cls-7" d="M436.73,12.26V39.45H1.5A36,36,0,0,1,13.89,12.62a4.71,4.71,0,0,1,.42-.36Z" transform="translate(1.5 1.5)"/><g class="cls-8"><path class="cls-9" d="M433.28,5V36H5.15a32.89,32.89,0,0,1,11-20.81l.25-.22.14-.11A41.11,41.11,0,0,1,43.79,5H433.28m3.45-3.46H43.79A44.68,44.68,0,0,0,14.31,12.26a4.71,4.71,0,0,0-.42.36A36,36,0,0,0,1.5,39.45H436.73V1.5Z" transform="translate(1.5 1.5)"/></g><path class="cls-10" d="M31.94,39.45a29.73,29.73,0,0,1,2.35-15.81,35.91,35.91,0,0,1,9.75-13A39.45,39.45,0,0,1,74.22,1.51a62.19,62.19,0,0,0-15,3.92,48.32,48.32,0,0,0-12.93,7.82,41.88,41.88,0,0,0-9.57,11.57A41.44,41.44,0,0,0,31.94,39.45Z" transform="translate(1.5 1.5)"/><path class="cls-10" d="M72.46,39.45a29.73,29.73,0,0,1,2.35-15.81,35.91,35.91,0,0,1,9.75-13,39.45,39.45,0,0,1,30.18-9.11,62.19,62.19,0,0,0-15,3.92A48.32,48.32,0,0,0,86.8,13.25a42.09,42.09,0,0,0-9.58,11.57A41.63,41.63,0,0,0,72.46,39.45Z" transform="translate(1.5 1.5)"/><path class="cls-10" d="M113,39.45a29.83,29.83,0,0,1,2.36-15.81,35.91,35.91,0,0,1,9.75-13,39.44,39.44,0,0,1,30.17-9.11,62.11,62.11,0,0,0-15,3.92,48.32,48.32,0,0,0-12.93,7.82,42.09,42.09,0,0,0-9.58,11.57A41.64,41.64,0,0,0,113,39.45Z" transform="translate(1.5 1.5)"/><path class="cls-10" d="M153.49,39.45a29.64,29.64,0,0,1,2.36-15.81,35.8,35.8,0,0,1,9.75-13,39.44,39.44,0,0,1,30.17-9.11,62.31,62.31,0,0,0-15,3.92,48.26,48.26,0,0,0-12.92,7.82,42.09,42.09,0,0,0-9.58,11.57A41.44,41.44,0,0,0,153.49,39.45Z" transform="translate(1.5 1.5)"/><path class="cls-10" d="M194,39.45a29.73,29.73,0,0,1,2.35-15.81,35.83,35.83,0,0,1,9.76-13,39.43,39.43,0,0,1,30.17-9.11,62.31,62.31,0,0,0-15,3.92,48.48,48.48,0,0,0-12.93,7.82,42.23,42.23,0,0,0-9.57,11.57A41.44,41.44,0,0,0,194,39.45Z" transform="translate(1.5 1.5)"/><path class="cls-10" d="M234.53,39.45a29.73,29.73,0,0,1,2.35-15.81,35.91,35.91,0,0,1,9.75-13,39.47,39.47,0,0,1,30.18-9.11,62.19,62.19,0,0,0-15,3.92,48.32,48.32,0,0,0-12.93,7.82,42.06,42.06,0,0,0-9.57,11.57A41.44,41.44,0,0,0,234.53,39.45Z" transform="translate(1.5 1.5)"/><path class="cls-10" d="M275.05,39.45a29.73,29.73,0,0,1,2.35-15.81,35.91,35.91,0,0,1,9.75-13,39.45,39.45,0,0,1,30.18-9.11,62.19,62.19,0,0,0-15,3.92,48.32,48.32,0,0,0-12.93,7.82,41.88,41.88,0,0,0-9.57,11.57A41.44,41.44,0,0,0,275.05,39.45Z" transform="translate(1.5 1.5)"/><path class="cls-10" d="M315.57,39.45a29.73,29.73,0,0,1,2.35-15.81,35.91,35.91,0,0,1,9.75-13,39.45,39.45,0,0,1,30.18-9.11,62.19,62.19,0,0,0-15,3.92,48.32,48.32,0,0,0-12.93,7.82,42.09,42.09,0,0,0-9.58,11.57A41.63,41.63,0,0,0,315.57,39.45Z" transform="translate(1.5 1.5)"/><path class="cls-10" d="M356.08,39.45a29.83,29.83,0,0,1,2.36-15.81,35.91,35.91,0,0,1,9.75-13,39.44,39.44,0,0,1,30.17-9.11,62.11,62.11,0,0,0-15,3.92,48.32,48.32,0,0,0-12.93,7.82,42.09,42.09,0,0,0-9.58,11.57A41.64,41.64,0,0,0,356.08,39.45Z" transform="translate(1.5 1.5)"/></g><path class="cls-11" d="M426.73,39.45H852a36.05,36.05,0,0,0-12.39-26.83l-.42-.36A44.68,44.68,0,0,0,809.67,1.5H426.73" transform="translate(1.5 1.5)"/><g class="cls-12"><path class="cls-13" d="M416.73,41a1.5,1.5,0,0,1-1.5-1.5V1.5a1.5,1.5,0,0,1,1.5-1.5H809.67a46.1,46.1,0,0,1,30.48,11.13l.42.36c8.32,7.49,12.9,17.41,12.9,28A1.5,1.5,0,0,1,852,41Z" transform="translate(1.5 1.5)"/><path class="cls-6" d="M809.67,1.5a44.68,44.68,0,0,1,29.49,10.76l.42.36A36.05,36.05,0,0,1,852,39.45H416.73V1.5H809.67m0-3H416.73a3,3,0,0,0-3,3v38a3,3,0,0,0,3,3H852a3,3,0,0,0,3-3c0-11-4.76-21.3-13.39-29.06-.17-.16-.33-.3-.5-.44A47.63,47.63,0,0,0,809.67-1.5Z" transform="translate(1.5 1.5)"/><path class="cls-14" d="M416.73,12.26V39.45H852a36.05,36.05,0,0,0-12.39-26.83l-.42-.36Z" transform="translate(1.5 1.5)"/><g class="cls-8"><path class="cls-9" d="M809.67,5a41.11,41.11,0,0,1,27.21,9.9L837,15l.25.22A32.94,32.94,0,0,1,848.32,36H420.19V5H809.67m0-3.46H416.73v38H852a36.05,36.05,0,0,0-12.39-26.83l-.42-.36A44.68,44.68,0,0,0,809.67,1.5Z" transform="translate(1.5 1.5)"/></g><path class="cls-10" d="M821.53,39.45a41.44,41.44,0,0,0-4.77-14.63,42.09,42.09,0,0,0-9.58-11.57,48.26,48.26,0,0,0-12.92-7.82,62.31,62.31,0,0,0-15-3.92,39.44,39.44,0,0,1,30.17,9.11,35.8,35.8,0,0,1,9.75,13A29.64,29.64,0,0,1,821.53,39.45Z" transform="translate(1.5 1.5)"/><path class="cls-10" d="M781,39.45a41.44,41.44,0,0,0-4.77-14.63,42.06,42.06,0,0,0-9.57-11.57,48.32,48.32,0,0,0-12.93-7.82,62.31,62.31,0,0,0-15-3.92,39.47,39.47,0,0,1,30.18,9.11,35.91,35.91,0,0,1,9.75,13A29.73,29.73,0,0,1,781,39.45Z" transform="translate(1.5 1.5)"/><path class="cls-10" d="M740.49,39.45a41.44,41.44,0,0,0-4.77-14.63,41.88,41.88,0,0,0-9.57-11.57,48.32,48.32,0,0,0-12.93-7.82,62.19,62.19,0,0,0-15-3.92,39.45,39.45,0,0,1,30.18,9.11,35.91,35.91,0,0,1,9.75,13A29.73,29.73,0,0,1,740.49,39.45Z" transform="translate(1.5 1.5)"/><path class="cls-10" d="M700,39.45a41.44,41.44,0,0,0-4.77-14.63,41.88,41.88,0,0,0-9.57-11.57A48.32,48.32,0,0,0,672.7,5.43a62.19,62.19,0,0,0-15-3.92,39.45,39.45,0,0,1,30.18,9.11,35.91,35.91,0,0,1,9.75,13A29.73,29.73,0,0,1,700,39.45Z" transform="translate(1.5 1.5)"/><path class="cls-10" d="M659.46,39.45a41.64,41.64,0,0,0-4.77-14.63,42.09,42.09,0,0,0-9.58-11.57,48.32,48.32,0,0,0-12.93-7.82,62.06,62.06,0,0,0-15-3.92,39.45,39.45,0,0,1,30.18,9.11,35.91,35.91,0,0,1,9.75,13A29.83,29.83,0,0,1,659.46,39.45Z" transform="translate(1.5 1.5)"/><path class="cls-10" d="M618.94,39.45a41.64,41.64,0,0,0-4.77-14.63,42.09,42.09,0,0,0-9.58-11.57,48.26,48.26,0,0,0-12.92-7.82,62.31,62.31,0,0,0-15-3.92,39.44,39.44,0,0,1,30.17,9.11,35.8,35.8,0,0,1,9.75,13A29.64,29.64,0,0,1,618.94,39.45Z" transform="translate(1.5 1.5)"/><path class="cls-10" d="M578.42,39.45a41.44,41.44,0,0,0-4.77-14.63,42.09,42.09,0,0,0-9.58-11.57,48.26,48.26,0,0,0-12.92-7.82,62.31,62.31,0,0,0-15-3.92,39.44,39.44,0,0,1,30.17,9.11,35.8,35.8,0,0,1,9.75,13A29.64,29.64,0,0,1,578.42,39.45Z" transform="translate(1.5 1.5)"/><path class="cls-10" d="M537.9,39.45a41.44,41.44,0,0,0-4.77-14.63,42.06,42.06,0,0,0-9.57-11.57,48.32,48.32,0,0,0-12.93-7.82,62.19,62.19,0,0,0-15-3.92,39.47,39.47,0,0,1,30.18,9.11,35.91,35.91,0,0,1,9.75,13A29.73,29.73,0,0,1,537.9,39.45Z" transform="translate(1.5 1.5)"/><path class="cls-10" d="M497.38,39.45a41.44,41.44,0,0,0-4.77-14.63A41.88,41.88,0,0,0,483,13.25a48.32,48.32,0,0,0-12.93-7.82,62.19,62.19,0,0,0-15-3.92,39.45,39.45,0,0,1,30.18,9.11,35.91,35.91,0,0,1,9.75,13A29.73,29.73,0,0,1,497.38,39.45Z" transform="translate(1.5 1.5)"/></g></g></g></g></svg>