<svg xmlns="http://www.w3.org/2000/svg" xmlns:xlink="http://www.w3.org/1999/xlink" viewBox="0 0 112.95 118.91"><defs><style>.cls-1{isolation:isolate;}.cls-2{fill:url(#radial-gradient);}.cls-3{fill:#317a35;}.cls-4{fill:#fff;}.cls-10,.cls-4{mix-blend-mode:overlay;}.cls-5{fill:url(#linear-gradient);}.cls-6{fill:#336626;}.cls-7{fill:url(#linear-gradient-2);}.cls-8{fill:url(#linear-gradient-3);}.cls-9{fill:#8f1610;}.cls-11{fill:#4d0f03;}.cls-12{fill:#ffb583;}.cls-13{fill:#b04621;}.cls-14{fill:#ffa96f;}.cls-15{fill:url(#linear-gradient-4);}.cls-16{fill:url(#linear-gradient-5);}.cls-17{fill:url(#linear-gradient-6);}.cls-18{fill:url(#linear-gradient-7);}.cls-19{fill:url(#linear-gradient-8);}.cls-20{fill:url(#linear-gradient-9);}.cls-21{fill:url(#linear-gradient-10);}.cls-22{fill:url(#linear-gradient-11);}.cls-23{fill:url(#radial-gradient-2);}.cls-24{fill:#4b1e0e;}.cls-25{fill:#3e0100;}.cls-26{fill:#943a11;}.cls-27{fill:#d45c17;}.cls-28{fill:#bf5415;}</style><radialGradient id="radial-gradient" cx="6857.05" cy="67.92" r="26.02" gradientTransform="matrix(-1, 0, 0, 1, 6928.39, 0)" gradientUnits="userSpaceOnUse"><stop offset="0" stop-color="#cbff8b"/><stop offset="1" stop-color="#c7ed34"/></radialGradient><linearGradient id="linear-gradient" x1="454.43" y1="-383.51" x2="440.3" y2="-427.33" gradientTransform="matrix(0.99, -0.17, 0.17, 0.99, -320.87, 548.5)" gradientUnits="userSpaceOnUse"><stop offset="0" stop-color="#96de62"/><stop offset="1" stop-color="#2a8740"/></linearGradient><linearGradient id="linear-gradient-2" x1="446.93" y1="-421.03" x2="420.31" y2="-465.28" gradientTransform="matrix(0.99, -0.17, 0.17, 0.99, -320.87, 548.5)" gradientUnits="userSpaceOnUse"><stop offset="0.02" stop-color="#e5ff71"/><stop offset="0.26" stop-color="#96de62"/><stop offset="1" stop-color="#2a8740"/></linearGradient><linearGradient id="linear-gradient-3" x1="104.39" y1="8.8" x2="120.47" y2="8.8" gradientTransform="translate(-92.27)" gradientUnits="userSpaceOnUse"><stop offset="0" stop-color="#ff231d"/><stop offset="0.93" stop-color="#ff7c41"/></linearGradient><linearGradient id="linear-gradient-4" x1="99.09" y1="24.75" x2="115.16" y2="24.75" xlink:href="#linear-gradient-3"/><linearGradient id="linear-gradient-5" x1="115.9" y1="21.41" x2="131.98" y2="21.41" xlink:href="#linear-gradient-3"/><linearGradient id="linear-gradient-6" x1="121.01" y1="37.19" x2="137.09" y2="37.19" xlink:href="#linear-gradient-3"/><linearGradient id="linear-gradient-7" x1="111.81" y1="55.82" x2="127.88" y2="55.82" xlink:href="#linear-gradient-3"/><linearGradient id="linear-gradient-8" x1="122.61" y1="69.15" x2="138.68" y2="69.15" xlink:href="#linear-gradient-3"/><linearGradient id="linear-gradient-9" x1="130.37" y1="50.93" x2="146.45" y2="50.93" xlink:href="#linear-gradient-3"/><linearGradient id="linear-gradient-10" x1="140.36" y1="66.11" x2="156.43" y2="66.11" xlink:href="#linear-gradient-3"/><linearGradient id="linear-gradient-11" x1="104.66" y1="40.27" x2="120.73" y2="40.27" xlink:href="#linear-gradient-3"/><radialGradient id="radial-gradient-2" cx="6885.41" cy="91.29" r="32.68" xlink:href="#radial-gradient"/></defs><g class="cls-1"><g id="Layer_2" data-name="Layer 2"><g id="Layer_1-2" data-name="Layer 1"><path class="cls-2" d="M78,102a1,1,0,0,1-.56-.18,53.81,53.81,0,0,1-17-22.68c-4-10.57-3.84-21.65.58-32.93a66.7,66.7,0,0,1,6.26-12,1,1,0,0,1,.81-.44,1,1,0,0,1,.51.15l.38.25a29.85,29.85,0,0,1,3.89,3.37c7.75,7.9,19,26.28,7.18,60.68-.24.71-.5,1.45-.77,2.19-.12.32-.23.64-.36,1a.92.92,0,0,1-.62.58A.86.86,0,0,1,78,102Z"/><path class="cls-3" d="M68.06,34.77l.35.23a29.22,29.22,0,0,1,3.75,3.25c6.86,7,18.81,25.14,7,59.69-.25.72-.5,1.44-.77,2.18l-.35,1A53.2,53.2,0,0,1,61.31,78.84C58,70.2,56.9,59.3,61.88,46.6a64.87,64.87,0,0,1,6.18-11.83m0-1.92a1.93,1.93,0,0,0-1.61.87A68.44,68.44,0,0,0,60.09,45.9c-4.5,11.51-4.7,22.82-.57,33.62a54.79,54.79,0,0,0,17.36,23.12A2,2,0,0,0,78,103a1.75,1.75,0,0,0,.55-.08,1.91,1.91,0,0,0,1.24-1.16l.36-1c.27-.74.53-1.48.78-2.21,5.29-15.41,6.5-29.29,3.59-41.25a43.44,43.44,0,0,0-11-20.4,30.34,30.34,0,0,0-4-3.48l-.43-.28a1.92,1.92,0,0,0-1-.3Z"/><path class="cls-4" d="M80.88,92.32a103.51,103.51,0,0,0,.53-27A39.38,39.38,0,0,0,68,41c-4.28,2.94-7,9.26-8.57,14a50.7,50.7,0,0,1,2.49-8.34,64.87,64.87,0,0,1,6.18-11.83l.35.23a29.22,29.22,0,0,1,3.75,3.25C78.64,44.86,89.66,61.4,80.88,92.32Z"/><path class="cls-3" d="M76.26,102.31c-.93-4.36-1.78-8.71-2.58-13.07s-1.55-8.74-2.21-13.12-1.26-8.78-1.69-13.2a98.09,98.09,0,0,1-.59-13.27,98.36,98.36,0,0,0,1.57,13.14c.76,4.34,1.66,8.66,2.65,13s2,8.58,3.16,12.84,2.29,8.53,3.52,12.74h0a2,2,0,1,1-3.8,1.11A.57.57,0,0,1,76.26,102.31Z"/><path class="cls-3" d="M74,86a47.23,47.23,0,0,1,1.36-5.78,41.17,41.17,0,0,1,2.08-5.52,25.8,25.8,0,0,1,3-5.06,15.59,15.59,0,0,1,4.33-3.89,15.47,15.47,0,0,0-3.94,4.17A25.26,25.26,0,0,0,78.27,75a39,39,0,0,0-1.56,5.52,45.71,45.71,0,0,0-.85,5.62v0A1,1,0,1,1,74,86.05Z"/><path class="cls-3" d="M71.5,76.71a29.52,29.52,0,0,0-2.3-4.65,33,33,0,0,0-3.09-4.26,26.6,26.6,0,0,0-3.82-3.68,24.67,24.67,0,0,0-4.51-2.84,24.92,24.92,0,0,1,4.79,2.46,26,26,0,0,1,4.23,3.4,32.72,32.72,0,0,1,3.59,4.12A30.79,30.79,0,0,1,73.28,76a1,1,0,1,1-1.73.84l0-.07Z"/><path class="cls-3" d="M78.92,46C73.4,47.85,70.16,60.6,70.16,60.6l-.38-2.46C72.55,50,74.65,46.88,78.92,46Z"/><path class="cls-3" d="M75.6,93.5A23.35,23.35,0,0,0,73.14,89a24.25,24.25,0,0,0-3.42-4,25.05,25.05,0,0,0-2-1.71c-.73-.48-1.44-1-2.22-1.44a23.57,23.57,0,0,0-4.89-2.1,24,24,0,0,1,7.51,3,26.34,26.34,0,0,1,2.23,1.57,25.73,25.73,0,0,1,3.93,3.81,24.18,24.18,0,0,1,3.09,4.64,1,1,0,1,1-1.71.87.3.3,0,0,1,0-.08Z"/><path class="cls-5" d="M63.07,83.28a.36.36,0,0,1-.2-.06c-.28-.16-.54-.34-.81-.51A83.47,83.47,0,0,1,45.75,68.9a101.24,101.24,0,0,1-7.09-8.7c-2.18-3.1-4.21-6.29-6-9.49-2-3.68-3.59-7-4.92-10.11A97.83,97.83,0,0,1,23.93,30,89,89,0,0,1,21.44,19.1c-.33-2.13-.54-3.9-.67-5.57,0-.23,0-.45,0-.69a23,23,0,0,1,.06-5,.39.39,0,0,1,.38-.32h0a.39.39,0,0,1,.35.38,9.93,9.93,0,0,0,.32,2l.14.59c.21,1,.43,1.84.65,2.64.47,1.74.95,3.52,1.5,5.24.94,3.11,2.08,6.38,3.57,10.28a152.54,152.54,0,0,0,9.19,19.56,145,145,0,0,0,11.91,18A181.27,181.27,0,0,0,62.67,82l.67.68a.38.38,0,0,1-.27.65Z"/><path class="cls-6" d="M21.17,7.94a13.74,13.74,0,0,0,.46,2.7q.3,1.35.66,2.67c.48,1.77.95,3.53,1.51,5.26,1.06,3.49,2.28,6.92,3.57,10.3a153.12,153.12,0,0,0,9.22,19.61A144.56,144.56,0,0,0,48.52,66.54,184.2,184.2,0,0,0,62.4,82.22l.67.68c-.28-.17-.55-.35-.82-.53A82.3,82.3,0,0,1,46,68.64,103.2,103.2,0,0,1,39,60q-3.23-4.59-6-9.45c-1.78-3.29-3.45-6.64-4.9-10.07A96.38,96.38,0,0,1,24.3,29.91,88.53,88.53,0,0,1,21.82,19c-.29-1.85-.53-3.69-.67-5.54,0-.22,0-.44,0-.67a21.61,21.61,0,0,1,.05-4.89m0-.76a.76.76,0,0,0-.76.64,23.32,23.32,0,0,0-.06,5.06c0,.21,0,.44,0,.67.13,1.69.34,3.47.67,5.6a88.29,88.29,0,0,0,2.51,11,96.9,96.9,0,0,0,3.77,10.61c1.34,3.15,2.95,6.46,4.93,10.14,1.85,3.23,3.89,6.43,6.07,9.53a102.39,102.39,0,0,0,7.13,8.75A82.94,82.94,0,0,0,61.84,83l.83.54a.8.8,0,0,0,.4.11.77.77,0,0,0,.6-.29.76.76,0,0,0-.06-1L63.28,82l-.34-.35A180.28,180.28,0,0,1,49.13,66.07a144.4,144.4,0,0,1-11.87-18,151.21,151.21,0,0,1-9.17-19.52c-1.49-3.88-2.62-7.13-3.56-10.24-.56-1.73-1-3.51-1.5-5.23-.22-.8-.43-1.66-.65-2.64,0-.19-.09-.39-.13-.58a9.5,9.5,0,0,1-.32-2,.76.76,0,0,0-.71-.75Z"/><path class="cls-7" d="M62.4,82.22l-.15.15A82.3,82.3,0,0,1,46,68.64,103.2,103.2,0,0,1,39,60q-3.23-4.59-6-9.45c-1.78-3.29-3.45-6.64-4.9-10.07A96.38,96.38,0,0,1,24.3,29.91,88.53,88.53,0,0,1,21.82,19c-.29-1.85-.53-3.69-.67-5.54,0-.22,0-.44,0-.67,1.55,6.39,3.55,17.45,12.22,34.1A110.13,110.13,0,0,0,62.4,82.22Z"/><path class="cls-8" d="M20.16,16.84a8.26,8.26,0,0,1-2.55-.42A8,8,0,0,1,20.16.76a8,8,0,0,1,2.55.42,8,8,0,0,1-2.55,15.66Z"/><path class="cls-9" d="M20.16,1.53a7.27,7.27,0,1,1,0,14.54,7.27,7.27,0,0,1,0-14.54m0-1.53h0a8.8,8.8,0,0,0-2.79,17.14,8.55,8.55,0,0,0,2.79.46A8.8,8.8,0,0,0,23,.46,8.55,8.55,0,0,0,20.16,0Z"/><g class="cls-10"><path class="cls-11" d="M26.12,10.79a6.29,6.29,0,1,1-11.92-4,6.16,6.16,0,0,1,2-2.87,6.27,6.27,0,0,0,10.15,5.9A6.38,6.38,0,0,1,26.12,10.79Z"/></g><path class="cls-12" d="M18.37,3.75c-.9,0-1.54-.36-1.63-.91a1.07,1.07,0,0,1,.53-1,3.06,3.06,0,0,1,1.28-.49,3.88,3.88,0,0,1,.57-.05c.9,0,1.54.36,1.63.91s-.67,1.33-1.82,1.51A3.64,3.64,0,0,1,18.37,3.75Z"/><path class="cls-13" d="M19.12,1.63c.69,0,1.23.24,1.29.62s-.61,1-1.53,1.11a3.08,3.08,0,0,1-.51,0c-.69,0-1.23-.24-1.29-.62s.61-1,1.53-1.11a2.92,2.92,0,0,1,.51,0m0-.7h0a4.32,4.32,0,0,0-.62,0,3.51,3.51,0,0,0-1.44.56,1.44,1.44,0,0,0-.67,1.35c.12.73.9,1.21,2,1.21a4.44,4.44,0,0,0,.62,0,3.51,3.51,0,0,0,1.44-.56,1.41,1.41,0,0,0,.66-1.35C21,1.41,20.2.93,19.12.93Z"/><ellipse class="cls-14" cx="23.15" cy="5.64" rx="1.69" ry="2.6" transform="translate(10.46 25.81) rotate(-71.5)"/><path class="cls-15" d="M14.86,32.78a8.26,8.26,0,0,1-2.56-.41,8,8,0,0,1,2.55-15.66,7.88,7.88,0,0,1,2.55.42,8,8,0,0,1-2.54,15.65Z"/><path class="cls-9" d="M14.85,17.48a7.39,7.39,0,0,1,2.31.37A7.27,7.27,0,0,1,14.85,32a7.11,7.11,0,0,1-2.3-.38,7.27,7.27,0,0,1,2.3-14.16m0-1.53h0a8.8,8.8,0,0,0-2.79,17.14,8.63,8.63,0,0,0,2.79.46,8.8,8.8,0,0,0,2.8-17.14,8.65,8.65,0,0,0-2.8-.46Z"/><g class="cls-10"><path class="cls-11" d="M20.81,26.74a6.29,6.29,0,1,1-11.92-4,6.16,6.16,0,0,1,2-2.87A6.27,6.27,0,0,0,21,25.78,6.38,6.38,0,0,1,20.81,26.74Z"/></g><path class="cls-12" d="M13.07,19.7c-.91,0-1.55-.36-1.64-.92a1.06,1.06,0,0,1,.53-1,3.05,3.05,0,0,1,1.29-.49,2.71,2.71,0,0,1,.56-.05c.9,0,1.55.36,1.63.91s-.67,1.33-1.81,1.51A3.75,3.75,0,0,1,13.07,19.7Z"/><path class="cls-13" d="M13.81,17.58c.69,0,1.23.24,1.29.62s-.61,1-1.53,1.11a2.89,2.89,0,0,1-.5,0c-.7,0-1.24-.24-1.3-.62s.61-1,1.53-1.11a3.08,3.08,0,0,1,.51,0m0-.7a4.44,4.44,0,0,0-.62.05c-1.36.22-2.25,1-2.1,1.91.11.73.89,1.2,2,1.2a3.14,3.14,0,0,0,.61-.05c1.36-.21,2.25-1,2.11-1.9s-.9-1.21-2-1.21Z"/><ellipse class="cls-14" cx="17.85" cy="21.59" rx="1.69" ry="2.6" transform="translate(-8.29 31.66) rotate(-71.5)"/><path class="cls-16" d="M31.67,29.45A8,8,0,1,1,39.29,24,8,8,0,0,1,31.67,29.45Z"/><path class="cls-9" d="M31.67,14.14a7.17,7.17,0,0,1,2.31.38,7.27,7.27,0,0,1-2.31,14.16,7.11,7.11,0,0,1-2.3-.38,7.27,7.27,0,0,1,2.3-14.16m0-1.53h0a8.8,8.8,0,0,0-2.79,17.14,8.63,8.63,0,0,0,2.79.46,8.8,8.8,0,0,0,2.79-17.14,8.55,8.55,0,0,0-2.79-.46Z"/><g class="cls-10"><path class="cls-11" d="M37.63,23.4a6.29,6.29,0,1,1-11.92-4,6.16,6.16,0,0,1,2-2.87,6.27,6.27,0,0,0,10.15,5.9A6.38,6.38,0,0,1,37.63,23.4Z"/></g><path class="cls-12" d="M29.89,16.36c-.91,0-1.55-.36-1.64-.92s.67-1.32,1.82-1.5a2.71,2.71,0,0,1,.56,0c.9,0,1.54.36,1.63.91s-.67,1.33-1.81,1.51A3.87,3.87,0,0,1,29.89,16.36Z"/><path class="cls-13" d="M30.63,14.24c.69,0,1.23.24,1.29.62s-.61,1-1.53,1.11a2.92,2.92,0,0,1-.51,0c-.69,0-1.23-.24-1.29-.62s.61-1,1.53-1.11a3.08,3.08,0,0,1,.51,0m0-.7h0a4.44,4.44,0,0,0-.62.05,3.41,3.41,0,0,0-1.43.56,1.4,1.4,0,0,0-.67,1.35c.11.73.89,1.21,2,1.21a4.32,4.32,0,0,0,.62-.05,3.51,3.51,0,0,0,1.44-.56,1.44,1.44,0,0,0,.67-1.35c-.12-.73-.9-1.21-2-1.21Z"/><ellipse class="cls-14" cx="34.67" cy="18.25" rx="1.69" ry="2.6" transform="translate(6.36 45.33) rotate(-71.5)"/><path class="cls-17" d="M36.78,45.23a8,8,0,0,1,0-16.07,8.25,8.25,0,0,1,2.55.41,8,8,0,0,1-2.55,15.66Z"/><path class="cls-9" d="M36.78,29.92a7.28,7.28,0,0,1,6.9,9.58,7.29,7.29,0,0,1-6.9,5,7.5,7.5,0,0,1-2.31-.38,7.27,7.27,0,0,1,2.31-14.17m0-1.53h0a8.82,8.82,0,1,0,2.79.46,8.79,8.79,0,0,0-2.79-.46Z"/><g class="cls-10"><path class="cls-11" d="M42.74,39.19a6.29,6.29,0,0,1-11.92-4,6.14,6.14,0,0,1,2-2.88A6.27,6.27,0,0,0,43,38.22,6.82,6.82,0,0,1,42.74,39.19Z"/></g><path class="cls-12" d="M35,32.14c-.9,0-1.54-.36-1.63-.91a1.06,1.06,0,0,1,.53-1,3.07,3.07,0,0,1,1.28-.5,3.82,3.82,0,0,1,.57,0c.9,0,1.54.35,1.63.91s-.67,1.32-1.81,1.51A3.82,3.82,0,0,1,35,32.14Z"/><path class="cls-13" d="M35.74,30c.69,0,1.23.24,1.29.62s-.61,1-1.53,1.11a3,3,0,0,1-.51,0c-.69,0-1.23-.24-1.29-.62s.61-1,1.53-1.11a4.38,4.38,0,0,1,.51,0m0-.69a3.24,3.24,0,0,0-.62.05c-1.36.22-2.25,1-2.11,1.9s.9,1.21,2,1.21a4.44,4.44,0,0,0,.62-.05c1.36-.22,2.25-1,2.1-1.91-.11-.73-.89-1.2-2-1.2Z"/><ellipse class="cls-14" cx="39.77" cy="34.04" rx="1.69" ry="2.6" transform="translate(-5.12 60.96) rotate(-71.5)"/><path class="cls-18" d="M27.56,63.86a8,8,0,0,1-.81-16,7.81,7.81,0,0,1,.83,0,8,8,0,0,1,.81,16A7.86,7.86,0,0,1,27.56,63.86Z"/><path class="cls-9" d="M27.58,48.55a7.27,7.27,0,0,1,.73,14.5,6.28,6.28,0,0,1-.75,0,7.27,7.27,0,0,1-.73-14.5,6.28,6.28,0,0,1,.75,0m0-1.53h0c-.3,0-.6,0-.9,0a8.8,8.8,0,0,0,.88,17.55c.3,0,.6,0,.9-.05A8.8,8.8,0,0,0,27.58,47Z"/><g class="cls-10"><path class="cls-11" d="M33.82,55.18A6.29,6.29,0,1,1,22,53a6.27,6.27,0,0,0,11.68,1.2A6.16,6.16,0,0,1,33.82,55.18Z"/></g><path class="cls-12" d="M22.86,52.2a1,1,0,0,1-.87-.4c-.37-.57.07-1.49,1-2.13a2.89,2.89,0,0,1,1.49-.51,1,1,0,0,1,.87.4c.37.57-.07,1.48-1,2.12A2.83,2.83,0,0,1,22.86,52.2Z"/><path class="cls-13" d="M24.52,49.51a.67.67,0,0,1,.58.24c.26.39-.16,1.13-.94,1.64a2.5,2.5,0,0,1-1.3.46.67.67,0,0,1-.58-.24c-.26-.4.16-1.13.94-1.65a2.48,2.48,0,0,1,1.3-.45m0-.7h0a3.22,3.22,0,0,0-1.68.57c-1.16.76-1.63,1.86-1.14,2.61a1.33,1.33,0,0,0,1.16.55A3.13,3.13,0,0,0,24.54,52c1.16-.76,1.63-1.85,1.14-2.6a1.33,1.33,0,0,0-1.16-.56Z"/><ellipse class="cls-14" cx="29" cy="51.71" rx="2.6" ry="1.69" transform="matrix(0.99, -0.1, 0.1, 0.99, -5.1, 3.21)"/><path class="cls-19" d="M38.37,77.19a8,8,0,0,1-.81-16,7.5,7.5,0,0,1,.82,0,8,8,0,0,1,.81,16C38.91,77.17,38.64,77.19,38.37,77.19Z"/><path class="cls-9" d="M38.38,61.88a7.27,7.27,0,0,1,.73,14.51q-.37,0-.75,0a7.27,7.27,0,0,1-.72-14.5c.25,0,.5,0,.74,0m0-1.52h0c-.3,0-.6,0-.9,0A8.8,8.8,0,0,0,38.36,78c.3,0,.61,0,.91,0a8.8,8.8,0,0,0-.89-17.55Z"/><g class="cls-10"><path class="cls-11" d="M44.62,68.52a6.28,6.28,0,1,1-12.5,1.27,6.13,6.13,0,0,1,.64-3.45,6.27,6.27,0,0,0,11.68,1.2A6.28,6.28,0,0,1,44.62,68.52Z"/></g><path class="cls-12" d="M33.66,65.53a1,1,0,0,1-.86-.4c-.38-.57.06-1.49,1-2.12a2.85,2.85,0,0,1,1.49-.52,1,1,0,0,1,.87.4c.38.57-.07,1.49-1,2.12A2.86,2.86,0,0,1,33.66,65.53Z"/><path class="cls-13" d="M35.32,62.84a.67.67,0,0,1,.58.24c.26.4-.16,1.13-.94,1.64a2.5,2.5,0,0,1-1.29.46.66.66,0,0,1-.58-.24c-.26-.4.16-1.13.93-1.64a2.53,2.53,0,0,1,1.3-.46m0-.7h0a3.22,3.22,0,0,0-1.68.57,3.35,3.35,0,0,0-1.08,1.11,1.39,1.39,0,0,0-.05,1.5,1.31,1.31,0,0,0,1.16.56,3.18,3.18,0,0,0,1.68-.58c1.15-.76,1.63-1.85,1.13-2.6a1.33,1.33,0,0,0-1.16-.56Z"/><ellipse class="cls-14" cx="39.8" cy="65.04" rx="2.6" ry="1.69" transform="translate(-6.4 4.38) rotate(-5.83)"/><path class="cls-20" d="M46.14,59a8,8,0,1,1,0-16.07,8.25,8.25,0,0,1,2.55.41A8,8,0,0,1,46.14,59Z"/><path class="cls-9" d="M46.14,43.66a7.27,7.27,0,0,1,0,14.54,7.48,7.48,0,0,1-2.31-.37,7.27,7.27,0,0,1,2.31-14.17m0-1.53h0a8.81,8.81,0,1,0,2.79.46,8.79,8.79,0,0,0-2.79-.46Z"/><g class="cls-10"><path class="cls-11" d="M52.09,52.92a6.28,6.28,0,1,1-9.91-6.86A6.27,6.27,0,0,0,52.33,52,5.39,5.39,0,0,1,52.09,52.92Z"/></g><path class="cls-12" d="M44.35,45.88c-.9,0-1.55-.36-1.63-.91a1.06,1.06,0,0,1,.53-1,3.07,3.07,0,0,1,1.28-.5,3.88,3.88,0,0,1,.57-.05c.9,0,1.54.36,1.63.92s-.67,1.32-1.82,1.5A2.71,2.71,0,0,1,44.35,45.88Z"/><path class="cls-13" d="M45.09,43.76c.7,0,1.24.24,1.3.62s-.61,1-1.53,1.11a3.08,3.08,0,0,1-.51,0c-.69,0-1.23-.24-1.29-.62s.61-1,1.53-1.11a2.89,2.89,0,0,1,.5,0m0-.69a3.14,3.14,0,0,0-.61,0c-1.36.21-2.25,1-2.11,1.9s.9,1.21,2,1.21a4.44,4.44,0,0,0,.62,0c1.36-.22,2.25-1,2.1-1.91-.11-.73-.89-1.2-2-1.2Z"/><ellipse class="cls-14" cx="49.13" cy="47.77" rx="1.69" ry="2.6" transform="translate(-11.76 79.21) rotate(-71.5)"/><path class="cls-21" d="M56.13,74.15a8.06,8.06,0,0,1-7.19-4.45,8,8,0,0,1,7.18-11.62,8.15,8.15,0,0,1,2.55.41,8,8,0,0,1-2.54,15.66Z"/><path class="cls-9" d="M56.12,58.84a7.12,7.12,0,0,1,2.31.38,7.27,7.27,0,0,1-2.3,14.17A7.4,7.4,0,0,1,53.82,73a7.27,7.27,0,0,1,2.3-14.17m0-1.53h0a8.8,8.8,0,0,0-2.79,17.15,8.92,8.92,0,0,0,2.8.45,8.8,8.8,0,0,0,2.79-17.14,8.93,8.93,0,0,0-2.8-.46Z"/><g class="cls-10"><path class="cls-11" d="M62.08,68.11a6.29,6.29,0,0,1-11.92-4,6.14,6.14,0,0,1,2-2.88,6.27,6.27,0,0,0,10.15,5.9A4.88,4.88,0,0,1,62.08,68.11Z"/></g><path class="cls-12" d="M54.34,61.06c-.91,0-1.55-.36-1.64-.91s.67-1.33,1.82-1.51a3.64,3.64,0,0,1,.56,0c.91,0,1.55.36,1.64.92S56,60.83,54.9,61A3.6,3.6,0,0,1,54.34,61.06Z"/><path class="cls-13" d="M55.08,58.94c.69,0,1.23.24,1.29.62s-.61,1-1.53,1.11a2.89,2.89,0,0,1-.5,0c-.69,0-1.23-.24-1.3-.62s.61-1,1.53-1.11a3.08,3.08,0,0,1,.51,0m0-.69a3.31,3.31,0,0,0-.62,0,3.16,3.16,0,0,0-1.43.56,1.38,1.38,0,0,0-.67,1.34c.12.74.89,1.21,2,1.21a4.18,4.18,0,0,0,.61,0,3.51,3.51,0,0,0,1.44-.56,1.42,1.42,0,0,0,.67-1.35c-.12-.73-.89-1.2-2-1.2Z"/><ellipse class="cls-14" cx="59.12" cy="62.95" rx="1.69" ry="2.6" transform="translate(-19.34 99.04) rotate(-71.5)"/><path class="cls-22" d="M20.42,48.31a8,8,0,1,1,0-16.07,8.25,8.25,0,0,1,2.55.41,8,8,0,0,1-2.55,15.66Z"/><path class="cls-9" d="M20.42,33a7.28,7.28,0,0,1,0,14.55,7.5,7.5,0,0,1-2.31-.38A7.27,7.27,0,0,1,20.42,33m0-1.53h0a8.8,8.8,0,1,0,8.34,11.59,8.8,8.8,0,0,0-5.55-11.13,8.82,8.82,0,0,0-2.79-.46Z"/><g class="cls-10"><path class="cls-11" d="M26.37,42.27a6.29,6.29,0,1,1-9.91-6.87,6.27,6.27,0,0,0,10.15,5.9A5.72,5.72,0,0,1,26.37,42.27Z"/></g><path class="cls-12" d="M18.63,35.22c-.9,0-1.55-.36-1.63-.91s.67-1.33,1.81-1.51a3.87,3.87,0,0,1,.56,0c.91,0,1.55.36,1.64.92a1.06,1.06,0,0,1-.53,1,3.06,3.06,0,0,1-1.29.5A3.6,3.6,0,0,1,18.63,35.22Z"/><path class="cls-13" d="M19.37,33.1c.7,0,1.24.24,1.3.62s-.61,1-1.53,1.11a3.08,3.08,0,0,1-.51,0c-.69,0-1.23-.24-1.29-.62s.61-1,1.53-1.11a2.89,2.89,0,0,1,.5,0m0-.69a3.18,3.18,0,0,0-.62.05,3.25,3.25,0,0,0-1.44.56,1.4,1.4,0,0,0-.67,1.34c.12.74.9,1.21,2,1.21a4.44,4.44,0,0,0,.62,0A3.41,3.41,0,0,0,20.68,35a1.4,1.4,0,0,0,.67-1.35c-.11-.73-.89-1.2-2-1.2Z"/><ellipse class="cls-14" cx="23.41" cy="37.11" rx="1.69" ry="2.6" transform="translate(-19.21 47.54) rotate(-71.5)"/><path class="cls-23" d="M53.58,111.07c-1.52,0-3-.06-4.54-.17-14.26-1.1-26.82-7.3-37.32-18.43A84.25,84.25,0,0,1,1.39,78.84a1.21,1.21,0,0,1,.38-1.66l.5-.3a36.4,36.4,0,0,1,6-2.63A51.68,51.68,0,0,1,25,71.51c13,0,33.25,4.73,56.42,27.27.69.67,1.39,1.36,2.09,2.07l.91.93a1.24,1.24,0,0,1,.33,1,1.22,1.22,0,0,1-.61.88A68.33,68.33,0,0,1,53.58,111.07Z"/><path class="cls-3" d="M25,72.72c14,0,33.45,5.4,55.58,26.93l2.07,2,.9.92a67.68,67.68,0,0,1-30,7.24c-1.45,0-2.94,0-4.45-.17-11.64-.89-24.69-5.51-36.52-18A82.54,82.54,0,0,1,2.42,78.2s.15-.1.46-.27A34.4,34.4,0,0,1,8.62,75.4,49.76,49.76,0,0,1,25,72.72m0-2.42h0A52.22,52.22,0,0,0,7.82,73.11a36.47,36.47,0,0,0-6.14,2.71c-.38.22-.56.34-.56.34a2.43,2.43,0,0,0-.76,3.31A86.37,86.37,0,0,0,10.84,93.31C21.56,104.66,34.37,111,49,112.11c1.52.11,3.08.17,4.63.17a69.59,69.59,0,0,0,31.14-7.54,2.42,2.42,0,0,0,.56-3.8l-.93-1c-.69-.7-1.4-1.4-2.1-2.08C58.8,75.09,38.16,70.3,25,70.3Z"/><path class="cls-4" d="M75.09,94.6c-6-4-17.59-11-30.61-15.19-18.85-6.06-35,2.25-35,2.25,1.05,6.48,6.79,13,11.36,17.33a63.23,63.23,0,0,1-8.19-7.35A82.54,82.54,0,0,1,2.42,78.2s.15-.1.46-.27A34.4,34.4,0,0,1,8.62,75.4C19.66,71.56,44.5,67.89,75.09,94.6Z"/><path class="cls-3" d="M84,105.27c-5.49-1.29-10.9-2.66-16.33-4.1s-10.81-3-16.18-4.56-10.71-3.3-16-5.19A124.42,124.42,0,0,1,20,84.94a125.52,125.52,0,0,0,15.86,5.29c5.37,1.48,10.79,2.78,16.24,4s10.9,2.3,16.38,3.32,11,2,16.45,2.85h0a2.5,2.5,0,1,1-.77,5Z"/><path class="cls-3" d="M64.1,99.09a58.67,58.67,0,0,1-5.87-4.67A51.41,51.41,0,0,1,53,89.07a33.17,33.17,0,0,1-4.15-6.17,19.62,19.62,0,0,1-2.11-7.05,19.77,19.77,0,0,0,2.63,6.76,32.83,32.83,0,0,0,4.53,5.65A49.41,49.41,0,0,0,59.39,93a57.55,57.55,0,0,0,6,4l0,0a1.21,1.21,0,1,1-1.21,2.1Z"/><path class="cls-3" d="M52.2,96.89a37.88,37.88,0,0,0-6.55.13,40.32,40.32,0,0,0-6.54,1.23,33.58,33.58,0,0,0-6.26,2.37,32.39,32.39,0,0,0-5.69,3.62,32.68,32.68,0,0,1,5.4-4.15,33.79,33.79,0,0,1,6.17-3,43.16,43.16,0,0,1,6.65-1.88,39.65,39.65,0,0,1,7-.75,1.22,1.22,0,0,1,0,2.43H52.2Z"/><path class="cls-3" d="M21.07,71.83c-.82,7.32,12,17.91,12,17.91l-3-.89C22.3,81.31,19.81,77.2,21.07,71.83Z"/><path class="cls-3" d="M73.59,101.28a28.35,28.35,0,0,0-6.46.38,30.89,30.89,0,0,0-6.37,1.76c-1,.38-2,.9-3,1.38a30.09,30.09,0,0,0-7.88,6.2,30.29,30.29,0,0,1,4.68-4.93,29.16,29.16,0,0,1,2.74-2,33.41,33.41,0,0,1,9.48-4.14,30.53,30.53,0,0,1,7-1,1.21,1.21,0,1,1,.06,2.42h-.19Z"/><path class="cls-24" d="M86.12,117.74a30.12,30.12,0,0,1-4.93-.39c-.69-.13-1.43-.27-2.16-.47l-.1,0h0C71.84,115,67.05,110,65.75,103.22a12.76,12.76,0,0,1-.19-1.27,18.14,18.14,0,0,1-.12-3.32,10.81,10.81,0,0,1-.41-5.1c.72-4.31,4.16-8,9.43-10a28.31,28.31,0,0,1,10.29-1.82,34.79,34.79,0,0,1,5.81.49,33.83,33.83,0,0,1,7.86,2.29c7.49,3.21,12.34,8.69,12.69,14.34a10.88,10.88,0,0,1,.53,5.46,5,5,0,0,1-.17.72c0,.12-.09.32-.16.52-1.47,4.31-6.76,8.23-14.15,10.49a38.11,38.11,0,0,1-11,1.7Z"/><path class="cls-25" d="M84.75,82.9a34.19,34.19,0,0,1,5.62.47A32.52,32.52,0,0,1,98,85.58c7,3,11.75,8.18,12,13.5a9.66,9.66,0,0,1,.54,5c0,.19-.08.38-.13.57s-.1.32-.15.48c-1.41,4.13-6.84,7.76-13.39,9.76a36.83,36.83,0,0,1-10.7,1.65,28.31,28.31,0,0,1-4.73-.38c-.71-.12-1.39-.26-2-.44h0c-7.55-2-11.36-7.22-12.41-12.74a11.82,11.82,0,0,1-.18-1.17,17.93,17.93,0,0,1-.1-3.35,9.79,9.79,0,0,1-.44-4.76c.68-4,4-7.26,8.7-9.08a27,27,0,0,1,9.87-1.74m0-2.34A29.44,29.44,0,0,0,74,82.47c-5.65,2.18-9.35,6.14-10.14,10.86a11.85,11.85,0,0,0,.39,5.45,19.18,19.18,0,0,0,.13,3.32,13,13,0,0,0,.21,1.38c1.37,7.2,6.46,12.48,14,14.48l.15,0c.79.22,1.58.37,2.26.49a30.65,30.65,0,0,0,5.14.42,39.17,39.17,0,0,0,11.39-1.76c7.74-2.36,13.32-6.56,14.91-11.24a5.78,5.78,0,0,0,.19-.61,6.73,6.73,0,0,0,.19-.83,11.9,11.9,0,0,0-.54-5.86c-.46-6-5.55-11.82-13.38-15.18a35,35,0,0,0-8.13-2.36,35.92,35.92,0,0,0-6-.51Z"/><path class="cls-26" d="M96.82,114.92c6.55-2,12-5.63,13.39-9.76.05-.16.11-.32.15-.48l-1.22.58S105.8,111.55,96.82,114.92Z"/><path class="cls-25" d="M92.68,111.2c9.85,2.47,15.14-2.57,17.53-6a6.8,6.8,0,0,0,.28-1,9.66,9.66,0,0,0-.54-5c-.24-5.32-5-10.49-12-13.5C92.79,90.51,79.24,107.83,92.68,111.2Z"/><path class="cls-26" d="M79.31,115.74a17.67,17.67,0,0,1-9.38-10.39l-3.21-3.52A11.82,11.82,0,0,0,66.9,103C68,108.52,71.76,113.78,79.31,115.74Z"/><path class="cls-25" d="M66.9,103C70,107.4,77,113.36,90.56,110.91c15.68-2.83-4.24-18.94-15.68-26.27-4.72,1.82-8,5-8.7,9.08a9.79,9.79,0,0,0,.44,4.76A17.28,17.28,0,0,0,66.9,103Z"/><path class="cls-26" d="M85.66,111.4A31.37,31.37,0,0,0,98,111.12h0c6.39-1.49,11-5.15,11.86-10.06.8-4.74-2.16-9.55-7.35-13a31.23,31.23,0,0,0-12.13-4.66c-12.06-2-22.89,2.61-24.19,10.35S73.6,109.38,85.66,111.4Z"/><path class="cls-27" d="M73.3,86.82C73.7,88,75,89.31,78.46,90l1.07.23a27,27,0,0,1,4.36,1.38c.79.33,1.53.7,2.26,1.09.6-2.88,4.22-3.76,4.22-3.76a7.69,7.69,0,0,0-1,5.65c1.59,1,3.25,2.11,5.21,3.27a7.93,7.93,0,0,0,1.74.77c5.21,1.7,9.08-3.2,3.35-9.4A13,13,0,0,0,94.53,86c-6.68-2.48-16-1.69-19.75-.1a3.91,3.91,0,0,0-1.38.81A.64.64,0,0,0,73.3,86.82Z"/><path class="cls-28" d="M73.3,86.82C73.7,88,75,89.31,78.46,90l1.07.23a27,27,0,0,1,4.36,1.38,26.72,26.72,0,0,0-6.55-2.72c-2.41-.5-4.5-1.84,1.54-3.15,4.35-.93,11.79-.17,15.65.29-6.68-2.48-16-1.69-19.75-.1a3.91,3.91,0,0,0-1.38.81A.64.64,0,0,0,73.3,86.82Z"/><path class="cls-27" d="M73.49,103.1a14.72,14.72,0,0,0,2.85,2.08l0,0c10.26,5.78,24.39-2,24.39-2l-.43-1.44s-.93.73-3.63.31c-1.2-.18-4.71-2.2-8.73-4.51-2.2-1.27-4.55-2.62-6.75-3.82l-1-.55a13,13,0,0,0-3.77,2.66c-.24.22-.45.45-.64.64-.46.48-.73.81-.73.81-.39-2.84,2.41-4.81,3-5.2-.79-.39-1.51-.73-2.19-1h0a12.5,12.5,0,0,0-1.78-.63C68.62,89,63.25,93.66,73.49,103.1Zm16.68,1.83A4.42,4.42,0,0,1,91,101l.6-1a6,6,0,0,1,.41,1c.07.29.22.51.35.87a.68.68,0,0,1,0,.55Z"/><path class="cls-28" d="M75.42,96.75c.12-.06.24-.15.38-.21a9.83,9.83,0,0,1,5.57-.81c2.7.28,8.68,4.69,9,5L88,97.61c-2.2-1.27-4.55-2.62-6.75-3.82a3.23,3.23,0,0,0-1,0,9.82,9.82,0,0,0-3.74,2.11C75.91,96.32,75.52,96.67,75.42,96.75Z"/><path class="cls-28" d="M73.49,103.1a14.72,14.72,0,0,0,2.85,2.08c-6.21-4.68-8.15-11.87-6.75-13.33,1.67-1.73,6.62-.1,6.62-.1l-.34-.61h0a12.5,12.5,0,0,0-1.78-.63C68.62,89,63.25,93.66,73.49,103.1Z"/><path class="cls-25" d="M111,98.52a15.44,15.44,0,0,1-18.07,3.9,18.32,18.32,0,0,1-2.88-1.7l-1.35-1-1.21-.95a50.47,50.47,0,0,0-5-3.56,36.06,36.06,0,0,0-5.33-2.87,20.17,20.17,0,0,0-5.77-1.61,11.17,11.17,0,0,0-3,0,9,9,0,0,0-2.9,1,7.81,7.81,0,0,1,2.72-1.71,11.68,11.68,0,0,1,3.21-.6,18.24,18.24,0,0,1,6.44,1,36.4,36.4,0,0,1,11.21,6.29l1.24,1,1.18.88A20.4,20.4,0,0,0,94,100.21a15.7,15.7,0,0,0,5.54,1.59A18.89,18.89,0,0,0,111,98.52Z"/><path class="cls-25" d="M82.62,92.66a6.95,6.95,0,0,0-4.74,1.24,7,7,0,0,0-1.8,1.62,7.65,7.65,0,0,0-1.14,2A7.29,7.29,0,0,1,76.53,96a6.13,6.13,0,0,1,1.91-.92,7.71,7.71,0,0,1,2-.3,7.49,7.49,0,0,1,1.92.23Z"/><path class="cls-25" d="M94.29,100.79c-.72.23-1,.09-1.56.43a7.28,7.28,0,0,0-1.35,1.18,5.77,5.77,0,0,0-1.42,3,5.12,5.12,0,0,1,2.22-2,5.35,5.35,0,0,1,1.34-.42,4.94,4.94,0,0,1,1.26-.2Z"/><path class="cls-25" d="M90.17,98.58a4.07,4.07,0,0,1-1.93-1.12,4.41,4.41,0,0,1-1.19-2,4,4,0,0,1,1.4-4.19,17.06,17.06,0,0,0-.31,2,5,5,0,0,0,.17,1.81A11.1,11.1,0,0,0,90.17,98.58Z"/><path class="cls-28" d="M89.34,94.54c1.59,1,3.25,2.11,5.21,3.27a7.93,7.93,0,0,0,1.74.77,20.19,20.19,0,0,1-5.52-3.94c-1.61-1.85-.4-5.75-.4-5.75A7.69,7.69,0,0,0,89.34,94.54Z"/><path class="cls-24" d="M76.53,78.54A10.86,10.86,0,0,1,70,76.35a7.65,7.65,0,0,1-.65-.51,12.87,12.87,0,0,1-1.51-1.53,7.08,7.08,0,0,1-2.43-2.23c-1.54-2.36-1.5-5.59.11-8.86a19.77,19.77,0,0,1,7-7.68,21.93,21.93,0,0,1,4.72-2.36,17.52,17.52,0,0,1,5.72-1,9.28,9.28,0,0,1,6.58,2.29,7,7,0,0,1,2.64,2.36,3.15,3.15,0,0,1,.23.41,2.5,2.5,0,0,1,.15.32c1.2,2.68.41,6.86-2.11,11.16a22.8,22.8,0,0,1-7,7.61,14.26,14.26,0,0,1-1.23.73l-.09,0a12.07,12.07,0,0,1-5.67,1.49Z"/><path class="cls-25" d="M83,52.89A8.58,8.58,0,0,1,89.15,55a6.23,6.23,0,0,1,2.45,2.15,2.07,2.07,0,0,1,.19.32c0,.1.1.2.14.3,1.15,2.57.16,6.67-2.07,10.48a22.31,22.31,0,0,1-6.75,7.36c-.39.25-.77.49-1.16.69h0a11.33,11.33,0,0,1-5.39,1.44,10.16,10.16,0,0,1-6.06-2,7,7,0,0,1-.6-.48,11,11,0,0,1-1.51-1.54,6.43,6.43,0,0,1-2.3-2.06c-1.45-2.22-1.29-5.18.15-8.12A19.13,19.13,0,0,1,73,56.17a21.12,21.12,0,0,1,4.56-2.28,16.54,16.54,0,0,1,5.47-1m0-1.51a18,18,0,0,0-6,1.09,22.79,22.79,0,0,0-4.89,2.44,20.66,20.66,0,0,0-7.31,8c-1.72,3.51-1.74,7,0,9.59a7.84,7.84,0,0,0,2.57,2.41,12.36,12.36,0,0,0,1.54,1.53c.21.19.45.38.68.55a11.67,11.67,0,0,0,6.94,2.32,12.77,12.77,0,0,0,6-1.58l.08,0a14.7,14.7,0,0,0,1.29-.76,23.46,23.46,0,0,0,7.24-7.87c2.64-4.51,3.44-8.94,2.15-11.86,0-.11-.11-.24-.18-.37a3.24,3.24,0,0,0-.28-.47A7.45,7.45,0,0,0,90,53.81a10.06,10.06,0,0,0-7-2.43Z"/><path class="cls-26" d="M89.86,68.29c2.23-3.81,3.22-7.91,2.07-10.48,0-.1-.09-.2-.14-.3l-.32.81A15.25,15.25,0,0,1,89.86,68.29Z"/><path class="cls-25" d="M86.27,68.34c5.75-3.14,6-7.85,5.66-10.53a3.34,3.34,0,0,0-.33-.62A6.23,6.23,0,0,0,89.15,55c-2.45-2.42-7-2.8-11.6-1.15C77.27,58.49,78.43,72.63,86.27,68.34Z"/><path class="cls-26" d="M81.92,76.35a11.37,11.37,0,0,1-9-.82l-3.06-.26a7,7,0,0,0,.6.48A10.33,10.33,0,0,0,81.92,76.35Z"/><path class="cls-25" d="M70.47,75.75c3.41.71,9.3.5,14.67-6.61,6.19-8.21-10.3-7.13-18.93-5.59-1.44,2.94-1.6,5.9-.15,8.12a6.43,6.43,0,0,0,2.3,2.06A11.58,11.58,0,0,0,70.47,75.75Z"/><path class="cls-26" d="M83,71.51A20.2,20.2,0,0,0,88.75,66h0c2.37-3.51,3-7.28,1.21-10s-5.2-3.57-9.18-2.94A20.13,20.13,0,0,0,73,56.17c-6.6,4.32-9.7,11.26-6.93,15.5S76.44,75.83,83,71.51Z"/><path class="cls-27" d="M66.42,65.28c.7.38,1.88.44,3.81-.78.2-.13.41-.25.61-.36a16.23,16.23,0,0,1,2.67-1.25c.52-.19,1-.34,1.54-.48-1-1.62.36-3.63.36-3.63a4.93,4.93,0,0,0,2,3.13c1.2-.22,2.47-.42,3.91-.73a5.53,5.53,0,0,0,1.15-.39c3.22-1.48,2.91-5.5-2.52-5.92a8.21,8.21,0,0,0-3.82.72c-4.26,1.74-8.33,6.21-9.41,8.59a2.5,2.5,0,0,0-.29,1A.38.38,0,0,0,66.42,65.28Z"/><path class="cls-28" d="M66.42,65.28c.7.38,1.88.44,3.81-.78.2-.13.41-.25.61-.36a16.23,16.23,0,0,1,2.67-1.25,16.88,16.88,0,0,0-4.3,1.58c-1.36.82-2.93,1.09-.64-2.17,1.65-2.34,5.5-5.24,7.54-6.71-4.26,1.74-8.33,6.21-9.41,8.59a2.5,2.5,0,0,0-.29,1A.38.38,0,0,0,66.42,65.28Z"/><path class="cls-27" d="M73.63,72.91a9.72,9.72,0,0,0,2.26-.26h0C83.3,70.89,86.61,61,86.61,61l-.83-.49s-.12.76-1.58,1.74A33.05,33.05,0,0,1,78.09,64c-1.6.36-3.31.75-4.88,1.15l-.71.18a8.36,8.36,0,0,0-.62,2.91c0,.21,0,.41,0,.58,0,.43,0,.7,0,.7-1.43-1.17-1-3.33-.86-3.77-.54.16-1,.32-1.48.48h0a9.62,9.62,0,0,0-1.12.48C65.15,68.36,64.65,72.92,73.63,72.91Zm8.71-6.44A2.85,2.85,0,0,1,81,64.27l-.18-.76a4.29,4.29,0,0,1,.62.28,4.79,4.79,0,0,0,.55.26.46.46,0,0,1,.24.27Z"/><path class="cls-28" d="M71.77,69.06c0-.09,0-.18.09-.27A6.26,6.26,0,0,1,74.14,66c1.4-1,6.17-1.58,6.47-1.61L78.09,64c-1.6.36-3.31.75-4.88,1.15a2.24,2.24,0,0,0-.48.45,6.19,6.19,0,0,0-.85,2.64C71.81,68.64,71.78,69,71.77,69.06Z"/><path class="cls-28" d="M73.63,72.91a9.72,9.72,0,0,0,2.26-.26c-5,.5-9.06-2.06-9-3.37,0-1.55,3.09-2.94,3.09-2.94l-.43-.14h0a9.62,9.62,0,0,0-1.12.48C65.15,68.36,64.65,72.92,73.63,72.91Z"/><path class="cls-25" d="M89.41,54.31a9.95,9.95,0,0,1-6.86,9.76,12.06,12.06,0,0,1-2.11.46l-1.07.12-1,.08a29.8,29.8,0,0,0-7.7,1.46A13.32,13.32,0,0,0,67.25,68a7.72,7.72,0,0,0-1.41,1.33A5.87,5.87,0,0,0,64.91,71a5.06,5.06,0,0,1,.54-2,7.42,7.42,0,0,1,1.26-1.7A11.87,11.87,0,0,1,70.19,65a23.46,23.46,0,0,1,8.07-1.92l1-.07.94-.09a12.33,12.33,0,0,0,1.85-.34,10.23,10.23,0,0,0,3.33-1.67A12.24,12.24,0,0,0,89.41,54.31Z"/><path class="cls-25" d="M73.39,64a6,6,0,0,0-1.1,1.18,5.85,5.85,0,0,0-.61,1.49,4.8,4.8,0,0,0-.14,1.55,5.46,5.46,0,0,0,.34,1.46A5.22,5.22,0,0,1,72,68.21a4.16,4.16,0,0,1,.5-1.27,4.87,4.87,0,0,1,.83-1,4.57,4.57,0,0,1,1-.73Z"/><path class="cls-25" d="M82.48,62.71c-.24.42-.45.49-.55.88a5.09,5.09,0,0,0-.13,1.16,3.83,3.83,0,0,0,.65,2,3.43,3.43,0,0,1,.18-1.92,3.53,3.53,0,0,1,.45-.78,3.06,3.06,0,0,1,.51-.65Z"/><path class="cls-25" d="M79.56,63.46a2.64,2.64,0,0,1-1.41.32,2.91,2.91,0,0,1-1.44-.43,2.59,2.59,0,0,1-1.17-2.6,10.48,10.48,0,0,0,.74,1.1,3.27,3.27,0,0,0,.88.79A7.13,7.13,0,0,0,79.56,63.46Z"/><path class="cls-28" d="M77.39,61.91c1.2-.22,2.47-.42,3.91-.73a5.53,5.53,0,0,0,1.15-.39,13.2,13.2,0,0,1-4.34.55c-1.57-.18-2.7-2.56-2.7-2.56A4.93,4.93,0,0,0,77.39,61.91Z"/></g></g></g></svg>