<svg xmlns="http://www.w3.org/2000/svg" xmlns:xlink="http://www.w3.org/1999/xlink" viewBox="0 0 112.96 118.87"><defs><style>.cls-1{fill:url(#radial-gradient);}.cls-2{fill:#317a35;}.cls-3{fill:#fff;}.cls-4{fill:url(#linear-gradient);}.cls-5{fill:#336626;}.cls-6{fill:url(#linear-gradient-2);}.cls-7{fill:url(#linear-gradient-3);}.cls-8{fill:#8f1610;}.cls-9{fill:#4d0f03;}.cls-10{fill:#ffb583;}.cls-11{fill:#b04621;}.cls-12{fill:#ffa96f;}.cls-13{fill:url(#linear-gradient-4);}.cls-14{fill:url(#linear-gradient-5);}.cls-15{fill:url(#linear-gradient-6);}.cls-16{fill:url(#linear-gradient-7);}.cls-17{fill:url(#linear-gradient-8);}.cls-18{fill:url(#linear-gradient-9);}.cls-19{fill:url(#linear-gradient-10);}.cls-20{fill:url(#linear-gradient-11);}.cls-21{fill:url(#radial-gradient-2);}.cls-22{fill:#4b1e0e;}.cls-23{fill:#3e0100;}.cls-24{fill:#943a11;}.cls-25{fill:#d45c17;}.cls-26{fill:#bf5415;}</style><radialGradient id="radial-gradient" cx="6875.05" cy="6" r="26.02" gradientTransform="translate(6946.38 73.89) rotate(180)" gradientUnits="userSpaceOnUse"><stop offset="0" stop-color="#cbff8b"/><stop offset="1" stop-color="#c7ed34"/></radialGradient><linearGradient id="linear-gradient" x1="387.54" y1="465.39" x2="373.41" y2="509.21" gradientTransform="matrix(0.99, -0.17, -0.17, -0.99, -242.94, 619.34)" gradientUnits="userSpaceOnUse"><stop offset="0" stop-color="#96de62"/><stop offset="1" stop-color="#2a8740"/></linearGradient><linearGradient id="linear-gradient-2" x1="380.11" y1="502.29" x2="353.49" y2="546.54" gradientTransform="matrix(0.99, -0.17, -0.17, -0.99, -242.94, 619.34)" gradientUnits="userSpaceOnUse"><stop offset="0.02" stop-color="#e5ff71"/><stop offset="0.26" stop-color="#96de62"/><stop offset="1" stop-color="#2a8740"/></linearGradient><linearGradient id="linear-gradient-3" x1="104.39" y1="65.09" x2="120.47" y2="65.09" gradientTransform="matrix(1, 0, 0, -1, -92.27, 73.89)" gradientUnits="userSpaceOnUse"><stop offset="0" stop-color="#ff231d"/><stop offset="0.93" stop-color="#ff7c41"/></linearGradient><linearGradient id="linear-gradient-4" x1="99.09" y1="49.15" x2="115.16" y2="49.15" xlink:href="#linear-gradient-3"/><linearGradient id="linear-gradient-5" x1="115.9" y1="52.44" x2="131.98" y2="52.44" xlink:href="#linear-gradient-3"/><linearGradient id="linear-gradient-6" x1="121.01" y1="36.69" x2="137.09" y2="36.69" xlink:href="#linear-gradient-3"/><linearGradient id="linear-gradient-7" x1="111.81" y1="18.03" x2="127.88" y2="18.03" xlink:href="#linear-gradient-3"/><linearGradient id="linear-gradient-8" x1="122.61" y1="4.7" x2="138.68" y2="4.7" xlink:href="#linear-gradient-3"/><linearGradient id="linear-gradient-9" x1="130.37" y1="22.92" x2="146.45" y2="22.92" xlink:href="#linear-gradient-3"/><linearGradient id="linear-gradient-10" x1="140.36" y1="7.77" x2="156.43" y2="7.77" xlink:href="#linear-gradient-3"/><linearGradient id="linear-gradient-11" x1="104.65" y1="33.61" x2="120.72" y2="33.61" xlink:href="#linear-gradient-3"/><radialGradient id="radial-gradient-2" cx="6885.41" cy="-17.4" r="32.68" gradientTransform="matrix(1, 0, 0, -1, 0, 73.89)" xlink:href="#radial-gradient"/></defs><g id="Layer_2" data-name="Layer 2"><g id="Layer_1-2" data-name="Layer 1"><path class="cls-1" d="M78,102a.94.94,0,0,1-.56-.18,53.67,53.67,0,0,1-17-22.68c-4-10.57-3.84-21.65.58-32.93a66.45,66.45,0,0,1,6.26-12,1,1,0,0,1,.81-.44,1,1,0,0,1,.51.15l.38.25a30.43,30.43,0,0,1,3.89,3.37c7.75,7.9,19,26.28,7.18,60.68-.24.71-.5,1.45-.77,2.19-.12.32-.23.64-.36,1a.92.92,0,0,1-.62.58A1,1,0,0,1,78,102Z"/><path class="cls-2" d="M68.06,34.77l.35.23a29.73,29.73,0,0,1,3.75,3.25c6.86,7,18.81,25.14,7,59.69-.25.72-.5,1.44-.77,2.18l-.35,1A53.12,53.12,0,0,1,61.31,78.84C58,70.2,56.9,59.3,61.88,46.6a63.7,63.7,0,0,1,6.18-11.83m0-1.92a1.92,1.92,0,0,0-1.61.87A67.84,67.84,0,0,0,60.09,45.9c-4.5,11.51-4.7,22.82-.57,33.62a54.7,54.7,0,0,0,17.36,23.12A1.94,1.94,0,0,0,78,103a1.75,1.75,0,0,0,.55-.08,1.91,1.91,0,0,0,1.24-1.16l.36-1c.27-.74.53-1.48.78-2.21,5.29-15.41,6.5-29.29,3.59-41.25a43.58,43.58,0,0,0-11-20.4,30.8,30.8,0,0,0-4-3.48l-.43-.28a2,2,0,0,0-1-.3Z"/><path class="cls-3" d="M80.88,92.32a103.87,103.87,0,0,0,.53-27A39.4,39.4,0,0,0,68,41c-4.28,2.94-7,9.26-8.57,14a50.31,50.31,0,0,1,2.49-8.34A63.7,63.7,0,0,1,68.1,34.83l.35.23a29.73,29.73,0,0,1,3.75,3.25C78.64,44.86,89.66,61.4,80.88,92.32Z"/><path class="cls-2" d="M76.26,102.31c-.93-4.36-1.78-8.71-2.58-13.07s-1.55-8.74-2.21-13.12-1.26-8.78-1.69-13.2a96.42,96.42,0,0,1-.59-13.27,96.75,96.75,0,0,0,1.57,13.14c.76,4.34,1.66,8.66,2.65,13s2,8.58,3.16,12.84,2.29,8.53,3.52,12.74h0A2,2,0,1,1,76.45,103a1.74,1.74,0,0,1-.16-.55A.47.47,0,0,1,76.26,102.31Z"/><path class="cls-2" d="M74,86a46.17,46.17,0,0,1,1.36-5.78,40.34,40.34,0,0,1,2.08-5.52,25.56,25.56,0,0,1,3-5.06,15.33,15.33,0,0,1,4.33-3.89,15.34,15.34,0,0,0-3.94,4.17A25,25,0,0,0,78.27,75a37.72,37.72,0,0,0-1.56,5.52,44.31,44.31,0,0,0-.85,5.62h0a1,1,0,1,1-1.9.64,1,1,0,0,1,0-.73Z"/><path class="cls-2" d="M71.5,76.71a30,30,0,0,0-2.3-4.65,34,34,0,0,0-3.09-4.26,27.13,27.13,0,0,0-3.82-3.68,24.61,24.61,0,0,0-4.51-2.84,24.92,24.92,0,0,1,4.79,2.46,26,26,0,0,1,4.23,3.4,32.72,32.72,0,0,1,3.59,4.12A31.42,31.42,0,0,1,73.28,76a1,1,0,0,1-.08,1.41,1,1,0,0,1-1.41-.08.91.91,0,0,1-.24-.49v-.07Z"/><path class="cls-2" d="M78.92,46c-5.52,1.85-8.76,14.6-8.76,14.6l-.38-2.46C72.55,50,74.65,46.88,78.92,46Z"/><path class="cls-2" d="M75.6,93.5A24,24,0,0,0,73.14,89a25.1,25.1,0,0,0-3.42-4c-.64-.6-1.31-1.18-2-1.71s-1.44-1-2.22-1.44a23.73,23.73,0,0,0-4.89-2.1,24.08,24.08,0,0,1,7.51,3,26.34,26.34,0,0,1,2.23,1.57,25.75,25.75,0,0,1,3.93,3.81,24.49,24.49,0,0,1,3.09,4.64,1,1,0,0,1-1.46,1.37,1,1,0,0,1-.25-.5.11.11,0,0,1,0-.08Z"/><path class="cls-4" d="M63.07,83.28a.36.36,0,0,1-.2-.06c-.28-.16-.54-.34-.81-.51A83.55,83.55,0,0,1,45.75,68.9a100,100,0,0,1-7.09-8.7,109.75,109.75,0,0,1-6-9.49c-2-3.68-3.59-7-4.92-10.11A95.64,95.64,0,0,1,23.93,30a88.61,88.61,0,0,1-2.49-10.9c-.33-2.13-.54-3.9-.67-5.57v-.69a22,22,0,0,1,.06-5,.39.39,0,0,1,.38-.32h0a.4.4,0,0,1,.35.38,9,9,0,0,0,.32,2l.14.59c.21,1,.43,1.84.65,2.64.47,1.74.95,3.52,1.5,5.24.94,3.11,2.08,6.38,3.57,10.28a150.2,150.2,0,0,0,9.19,19.56,143.39,143.39,0,0,0,11.91,18A180.43,180.43,0,0,0,62.67,82l.67.68a.38.38,0,0,1,0,.54.39.39,0,0,1-.27.11Z"/><path class="cls-5" d="M21.17,7.94a13,13,0,0,0,.46,2.7q.3,1.35.66,2.67c.48,1.77.95,3.53,1.51,5.26,1.06,3.49,2.28,6.92,3.57,10.3a151,151,0,0,0,9.22,19.61A143.47,143.47,0,0,0,48.52,66.54,182.74,182.74,0,0,0,62.4,82.22l.67.68c-.28-.17-.55-.35-.82-.53A82.11,82.11,0,0,1,46,68.64,101.59,101.59,0,0,1,39,60q-3.24-4.59-6-9.45c-1.78-3.29-3.45-6.64-4.9-10.07a97.16,97.16,0,0,1-3.8-10.57A86.54,86.54,0,0,1,21.82,19c-.29-1.85-.53-3.69-.67-5.54v-.67A21,21,0,0,1,21.2,7.9m0-.76a.76.76,0,0,0-.76.64,22.54,22.54,0,0,0-.06,5.06v.67c.13,1.69.34,3.47.67,5.6a88,88,0,0,0,2.51,11,94.84,94.84,0,0,0,3.77,10.61c1.34,3.15,3,6.46,4.93,10.14,1.85,3.23,3.89,6.43,6.07,9.53a99.68,99.68,0,0,0,7.13,8.75A82.61,82.61,0,0,0,61.84,83l.83.54a.8.8,0,0,0,.4.11.79.79,0,0,0,.6-.29.77.77,0,0,0-.06-1L63.28,82l-.34-.35A179.15,179.15,0,0,1,49.13,66.07a144.2,144.2,0,0,1-11.87-18,149.58,149.58,0,0,1-9.17-19.52c-1.49-3.88-2.62-7.13-3.56-10.24-.56-1.73-1-3.51-1.5-5.23-.22-.8-.43-1.66-.65-2.64a3,3,0,0,0-.13-.58,9,9,0,0,1-.32-2,.77.77,0,0,0-.71-.75Z"/><path class="cls-6" d="M62.4,82.22l-.15.15A82.11,82.11,0,0,1,46,68.64,101.59,101.59,0,0,1,39,60q-3.24-4.59-6-9.45c-1.78-3.29-3.45-6.64-4.9-10.07a97.16,97.16,0,0,1-3.8-10.57A86.54,86.54,0,0,1,21.82,19c-.29-1.85-.53-3.69-.67-5.54v-.67c1.55,6.39,3.55,17.45,12.22,34.1A109.94,109.94,0,0,0,62.4,82.22Z"/><path class="cls-7" d="M20.16,16.84a8.46,8.46,0,0,1-2.55-.42A8,8,0,0,1,20.16.76a8,8,0,0,1,2.55.42,8,8,0,0,1-2.55,15.66Z"/><path class="cls-8" d="M20.16,1.53a7.27,7.27,0,0,1,0,14.54h0a7.27,7.27,0,1,1,0-14.54m0-1.53h0a8.8,8.8,0,0,0-2.79,17.14,8.5,8.5,0,0,0,2.79.46A8.8,8.8,0,0,0,23,.46,8.62,8.62,0,0,0,20.16,0Z"/><path class="cls-9" d="M26.12,10.79A6.29,6.29,0,0,1,14.06,7.18c0-.13.09-.26.14-.39a6.11,6.11,0,0,1,2-2.87,6.27,6.27,0,0,0,10.15,5.9A8,8,0,0,1,26.12,10.79Z"/><path class="cls-10" d="M18.37,3.75c-.9,0-1.54-.36-1.63-.91a1.06,1.06,0,0,1,.53-1,3,3,0,0,1,1.28-.49,3.55,3.55,0,0,1,.57-.05c.9,0,1.54.36,1.63.91s-.67,1.33-1.82,1.51Z"/><path class="cls-11" d="M19.12,1.63c.69,0,1.23.24,1.29.62s-.61,1-1.53,1.11a4.34,4.34,0,0,1-.51,0c-.69,0-1.23-.24-1.29-.62s.61-1,1.53-1.11h.51m0-.7h0c-.21,0-.42,0-.62,0a3.53,3.53,0,0,0-1.44.56,1.44,1.44,0,0,0-.67,1.35c.12.73.9,1.21,2,1.21H19a3.64,3.64,0,0,0,1.44-.56,1.43,1.43,0,0,0,.66-1.35C21,1.41,20.2.93,19.12.93Z"/><ellipse class="cls-12" cx="23.15" cy="5.65" rx="1.69" ry="2.6" transform="translate(10.45 25.81) rotate(-71.5)"/><path class="cls-13" d="M14.86,32.78a8.21,8.21,0,0,1-2.56-.41,8,8,0,0,1,2.55-15.66,7.93,7.93,0,0,1,2.55.42,8,8,0,0,1-2.54,15.65Z"/><path class="cls-8" d="M14.85,17.48a7.59,7.59,0,0,1,2.31.37A7.27,7.27,0,0,1,14.85,32a7.16,7.16,0,0,1-2.3-.38,7.27,7.27,0,0,1,2.3-14.16m0-1.53h0a8.8,8.8,0,0,0-2.79,17.14,8.5,8.5,0,0,0,2.79.46,8.8,8.8,0,0,0,2.8-17.14A8.65,8.65,0,0,0,14.85,15.93Z"/><path class="cls-9" d="M20.81,26.74A6.29,6.29,0,0,1,8.75,23.13c0-.13.09-.26.14-.39a6.11,6.11,0,0,1,2-2.87A6.27,6.27,0,0,0,21,25.78,7.76,7.76,0,0,1,20.81,26.74Z"/><path class="cls-10" d="M13.07,19.7c-.91,0-1.55-.36-1.64-.92a1,1,0,0,1,.53-1,2.94,2.94,0,0,1,1.29-.49,2.59,2.59,0,0,1,.56-.05c.9,0,1.55.36,1.63.91s-.67,1.33-1.81,1.51A3.6,3.6,0,0,1,13.07,19.7Z"/><path class="cls-11" d="M13.81,17.58c.69,0,1.23.24,1.29.62s-.61,1-1.53,1.11a4.17,4.17,0,0,1-.5,0c-.7,0-1.24-.24-1.3-.62s.61-1,1.53-1.11h.51m0-.7a4.21,4.21,0,0,0-.62.05c-1.36.22-2.25,1-2.1,1.91.11.73.89,1.2,2,1.2A3.2,3.2,0,0,0,13.7,20c1.36-.21,2.25-1,2.11-1.9S14.91,16.88,13.81,16.88Z"/><ellipse class="cls-12" cx="17.84" cy="21.58" rx="1.69" ry="2.6" transform="translate(-8.29 31.66) rotate(-71.5)"/><path class="cls-14" d="M31.67,29.45A8,8,0,1,1,39.29,24,8,8,0,0,1,31.67,29.45Z"/><path class="cls-8" d="M31.67,14.14a7.27,7.27,0,0,1,0,14.54,7.16,7.16,0,0,1-2.3-.38,7.27,7.27,0,0,1,2.3-14.16m0-1.53h0a8.8,8.8,0,0,0-2.79,17.14,8.5,8.5,0,0,0,2.79.46,8.8,8.8,0,0,0,2.79-17.14A8.55,8.55,0,0,0,31.67,12.61Z"/><path class="cls-9" d="M37.63,23.4a6.29,6.29,0,0,1-12.06-3.61c0-.13.09-.26.14-.39a6.11,6.11,0,0,1,2-2.87,6.27,6.27,0,0,0,10.15,5.9A8,8,0,0,1,37.63,23.4Z"/><path class="cls-10" d="M29.89,16.36c-.91,0-1.55-.36-1.64-.92s.67-1.32,1.82-1.5a2.62,2.62,0,0,1,.56,0c.9,0,1.54.36,1.63.91s-.67,1.33-1.81,1.51A5.23,5.23,0,0,1,29.89,16.36Z"/><path class="cls-11" d="M30.63,14.24c.69,0,1.23.24,1.29.62s-.61,1-1.53,1.11a2.18,2.18,0,0,1-.51,0c-.69,0-1.23-.24-1.29-.62s.61-1,1.53-1.11h.51m0-.7h0a4.21,4.21,0,0,0-.62.05,3.43,3.43,0,0,0-1.43.56,1.39,1.39,0,0,0-.67,1.35c.11.73.89,1.21,2,1.21a4.44,4.44,0,0,0,.62-.05A3.64,3.64,0,0,0,32,16.1a1.46,1.46,0,0,0,.67-1.35c-.12-.73-.9-1.21-2-1.21Z"/><ellipse class="cls-12" cx="34.66" cy="18.24" rx="1.69" ry="2.6" transform="translate(6.36 45.33) rotate(-71.5)"/><path class="cls-15" d="M36.78,45.23a8,8,0,1,1,0-16.07,8.25,8.25,0,0,1,2.55.41,8,8,0,0,1-2.55,15.66Z"/><path class="cls-8" d="M36.78,29.92a7.28,7.28,0,0,1,7.27,7.29,7.42,7.42,0,0,1-.37,2.29,7.3,7.3,0,0,1-6.9,5,7.28,7.28,0,1,1,0-14.55m0-1.53h0a8.81,8.81,0,1,0,2.79.46A8.84,8.84,0,0,0,36.78,28.42Z"/><path class="cls-9" d="M42.74,39.19a6.29,6.29,0,0,1-11.92-4,6.11,6.11,0,0,1,2-2.88A6.27,6.27,0,0,0,43,38.22,8.16,8.16,0,0,1,42.74,39.19Z"/><path class="cls-10" d="M35,32.14c-.9,0-1.54-.36-1.63-.91a1,1,0,0,1,.53-1,3.09,3.09,0,0,1,1.28-.5,5.42,5.42,0,0,1,.57,0c.9,0,1.54.35,1.63.91s-.67,1.32-1.81,1.51A3.62,3.62,0,0,1,35,32.14Z"/><path class="cls-11" d="M35.74,30c.69,0,1.23.24,1.29.62s-.61,1-1.53,1.11H35c-.69,0-1.23-.24-1.29-.62s.61-1,1.53-1.11a4.34,4.34,0,0,1,.51,0m0-.69a3.18,3.18,0,0,0-.62.05c-1.36.22-2.25,1-2.11,1.9s.9,1.21,2,1.21a4.44,4.44,0,0,0,.62,0c1.36-.22,2.25-1,2.1-1.91-.11-.73-.89-1.2-2-1.2Z"/><ellipse class="cls-12" cx="39.78" cy="34.05" rx="1.69" ry="2.6" transform="matrix(0.32, -0.95, 0.95, 0.32, -5.13, 60.96)"/><path class="cls-16" d="M27.56,63.86a8,8,0,1,1-.81-16h.83a8,8,0,0,1,.81,16Z"/><path class="cls-8" d="M27.58,48.55a7.27,7.27,0,0,1,.73,14.5,4.69,4.69,0,0,1-.75,0,7.27,7.27,0,0,1-.73-14.5h.75m0-1.53h-.9a8.8,8.8,0,0,0,.88,17.55,5.43,5.43,0,0,0,.9,0A8.8,8.8,0,0,0,27.58,47Z"/><path class="cls-9" d="M33.82,55.18A6.29,6.29,0,1,1,22,53a6.27,6.27,0,0,0,11.68,1.2A6.43,6.43,0,0,1,33.82,55.18Z"/><path class="cls-10" d="M22.86,52.2a1,1,0,0,1-.87-.4c-.37-.57.07-1.49,1-2.13a2.93,2.93,0,0,1,1.49-.51,1,1,0,0,1,.87.4c.37.57-.07,1.48-1,2.12A2.88,2.88,0,0,1,22.86,52.2Z"/><path class="cls-11" d="M24.52,49.51a.69.69,0,0,1,.58.24c.26.39-.16,1.13-.94,1.64a2.59,2.59,0,0,1-1.3.46.66.66,0,0,1-.58-.24c-.26-.4.16-1.13.94-1.65a2.42,2.42,0,0,1,1.3-.45m0-.7h0a3.22,3.22,0,0,0-1.68.57c-1.16.76-1.63,1.86-1.14,2.61a1.31,1.31,0,0,0,1.16.55A3.08,3.08,0,0,0,24.54,52c1.16-.76,1.63-1.85,1.14-2.6a1.34,1.34,0,0,0-1.16-.56Z"/><ellipse class="cls-12" cx="28.78" cy="51.5" rx="2.59" ry="1.68" transform="translate(-5.03 3.15) rotate(-5.77)"/><path class="cls-17" d="M38.37,77.19a8,8,0,1,1-.81-16h.82a8,8,0,0,1,.81,16C38.91,77.17,38.64,77.19,38.37,77.19Z"/><path class="cls-8" d="M38.38,61.88a7.27,7.27,0,0,1,.73,14.51h-.75a7.27,7.27,0,0,1-.72-14.5h.74m0-1.52h-.9A8.83,8.83,0,1,0,38.36,78h.91a8.8,8.8,0,0,0-.89-17.55Z"/><path class="cls-9" d="M44.62,68.52a6.28,6.28,0,1,1-12.5,1.27,6.06,6.06,0,0,1,.64-3.45,6.27,6.27,0,0,0,11.68,1.2A8.05,8.05,0,0,1,44.62,68.52Z"/><path class="cls-10" d="M33.66,65.53a1,1,0,0,1-.86-.4c-.38-.57.06-1.49,1-2.12a2.82,2.82,0,0,1,1.49-.52,1,1,0,0,1,.87.4c.38.57-.07,1.49-1,2.12A2.88,2.88,0,0,1,33.66,65.53Z"/><path class="cls-11" d="M35.32,62.84a.69.69,0,0,1,.58.24c.26.4-.16,1.13-.94,1.64a2.52,2.52,0,0,1-1.29.46.66.66,0,0,1-.58-.24c-.26-.4.16-1.13.93-1.64a2.52,2.52,0,0,1,1.3-.46m0-.7h0a3.22,3.22,0,0,0-1.68.57,3.19,3.19,0,0,0-1.08,1.11,1.38,1.38,0,0,0-.05,1.5,1.3,1.3,0,0,0,1.16.56,3.2,3.2,0,0,0,1.68-.58c1.15-.76,1.63-1.85,1.13-2.6A1.34,1.34,0,0,0,35.32,62.14Z"/><ellipse class="cls-12" cx="39.8" cy="65.04" rx="2.6" ry="1.69" transform="translate(-6.4 4.38) rotate(-5.83)"/><path class="cls-18" d="M46.14,59a8,8,0,1,1,0-16.07,8.25,8.25,0,0,1,2.55.41A8,8,0,0,1,46.14,59Z"/><path class="cls-8" d="M46.14,43.66a7.27,7.27,0,0,1,0,14.54,7.5,7.5,0,0,1-2.31-.37,7.27,7.27,0,0,1,2.31-14.17m0-1.53h0a8.81,8.81,0,1,0,2.79.46A8.81,8.81,0,0,0,46.14,42.13Z"/><path class="cls-9" d="M52.09,52.92a6.28,6.28,0,1,1-9.91-6.86A6.27,6.27,0,0,0,52.33,52,7.32,7.32,0,0,1,52.09,52.92Z"/><path class="cls-10" d="M44.35,45.88c-.9,0-1.55-.36-1.63-.91a1,1,0,0,1,.53-1,3.09,3.09,0,0,1,1.28-.5,3.55,3.55,0,0,1,.57,0c.9,0,1.54.36,1.63.92s-.67,1.32-1.82,1.5A2.69,2.69,0,0,1,44.35,45.88Z"/><path class="cls-11" d="M45.09,43.76c.7,0,1.24.24,1.3.62s-.61,1-1.53,1.11h-.51c-.69,0-1.23-.24-1.29-.62s.61-1,1.53-1.11h.5m0-.69a3.11,3.11,0,0,0-.61,0c-1.36.21-2.25,1-2.11,1.9s.9,1.21,2,1.21H45c1.36-.22,2.25-1,2.1-1.91C47,43.54,46.2,43.07,45.09,43.07Z"/><ellipse class="cls-12" cx="49.13" cy="47.78" rx="1.69" ry="2.6" transform="translate(-11.77 79.21) rotate(-71.5)"/><path class="cls-19" d="M56.13,74.15A8,8,0,0,1,52.45,59a7.93,7.93,0,0,1,3.67-.87,8.25,8.25,0,0,1,2.55.41,8,8,0,0,1-2.54,15.66Z"/><path class="cls-8" d="M56.12,58.84a7.28,7.28,0,1,1,0,14.55A7.51,7.51,0,0,1,53.82,73a7.27,7.27,0,0,1,2.3-14.17m0-1.53h0a8.8,8.8,0,1,0,2.8.46A8.93,8.93,0,0,0,56.12,57.3Z"/><path class="cls-9" d="M62.08,68.11a6.29,6.29,0,0,1-11.92-4,6.11,6.11,0,0,1,2-2.88,6.27,6.27,0,0,0,10.15,5.9A5.58,5.58,0,0,1,62.08,68.11Z"/><path class="cls-10" d="M54.34,61.06c-.91,0-1.55-.36-1.64-.91s.67-1.33,1.82-1.51h.56c.91,0,1.55.36,1.64.92S56,60.83,54.9,61Z"/><path class="cls-11" d="M55.08,58.94c.69,0,1.23.24,1.29.62s-.61,1-1.53,1.11h-.5c-.69,0-1.23-.24-1.3-.62s.61-1,1.53-1.11h.51m0-.69a2.91,2.91,0,0,0-2,.56,1.38,1.38,0,0,0-.67,1.34c.12.74.89,1.21,2,1.21a3.11,3.11,0,0,0,.61,0,3.64,3.64,0,0,0,1.44-.56,1.43,1.43,0,0,0,.67-1.35C57,58.72,56.19,58.25,55.08,58.25Z"/><ellipse class="cls-12" cx="59.11" cy="62.95" rx="1.69" ry="2.6" transform="translate(-19.34 99.03) rotate(-71.5)"/><path class="cls-20" d="M20.42,48.31a8,8,0,1,1,0-16.07,8.25,8.25,0,0,1,2.55.41,8,8,0,0,1-2.55,15.66Z"/><path class="cls-8" d="M20.42,33a7.28,7.28,0,0,1,0,14.55,7.28,7.28,0,1,1,0-14.55m0-1.53h0a8.81,8.81,0,1,0,2.79.46A8.8,8.8,0,0,0,20.42,31.47Z"/><path class="cls-9" d="M26.37,42.27a6.29,6.29,0,1,1-9.91-6.87,6.27,6.27,0,0,0,10.15,5.9A8.08,8.08,0,0,1,26.37,42.27Z"/><path class="cls-10" d="M18.63,35.22c-.9,0-1.55-.36-1.63-.91s.67-1.33,1.81-1.51h.56c.91,0,1.55.36,1.64.92a1.06,1.06,0,0,1-.53,1,3.19,3.19,0,0,1-1.29.5Z"/><path class="cls-11" d="M19.37,33.1c.7,0,1.24.24,1.3.62s-.61,1-1.53,1.11a4.34,4.34,0,0,1-.51,0c-.69,0-1.23-.24-1.29-.62s.61-1,1.53-1.11h.5m0-.69a3.18,3.18,0,0,0-.62.05,3.22,3.22,0,0,0-1.44.56,1.38,1.38,0,0,0-.67,1.34c.12.74.9,1.21,2,1.21h.62A3.38,3.38,0,0,0,20.68,35a1.43,1.43,0,0,0,.67-1.35c-.11-.73-.89-1.2-2-1.2Z"/><ellipse class="cls-12" cx="23.41" cy="37.12" rx="1.69" ry="2.6" transform="translate(-19.22 47.54) rotate(-71.5)"/><path class="cls-21" d="M53.58,111.07c-1.52,0-3-.06-4.54-.17-14.26-1.1-26.82-7.3-37.32-18.43A84,84,0,0,1,1.39,78.84a1.21,1.21,0,0,1,.38-1.66l.5-.3a36,36,0,0,1,6-2.63A51.69,51.69,0,0,1,25,71.51c13,0,33.25,4.73,56.42,27.27.69.67,1.39,1.36,2.09,2.07l.91.93a1.26,1.26,0,0,1,.33,1,1.25,1.25,0,0,1-.61.88A68.39,68.39,0,0,1,53.58,111.07Z"/><path class="cls-2" d="M25,72.72c14,0,33.45,5.4,55.58,26.93l2.07,2,.9.92a67.71,67.71,0,0,1-30,7.24,39.47,39.47,0,0,1-4.45-.17c-11.64-.89-24.69-5.51-36.52-18A82.07,82.07,0,0,1,2.42,78.2s.15-.1.46-.27A34.16,34.16,0,0,1,8.62,75.4,49.82,49.82,0,0,1,25,72.72m0-2.42h0A52.26,52.26,0,0,0,7.82,73.11a36.15,36.15,0,0,0-6.14,2.71c-.38.22-.56.34-.56.34a2.43,2.43,0,0,0-.76,3.31A86.52,86.52,0,0,0,10.84,93.31C21.56,104.66,34.37,111,49,112.11c1.52.11,3.08.17,4.63.17a69.69,69.69,0,0,0,31.14-7.54,2.42,2.42,0,0,0,.93-3.29,2.38,2.38,0,0,0-.37-.51l-.93-1c-.69-.7-1.4-1.4-2.1-2.08C58.8,75.09,38.16,70.3,25,70.3Z"/><path class="cls-3" d="M75.09,94.6c-6-4-17.59-11-30.61-15.19-18.85-6.06-35,2.25-35,2.25,1,6.48,6.79,13,11.36,17.33a63.49,63.49,0,0,1-8.19-7.35A82.48,82.48,0,0,1,2.42,78.2s.15-.1.46-.27A34.16,34.16,0,0,1,8.62,75.4C19.66,71.56,44.5,67.89,75.09,94.6Z"/><path class="cls-2" d="M84,105.27c-5.49-1.29-10.9-2.66-16.33-4.1s-10.81-3-16.18-4.56-10.71-3.3-16-5.19A123.55,123.55,0,0,1,20,84.94a126.05,126.05,0,0,0,15.86,5.29c5.37,1.48,10.79,2.78,16.24,4s10.9,2.3,16.38,3.32,11,2,16.45,2.85h0a2.53,2.53,0,0,1-.77,5Z"/><path class="cls-2" d="M64.1,99.09a57.53,57.53,0,0,1-5.87-4.67A50.82,50.82,0,0,1,53,89.07a32.52,32.52,0,0,1-4.15-6.17,19.45,19.45,0,0,1-2.11-7.05,19.6,19.6,0,0,0,2.63,6.76,32.36,32.36,0,0,0,4.53,5.65A48.62,48.62,0,0,0,59.39,93a56.36,56.36,0,0,0,6,4h0a1.21,1.21,0,0,1-1.21,2.1H64.1Z"/><path class="cls-2" d="M52.2,96.89a37.69,37.69,0,0,0-6.55.13,40.32,40.32,0,0,0-6.54,1.23,33.31,33.31,0,0,0-6.26,2.37,32.44,32.44,0,0,0-5.69,3.62,32.43,32.43,0,0,1,5.4-4.15,33.5,33.5,0,0,1,6.17-3,43.48,43.48,0,0,1,6.65-1.88,39.14,39.14,0,0,1,7-.75,1.22,1.22,0,0,1,0,2.43Z"/><path class="cls-2" d="M21.07,71.83c-.82,7.32,12,17.91,12,17.91l-3-.89C22.3,81.31,19.81,77.2,21.07,71.83Z"/><path class="cls-2" d="M73.59,101.28a28.53,28.53,0,0,0-6.46.38,31.17,31.17,0,0,0-6.37,1.76c-1,.38-2,.9-3,1.38a30,30,0,0,0-7.88,6.2,30.34,30.34,0,0,1,4.68-4.93,27.06,27.06,0,0,1,2.74-2,33.41,33.41,0,0,1,9.48-4.14,30.56,30.56,0,0,1,7-1,1.21,1.21,0,0,1,.06,2.42h-.19Z"/><path class="cls-22" d="M86.12,117.74a29,29,0,0,1-4.93-.39c-.69-.13-1.43-.27-2.16-.47h-.1C71.84,115,67.05,110,65.75,103.22a10.8,10.8,0,0,1-.19-1.27,16.75,16.75,0,0,1-.12-3.32,10.63,10.63,0,0,1-.41-5.1c.72-4.31,4.16-8,9.43-10a28.2,28.2,0,0,1,10.29-1.82,34.35,34.35,0,0,1,5.81.49,33.73,33.73,0,0,1,7.86,2.29c7.49,3.21,12.34,8.69,12.69,14.34a10.91,10.91,0,0,1,.53,5.46,6.25,6.25,0,0,1-.17.72,2.24,2.24,0,0,1-.16.52c-1.47,4.31-6.76,8.23-14.15,10.49a38,38,0,0,1-11,1.7Z"/><path class="cls-23" d="M84.75,82.9a34.19,34.19,0,0,1,5.62.47A32.36,32.36,0,0,1,98,85.58c7,3,11.75,8.18,12,13.5a9.8,9.8,0,0,1,.54,5,2.35,2.35,0,0,1-.13.57c0,.19-.1.32-.15.48-1.41,4.13-6.84,7.76-13.39,9.76a37,37,0,0,1-10.7,1.65,27.69,27.69,0,0,1-4.73-.38,17.45,17.45,0,0,1-2-.44h0c-7.55-2-11.36-7.22-12.41-12.74a11.82,11.82,0,0,1-.18-1.17,17,17,0,0,1-.1-3.35,9.75,9.75,0,0,1-.44-4.76c.68-4,4-7.26,8.7-9.08a27,27,0,0,1,9.87-1.74m0-2.34A29.49,29.49,0,0,0,74,82.47c-5.65,2.18-9.35,6.14-10.14,10.86a11.71,11.71,0,0,0,.39,5.45,18.41,18.41,0,0,0,.13,3.32,11,11,0,0,0,.21,1.38c1.37,7.2,6.46,12.48,14,14.48h.15c.79.22,1.58.37,2.26.49a31.45,31.45,0,0,0,5.14.42,39,39,0,0,0,11.39-1.76c7.74-2.36,13.32-6.56,14.91-11.24.07-.2.13-.4.19-.61a7.68,7.68,0,0,0,.19-.83,12,12,0,0,0-.54-5.86c-.46-6-5.55-11.82-13.38-15.18a36.7,36.7,0,0,0-14.13-2.87Z"/><path class="cls-23" d="M92.68,111.2c9.85,2.47,15.14-2.57,17.53-6a8.73,8.73,0,0,0,.28-1,9.8,9.8,0,0,0-.54-5c-.24-5.32-5-10.49-12-13.5C92.79,90.51,79.24,107.83,92.68,111.2Z"/><path class="cls-24" d="M79.31,115.74a17.62,17.62,0,0,1-9.38-10.39l-3.21-3.52A11.82,11.82,0,0,0,66.9,103C68,108.52,71.76,113.78,79.31,115.74Z"/><path class="cls-23" d="M66.9,103c3.1,4.4,10.1,10.36,23.66,7.91,15.68-2.83-4.24-18.94-15.68-26.27-4.72,1.82-8,5-8.7,9.08a9.75,9.75,0,0,0,.44,4.76A16.73,16.73,0,0,0,66.9,103Z"/><path class="cls-24" d="M85.66,111.4A31.27,31.27,0,0,0,98,111.12h0c6.39-1.49,11-5.15,11.86-10.06.8-4.74-2.16-9.55-7.35-13A31.33,31.33,0,0,0,90.38,83.4C78.32,81.4,67.49,86,66.19,93.75S73.6,109.38,85.66,111.4Z"/><path class="cls-25" d="M73.3,86.82C73.7,88,75,89.31,78.46,90l1.07.23a27.94,27.94,0,0,1,4.36,1.38c.79.33,1.53.7,2.26,1.09.6-2.88,4.22-3.76,4.22-3.76a7.68,7.68,0,0,0-1,5.65c1.59,1,3.25,2.11,5.21,3.27a7.75,7.75,0,0,0,1.74.77c5.21,1.7,9.08-3.2,3.35-9.4A13.08,13.08,0,0,0,94.53,86c-6.68-2.48-16-1.69-19.75-.1a3.93,3.93,0,0,0-1.38.81A.52.52,0,0,0,73.3,86.82Z"/><path class="cls-26" d="M73.3,86.82C73.7,88,75,89.31,78.46,90l1.07.23a27.94,27.94,0,0,1,4.36,1.38,27,27,0,0,0-6.55-2.72c-2.41-.5-4.5-1.84,1.54-3.15,4.35-.93,11.79-.17,15.65.29-6.68-2.48-16-1.69-19.75-.1a3.93,3.93,0,0,0-1.38.81A.39.39,0,0,0,73.3,86.82Z"/><path class="cls-25" d="M73.49,103.1a14.56,14.56,0,0,0,2.85,2.08h0c10.26,5.78,24.39-2,24.39-2l-.43-1.44s-.93.73-3.63.31c-1.2-.18-4.71-2.2-8.73-4.51-2.2-1.27-4.55-2.62-6.75-3.82l-1-.55a13,13,0,0,0-3.77,2.66c-.24.22-.45.45-.64.64-.46.48-.73.81-.73.81-.39-2.84,2.41-4.81,3-5.2-.79-.39-1.51-.73-2.19-1h0a14.49,14.49,0,0,0-1.78-.63C68.62,89,63.25,93.66,73.49,103.1Zm16.68,1.83A4.42,4.42,0,0,1,91,101l.6-1a7.24,7.24,0,0,1,.41,1c.07.29.22.51.35.87a.75.75,0,0,1,0,.55Z"/><path class="cls-26" d="M75.42,96.75c.12-.06.24-.15.38-.21a9.78,9.78,0,0,1,5.57-.81c2.7.28,8.68,4.69,9,5L88,97.61c-2.2-1.27-4.55-2.62-6.75-3.82a3.35,3.35,0,0,0-1,0,9.78,9.78,0,0,0-3.74,2.11C75.91,96.32,75.52,96.67,75.42,96.75Z"/><path class="cls-26" d="M73.49,103.1a14.56,14.56,0,0,0,2.85,2.08c-6.21-4.68-8.15-11.87-6.75-13.33,1.67-1.73,6.62-.1,6.62-.1l-.34-.61h0a14.49,14.49,0,0,0-1.78-.63C68.62,89,63.25,93.66,73.49,103.1Z"/><path class="cls-23" d="M111,98.52a15.44,15.44,0,0,1-18.07,3.9,18.47,18.47,0,0,1-2.88-1.7l-1.35-1-1.21-1a51,51,0,0,0-5-3.56,37.48,37.48,0,0,0-5.33-2.87,20.41,20.41,0,0,0-5.77-1.61,11.59,11.59,0,0,0-3,0,9,9,0,0,0-2.9,1A7.79,7.79,0,0,1,68.21,90a11.61,11.61,0,0,1,3.21-.6,18.09,18.09,0,0,1,6.44,1,36.68,36.68,0,0,1,11.21,6.29l1.24,1,1.18.88A19.91,19.91,0,0,0,94,100.21a15.55,15.55,0,0,0,5.54,1.59A18.93,18.93,0,0,0,111,98.52Z"/><path class="cls-23" d="M82.62,92.66a7.77,7.77,0,0,0-6.54,2.86,7.5,7.5,0,0,0-1.14,2A7.17,7.17,0,0,1,76.53,96a6,6,0,0,1,1.91-.92,7.51,7.51,0,0,1,2-.3,7.36,7.36,0,0,1,1.92.23Z"/><path class="cls-23" d="M94.29,100.79c-.72.23-1,.09-1.56.43a7.24,7.24,0,0,0-1.35,1.18,5.75,5.75,0,0,0-1.42,3A5.17,5.17,0,0,1,93.52,103a4.87,4.87,0,0,1,1.26-.2Z"/><path class="cls-23" d="M90.17,98.58a4,4,0,0,1-1.93-1.12,4.41,4.41,0,0,1-1.19-2,4,4,0,0,1,1.4-4.19,15.11,15.11,0,0,0-.31,2,4.82,4.82,0,0,0,.17,1.81A10.93,10.93,0,0,0,90.17,98.58Z"/><path class="cls-26" d="M89.34,94.54c1.59,1,3.25,2.11,5.21,3.27a7.75,7.75,0,0,0,1.74.77,20,20,0,0,1-5.52-3.94c-1.61-1.85-.4-5.75-.4-5.75A7.68,7.68,0,0,0,89.34,94.54Z"/></g></g></svg>