<svg xmlns="http://www.w3.org/2000/svg" viewBox="0 0 158.67 57.81"><defs><style>.cls-1{isolation:isolate;}.cls-2{fill:#fffa75;}.cls-3{fill:#e37d17;}.cls-4{fill:#ffd7ba;mix-blend-mode:multiply;}.cls-5{mix-blend-mode:overlay;}.cls-6{fill:#fff;}</style></defs><g class="cls-1"><g id="Layer_2" data-name="Layer 2"><g id="Layer_1-2" data-name="Layer 1"><path class="cls-2" d="M148.85,51.29a3.12,3.12,0,0,1-1.46-.36L140,47.07a1.51,1.51,0,0,0-.74-.19,1.56,1.56,0,0,0-.74.18l-7.36,3.87a3.12,3.12,0,0,1-1.46.36,3.18,3.18,0,0,1-2.41-1.12,3.13,3.13,0,0,1-.69-2.55l1.41-8.18a1.6,1.6,0,0,0-.46-1.42l-5.47-5.34-.47-.45a3.14,3.14,0,0,1,1.73-5.36l8.22-1.19a1.61,1.61,0,0,0,1.2-.88l3.68-7.44a3.13,3.13,0,0,1,5.63,0l3.68,7.44a1.61,1.61,0,0,0,1.2.88l8.22,1.19a3.13,3.13,0,0,1,1.73,5.35L151,38a1.6,1.6,0,0,0-.46,1.42l1.4,8.18a3.09,3.09,0,0,1-.68,2.55A3.18,3.18,0,0,1,148.85,51.29Z"/><path class="cls-3" d="M139.29,16.37a2.36,2.36,0,0,1,2.13,1.33l2.23,4.52,1.44,2.92a2.39,2.39,0,0,0,1.79,1.3l8.22,1.19a2.37,2.37,0,0,1,1.31,4l-5.95,5.8a2.36,2.36,0,0,0-.68,2.1l1.41,8.18a2.38,2.38,0,0,1-2.34,2.77,2.25,2.25,0,0,1-1.1-.28l-7.35-3.86a2.4,2.4,0,0,0-2.21,0l-7.35,3.86a2.25,2.25,0,0,1-1.1.28,2.38,2.38,0,0,1-2.34-2.77l1.41-8.18a2.36,2.36,0,0,0-.68-2.1l-5.47-5.34-.48-.46a2.37,2.37,0,0,1,1.31-4l8.22-1.19a2.39,2.39,0,0,0,1.79-1.3l3.67-7.44a2.36,2.36,0,0,1,2.12-1.33m0-1.53a3.86,3.86,0,0,0-3.5,2.18l-3.68,7.44a.82.82,0,0,1-.63.46l-8.21,1.19a3.91,3.91,0,0,0-2.16,6.67l.48.46,5.47,5.33a.84.84,0,0,1,.23.74l-1.4,8.18a3.89,3.89,0,0,0,.85,3.17,3.94,3.94,0,0,0,3,1.4,3.89,3.89,0,0,0,1.82-.45l7.35-3.86a.75.75,0,0,1,.38-.1.79.79,0,0,1,.38.09L147,51.61a3.89,3.89,0,0,0,1.82.45,3.94,3.94,0,0,0,3-1.4,3.88,3.88,0,0,0,.85-3.16l-1.41-8.2a.84.84,0,0,1,.25-.73l5.94-5.8a3.9,3.9,0,0,0-2.16-6.66l-8.22-1.19a.82.82,0,0,1-.62-.46L145,21.54,142.8,17a3.87,3.87,0,0,0-3.51-2.18Z"/><path class="cls-4" d="M150.46,37.47a2.36,2.36,0,0,0-.68,2.1l1.41,8.18a2.38,2.38,0,0,1-3.44,2.5l-7.35-3.87a2.4,2.4,0,0,0-2.21,0l-7.35,3.87a2.38,2.38,0,0,1-3.44-2.5l1.41-8.18a2.36,2.36,0,0,0-.68-2.1l-5.47-5.34.61.16c14.47,3.9,19.23-2.6,20.38-10.07l1.44,2.92a2.39,2.39,0,0,0,1.79,1.3l8.22,1.19a2.37,2.37,0,0,1,1.31,4Z"/><g class="cls-5"><path class="cls-6" d="M139.29,18a.66.66,0,0,1,.63.4L142.16,23l1.44,2.92a4.07,4.07,0,0,0,3,2.21l8.22,1.19a.69.69,0,0,1,.57.48.67.67,0,0,1-.19.72l-6,5.8a4.05,4.05,0,0,0-1.15,3.57L149.55,48a.68.68,0,0,1-.15.56.73.73,0,0,1-.55.27.68.68,0,0,1-.33-.09l-7.34-3.86a4.12,4.12,0,0,0-1.89-.46,4,4,0,0,0-1.87.46l-7.35,3.86a.68.68,0,0,1-.33.09.76.76,0,0,1-.55-.26A.7.7,0,0,1,129,48l1.41-8.2a4,4,0,0,0-1.16-3.56l-5.48-5.35-.47-.45a.7.7,0,0,1,.39-1.2L132,28.09a4.07,4.07,0,0,0,3-2.21l3.68-7.45a.66.66,0,0,1,.62-.39m0-1.67a2.36,2.36,0,0,0-2.12,1.33l-3.67,7.44a2.39,2.39,0,0,1-1.79,1.3l-8.22,1.19a2.37,2.37,0,0,0-1.31,4l.48.46,5.47,5.34a2.36,2.36,0,0,1,.68,2.1l-1.41,8.18a2.38,2.38,0,0,0,2.34,2.77,2.25,2.25,0,0,0,1.1-.28l7.35-3.86a2.4,2.4,0,0,1,2.21,0l7.35,3.86a2.25,2.25,0,0,0,1.1.28,2.38,2.38,0,0,0,2.34-2.77l-1.41-8.18a2.36,2.36,0,0,1,.68-2.1l5.95-5.8a2.37,2.37,0,0,0-1.31-4l-8.22-1.19a2.39,2.39,0,0,1-1.79-1.3l-1.44-2.92-2.23-4.52a2.36,2.36,0,0,0-2.13-1.33Z"/></g><g class="cls-5"><ellipse class="cls-6" cx="136.42" cy="23.69" rx="2.95" ry="1.47" transform="translate(73.53 147.05) rotate(-72.84)"/><ellipse class="cls-6" cx="138.71" cy="24.87" rx="1.37" ry="0.73" transform="translate(74.03 150.07) rotate(-72.84)"/></g><path class="cls-2" d="M28.93,51.29a3.19,3.19,0,0,1-1.47-.36l-7.35-3.86a1.48,1.48,0,0,0-.74-.19,1.59,1.59,0,0,0-.74.18l-7.35,3.87a3.15,3.15,0,0,1-3.87-.76,3.09,3.09,0,0,1-.69-2.55l1.41-8.18A1.63,1.63,0,0,0,7.67,38L2.19,32.68l-.46-.45a3.14,3.14,0,0,1,1.73-5.36l8.22-1.19a1.61,1.61,0,0,0,1.2-.88l3.68-7.44a3.12,3.12,0,0,1,5.62,0l3.68,7.44a1.61,1.61,0,0,0,1.21.88l8.21,1.19A3.13,3.13,0,0,1,37,32.22l-6,5.8a1.65,1.65,0,0,0-.46,1.42L32,47.62a3.1,3.1,0,0,1-.69,2.55A3.15,3.15,0,0,1,28.93,51.29Z"/><path class="cls-3" d="M19.37,16.37a2.33,2.33,0,0,1,2.12,1.33l2.24,4.52,1.44,2.92A2.4,2.4,0,0,0,27,26.44l8.22,1.19a2.37,2.37,0,0,1,1.31,4l-5.94,5.8a2.39,2.39,0,0,0-.69,2.1l1.41,8.18a2.37,2.37,0,0,1-2.33,2.77,2.29,2.29,0,0,1-1.11-.28l-7.35-3.86a2.38,2.38,0,0,0-2.2,0l-7.35,3.86a2.25,2.25,0,0,1-1.1.28,2.38,2.38,0,0,1-2.34-2.77l1.41-8.18a2.39,2.39,0,0,0-.68-2.1L2.73,32.13l-.47-.46a2.37,2.37,0,0,1,1.31-4l8.22-1.19a2.38,2.38,0,0,0,1.78-1.3l3.68-7.44a2.35,2.35,0,0,1,2.12-1.33m0-1.53A3.86,3.86,0,0,0,15.87,17l-3.68,7.44a.83.83,0,0,1-.63.46L3.35,26.11a3.9,3.9,0,0,0-2.16,6.67l.47.46,5.47,5.33a.82.82,0,0,1,.24.74L6,47.49a3.91,3.91,0,0,0,5.68,4.12L19,47.75a.75.75,0,0,1,.38-.1.85.85,0,0,1,.38.09l7.36,3.87a3.86,3.86,0,0,0,1.82.45,3.91,3.91,0,0,0,3.85-4.56l-1.41-8.2a.86.86,0,0,1,.24-.73l6-5.8a3.9,3.9,0,0,0-2.16-6.66l-8.23-1.19a.84.84,0,0,1-.62-.46l-1.44-2.92L22.87,17a3.86,3.86,0,0,0-3.5-2.18Z"/><path class="cls-4" d="M30.54,37.47a2.39,2.39,0,0,0-.69,2.1l1.41,8.18a2.37,2.37,0,0,1-3.44,2.5l-7.35-3.87a2.38,2.38,0,0,0-2.2,0l-7.35,3.87a2.37,2.37,0,0,1-3.44-2.5l1.41-8.18a2.39,2.39,0,0,0-.68-2.1L2.73,32.13l.62.16c14.47,3.9,19.23-2.6,20.38-10.07l1.44,2.92A2.4,2.4,0,0,0,27,26.44l8.22,1.19a2.37,2.37,0,0,1,1.31,4Z"/><g class="cls-5"><path class="cls-6" d="M19.37,18a.67.67,0,0,1,.63.4L22.24,23l1.44,2.92a4,4,0,0,0,3,2.21l8.22,1.19a.68.68,0,0,1,.57.48.66.66,0,0,1-.18.72l-5.95,5.8a4.09,4.09,0,0,0-1.16,3.57L29.62,48a.62.62,0,0,1-.15.56.71.71,0,0,1-.54.27.68.68,0,0,1-.33-.09l-7.35-3.86a4.05,4.05,0,0,0-3.75,0l-7.36,3.86a.65.65,0,0,1-.32.09.72.72,0,0,1-.55-.27A.61.61,0,0,1,9.12,48l1.41-8.2a4,4,0,0,0-1.16-3.56L3.89,30.93l-.47-.45a.68.68,0,0,1-.18-.72.68.68,0,0,1,.57-.48L12,28.09a4,4,0,0,0,3-2.21l3.68-7.45a.68.68,0,0,1,.63-.39m0-1.67a2.35,2.35,0,0,0-2.12,1.33l-3.68,7.44a2.38,2.38,0,0,1-1.78,1.3L3.57,27.63a2.37,2.37,0,0,0-1.31,4l.47.46,5.48,5.34a2.39,2.39,0,0,1,.68,2.1L7.48,47.75a2.38,2.38,0,0,0,2.34,2.77,2.25,2.25,0,0,0,1.1-.28l7.35-3.86a2.38,2.38,0,0,1,2.2,0l7.35,3.86a2.29,2.29,0,0,0,1.11.28,2.37,2.37,0,0,0,2.33-2.77l-1.41-8.18a2.39,2.39,0,0,1,.69-2.1l5.94-5.8a2.37,2.37,0,0,0-1.31-4L27,26.44a2.4,2.4,0,0,1-1.78-1.3l-1.44-2.92L21.49,17.7a2.33,2.33,0,0,0-2.12-1.33Z"/></g><g class="cls-5"><ellipse class="cls-6" cx="16.49" cy="23.69" rx="2.95" ry="1.47" transform="translate(-11.01 32.46) rotate(-72.84)"/><ellipse class="cls-6" cx="18.79" cy="24.87" rx="1.37" ry="0.73" transform="matrix(0.3, -0.96, 0.96, 0.3, -10.51, 35.48)"/></g><path class="cls-2" d="M94.17,56.62a4.81,4.81,0,0,1-2.27-.57l-11.41-6a2.49,2.49,0,0,0-1.16-.29,2.38,2.38,0,0,0-1.14.29l-11.43,6a4.78,4.78,0,0,1-2.27.57,4.89,4.89,0,0,1-3.73-1.75,4.75,4.75,0,0,1-1.07-3.95L61.88,38.2a2.54,2.54,0,0,0-.72-2.2l-8.5-8.29-.73-.7a4.88,4.88,0,0,1,2.69-8.32l12.77-1.85a2.49,2.49,0,0,0,1.86-1.36L75,3.92a4.86,4.86,0,0,1,8.73,0l5.71,11.56a2.49,2.49,0,0,0,1.87,1.36L104,18.69a4.87,4.87,0,0,1,2.7,8.31l-9.23,9a2.5,2.5,0,0,0-.72,2.2L99,50.92a4.82,4.82,0,0,1-1.07,3.95A4.9,4.9,0,0,1,94.17,56.62Z"/><path class="cls-3" d="M79.33,2.39a3.64,3.64,0,0,1,3.3,2.06l3.47,7L88.34,16a3.69,3.69,0,0,0,2.77,2l12.76,1.86a3.67,3.67,0,0,1,2,6.27l-9.24,9a3.71,3.71,0,0,0-1.06,3.26L97.8,51.12a3.69,3.69,0,0,1-3.63,4.3A3.61,3.61,0,0,1,92.46,55L81,49a3.66,3.66,0,0,0-1.71-.42,3.72,3.72,0,0,0-1.71.42L66.21,55a3.67,3.67,0,0,1-5.34-3.87l2.19-12.71A3.74,3.74,0,0,0,62,35.15l-8.51-8.3-.73-.7a3.67,3.67,0,0,1,2-6.27L67.56,18a3.71,3.71,0,0,0,2.77-2L76,4.45a3.62,3.62,0,0,1,3.29-2.06m0-2.39a6,6,0,0,0-5.44,3.39L68.18,15a1.32,1.32,0,0,1-1,.71L54.45,17.51a6.06,6.06,0,0,0-3.36,10.35l.74.71,8.5,8.29A1.33,1.33,0,0,1,60.7,38l-2.19,12.7a6.07,6.07,0,0,0,6,7.09,6,6,0,0,0,2.83-.7l11.42-6a1.26,1.26,0,0,1,.59-.15,1.31,1.31,0,0,1,.59.14l11.43,6a6,6,0,0,0,2.82.7,6.08,6.08,0,0,0,6-7.09L98,38a1.31,1.31,0,0,1,.37-1.14l9.24-9a6.06,6.06,0,0,0-3.36-10.35L91.45,15.66a1.3,1.3,0,0,1-1-.71l-2.25-4.53-3.47-7A6,6,0,0,0,79.33,0Z"/><path class="cls-4" d="M96.67,35.15a3.71,3.71,0,0,0-1.06,3.26L97.8,51.12A3.68,3.68,0,0,1,92.46,55L81,49a3.69,3.69,0,0,0-3.42,0L66.21,55a3.68,3.68,0,0,1-5.34-3.87l2.19-12.71A3.74,3.74,0,0,0,62,35.15l-8.51-8.3,1,.25c22.48,6.06,29.87-4,31.65-15.62L88.34,16a3.69,3.69,0,0,0,2.77,2l12.76,1.86a3.67,3.67,0,0,1,2,6.27Z"/><g class="cls-5"><path class="cls-6" d="M79.33,5a1,1,0,0,1,1,.61l3.47,7L86,17.15a6.29,6.29,0,0,0,4.71,3.43l12.77,1.85a1.05,1.05,0,0,1,.88.75,1,1,0,0,1-.28,1.12l-9.24,9a6.35,6.35,0,0,0-1.8,5.54l2.19,12.71a1,1,0,0,1-.23.88,1.16,1.16,0,0,1-.85.41,1.09,1.09,0,0,1-.51-.14l-11.4-6A6.36,6.36,0,0,0,79.33,46a6.28,6.28,0,0,0-2.91.73L65,52.7a1.06,1.06,0,0,1-.51.14,1.17,1.17,0,0,1-.85-.41,1.08,1.08,0,0,1-.23-.87l2.2-12.73A6.31,6.31,0,0,0,63.8,33.3L55.29,25l-.73-.7a1.09,1.09,0,0,1,.6-1.86L68,20.58a6.27,6.27,0,0,0,4.69-3.43L78.36,5.58a1,1,0,0,1,1-.6m0-2.59A3.62,3.62,0,0,0,76,4.45L70.33,16a3.71,3.71,0,0,1-2.77,2L54.79,19.88a3.67,3.67,0,0,0-2,6.27l.73.7L62,35.15a3.74,3.74,0,0,1,1.06,3.26L60.87,51.12A3.67,3.67,0,0,0,66.21,55l11.41-6a3.72,3.72,0,0,1,1.71-.42A3.66,3.66,0,0,1,81,49l11.42,6a3.61,3.61,0,0,0,1.71.43,3.69,3.69,0,0,0,3.63-4.3L95.61,38.41a3.71,3.71,0,0,1,1.06-3.26l9.24-9a3.67,3.67,0,0,0-2-6.27L91.11,18a3.69,3.69,0,0,1-2.77-2L86.1,11.48l-3.47-7a3.64,3.64,0,0,0-3.3-2.06Z"/></g><g class="cls-5"><ellipse class="cls-6" cx="74.86" cy="13.75" rx="4.58" ry="2.29" transform="translate(39.64 81.23) rotate(-72.84)"/><ellipse class="cls-6" cx="78.43" cy="15.58" rx="2.12" ry="1.13" transform="translate(40.41 85.92) rotate(-72.84)"/></g></g></g></g></svg>