<svg xmlns="http://www.w3.org/2000/svg" viewBox="0 0 130.64 137.08"><defs><style>.cls-1{fill:#fffa75;}.cls-2{fill:#e37d17;}.cls-3{fill:#ffd7ba;}.cls-4{fill:#fff;}</style></defs><g id="Layer_2" data-name="Layer 2"><g id="Layer_1-2" data-name="Layer 1"><path class="cls-1" d="M120.85,72.47a3.12,3.12,0,0,1-1.46-.36L112,68.25a1.57,1.57,0,0,0-.74-.19,1.62,1.62,0,0,0-.74.18l-7.36,3.87a3.09,3.09,0,0,1-1.46.36,3.14,3.14,0,0,1-3.1-3.67L100,60.62a1.6,1.6,0,0,0-.46-1.42l-5.47-5.34-.47-.45a3.14,3.14,0,0,1,1.73-5.36l8.22-1.19a1.61,1.61,0,0,0,1.2-.88l3.68-7.44a3.15,3.15,0,0,1,4.19-1.45,3.11,3.11,0,0,1,1.44,1.45L117.75,46a1.63,1.63,0,0,0,1.2.88l8.22,1.19a3.12,3.12,0,0,1,1.73,5.35L123,59.18a1.63,1.63,0,0,0-.46,1.42l1.4,8.18a3.06,3.06,0,0,1-.68,2.55A3.14,3.14,0,0,1,120.85,72.47Z"/><path class="cls-2" d="M111.29,37.55a2.36,2.36,0,0,1,2.13,1.33l2.23,4.52,1.44,2.92a2.39,2.39,0,0,0,1.79,1.3l8.22,1.19a2.37,2.37,0,0,1,1.31,4l-6,5.8a2.38,2.38,0,0,0-.68,2.1l1.41,8.18a2.38,2.38,0,0,1-2,2.74,2.56,2.56,0,0,1-.39,0,2.25,2.25,0,0,1-1.1-.28l-7.35-3.86a2.4,2.4,0,0,0-2.21,0l-7.35,3.86a2.2,2.2,0,0,1-1.1.28,2.38,2.38,0,0,1-2.37-2.39,2.53,2.53,0,0,1,0-.38l1.41-8.18a2.35,2.35,0,0,0-.68-2.1l-5.47-5.34-.48-.46a2.38,2.38,0,0,1,0-3.35,2.42,2.42,0,0,1,1.28-.65l8.22-1.19a2.35,2.35,0,0,0,1.79-1.3l3.67-7.44a2.37,2.37,0,0,1,2.12-1.33m0-1.53a3.86,3.86,0,0,0-3.5,2.18l-3.68,7.44a.8.8,0,0,1-.63.46l-8.21,1.19A3.92,3.92,0,0,0,92,51.73,4,4,0,0,0,93.11,54l.48.46,5.47,5.33a.82.82,0,0,1,.23.74l-1.4,8.18a3.9,3.9,0,0,0,3.85,4.57,3.83,3.83,0,0,0,1.82-.45l7.35-3.86a.86.86,0,0,1,.38-.1.79.79,0,0,1,.38.09L119,72.79a3.91,3.91,0,0,0,4.82-1,3.84,3.84,0,0,0,.85-3.16l-1.41-8.2a.86.86,0,0,1,.25-.73l5.94-5.8a3.9,3.9,0,0,0-2.16-6.66l-8.22-1.19a.82.82,0,0,1-.62-.46L117,42.72l-2.2-4.54A3.87,3.87,0,0,0,111.29,36Z"/><path class="cls-3" d="M122.46,58.65a2.38,2.38,0,0,0-.68,2.1l1.41,8.18a2.37,2.37,0,0,1-3.44,2.5l-7.35-3.87a2.4,2.4,0,0,0-2.21,0l-7.35,3.87a2.38,2.38,0,0,1-3.44-2.5l1.41-8.18a2.35,2.35,0,0,0-.68-2.1l-5.47-5.34.61.16c14.47,3.9,19.23-2.6,20.38-10.07l1.44,2.92a2.39,2.39,0,0,0,1.79,1.3l8.22,1.19a2.37,2.37,0,0,1,1.31,4Z"/><path class="cls-4" d="M111.29,39.18a.65.65,0,0,1,.63.4l2.24,4.6,1.44,2.92a4.09,4.09,0,0,0,3,2.21l8.22,1.19a.69.69,0,0,1,.57.48.65.65,0,0,1-.19.72l-6,5.8a4.08,4.08,0,0,0-1.15,3.57l1.5,8.11a.63.63,0,0,1-.15.56.69.69,0,0,1-.55.27.66.66,0,0,1-.33-.09l-7.34-3.86a4.12,4.12,0,0,0-1.89-.46,4.07,4.07,0,0,0-1.87.46l-7.35,3.86a.63.63,0,0,1-.33.09.77.77,0,0,1-.74-.83l1.41-8.2a4,4,0,0,0-1.16-3.56l-5.48-5.35-.47-.45a.7.7,0,0,1,0-1,.74.74,0,0,1,.41-.21L104,49.27a4.06,4.06,0,0,0,3-2.21l3.68-7.45a.67.67,0,0,1,.62-.39m0-1.67a2.37,2.37,0,0,0-2.12,1.33l-3.67,7.44a2.35,2.35,0,0,1-1.79,1.3L95.5,48.81a2.37,2.37,0,0,0-2,2.72,2.33,2.33,0,0,0,.64,1.28l.48.46,5.47,5.34a2.35,2.35,0,0,1,.68,2.1l-1.41,8.18a2.39,2.39,0,0,0,2,2.74l.38,0a2.2,2.2,0,0,0,1.1-.28l7.35-3.86a2.4,2.4,0,0,1,2.21,0l7.35,3.86a2.25,2.25,0,0,0,1.1.28,2.38,2.38,0,0,0,2.38-2.39,1.69,1.69,0,0,0,0-.38l-1.41-8.18a2.38,2.38,0,0,1,.68-2.1l5.95-5.8a2.37,2.37,0,0,0-1.31-4l-8.22-1.19a2.39,2.39,0,0,1-1.79-1.3l-1.44-2.92-2.23-4.52a2.36,2.36,0,0,0-2.13-1.33Z"/><ellipse class="cls-4" cx="108.42" cy="44.87" rx="2.95" ry="1.47" transform="translate(33.55 135.23) rotate(-72.84)"/><ellipse class="cls-4" cx="110.72" cy="46.05" rx="1.37" ry="0.73" transform="translate(34.05 138.26) rotate(-72.84)"/><path class="cls-1" d="M28.93,72.47a3.16,3.16,0,0,1-1.47-.36l-7.35-3.86a1.46,1.46,0,0,0-.74-.19,1.62,1.62,0,0,0-.74.18l-7.35,3.87a3.15,3.15,0,0,1-3.87-.76,3.1,3.1,0,0,1-.69-2.55l1.41-8.18a1.61,1.61,0,0,0-.46-1.44L2.19,53.86l-.46-.45A3.14,3.14,0,0,1,1.67,49a3.1,3.1,0,0,1,1.79-.92l8.22-1.19a1.61,1.61,0,0,0,1.2-.88l3.68-7.44a3.12,3.12,0,0,1,4.17-1.45,3,3,0,0,1,1.45,1.45L25.86,46a1.64,1.64,0,0,0,1.21.88l8.21,1.19A3.12,3.12,0,0,1,37,53.4l-6,5.8a1.65,1.65,0,0,0-.46,1.42L32,68.8a3.06,3.06,0,0,1-.69,2.55A3.16,3.16,0,0,1,28.93,72.47Z"/><path class="cls-2" d="M19.37,37.55a2.3,2.3,0,0,1,2.12,1.33l2.24,4.52,1.44,2.92A2.41,2.41,0,0,0,27,47.62l8.22,1.19a2.37,2.37,0,0,1,1.31,4l-5.94,5.8a2.44,2.44,0,0,0-.69,2.1l1.41,8.18a2.36,2.36,0,0,1-1.93,2.74,2.6,2.6,0,0,1-.4,0,2.29,2.29,0,0,1-1.11-.28l-7.35-3.86a2.38,2.38,0,0,0-2.2,0L11,71.38a2.2,2.2,0,0,1-1.1.28A2.38,2.38,0,0,1,7.5,69.27a2.43,2.43,0,0,1,0-.38l1.41-8.18a2.38,2.38,0,0,0-.68-2.1l-5.53-5.3-.47-.46a2.38,2.38,0,0,1,0-3.35,2.42,2.42,0,0,1,1.28-.65l8.22-1.19a2.38,2.38,0,0,0,1.78-1.3l3.68-7.44a2.37,2.37,0,0,1,2.12-1.33m0-1.53a3.87,3.87,0,0,0-3.5,2.12l-3.68,7.44a.82.82,0,0,1-.63.46L3.35,47.29A3.9,3.9,0,0,0,1.19,54l.47.46,5.47,5.33a.82.82,0,0,1,.24.74L6,68.67a3.91,3.91,0,0,0,5.68,4.12L19,68.93a.75.75,0,0,1,.38-.1.79.79,0,0,1,.38.09l7.36,3.87a3.86,3.86,0,0,0,1.82.45,3.92,3.92,0,0,0,3.91-3.92,3.47,3.47,0,0,0-.06-.64l-1.41-8.2a.89.89,0,0,1,.24-.73l6-5.8a3.9,3.9,0,0,0-2.16-6.66L27.23,46.1a.86.86,0,0,1-.62-.46l-1.44-2.92-2.3-4.54A3.85,3.85,0,0,0,19.37,36Z"/><path class="cls-3" d="M30.54,58.65a2.44,2.44,0,0,0-.69,2.1l1.41,8.18a2.36,2.36,0,0,1-1.93,2.74,2.41,2.41,0,0,1-1.51-.24l-7.35-3.87a2.38,2.38,0,0,0-2.2,0l-7.35,3.87a2.37,2.37,0,0,1-3.2-1,2.46,2.46,0,0,1-.24-1.51l1.41-8.18a2.38,2.38,0,0,0-.68-2.1L2.73,53.31l.62.16c14.47,3.9,19.23-2.6,20.38-10.07l1.44,2.92A2.41,2.41,0,0,0,27,47.62l8.22,1.19a2.37,2.37,0,0,1,1.31,4Z"/><path class="cls-4" d="M19.37,39.18a.66.66,0,0,1,.63.4l2.24,4.6,1.44,2.92a4,4,0,0,0,3,2.21L34.9,50.5a.66.66,0,0,1,.57.48.64.64,0,0,1-.18.72l-5.95,5.8a4.11,4.11,0,0,0-1.16,3.57l1.44,8.11a.61.61,0,0,1-.15.56.7.7,0,0,1-.54.27.66.66,0,0,1-.33-.09l-7.35-3.86a4.07,4.07,0,0,0-3.75,0l-7.36,3.86a.57.57,0,0,1-.32.09.72.72,0,0,1-.55-.27.63.63,0,0,1-.15-.56L10.53,61a4,4,0,0,0-1.16-3.56L3.89,52.11l-.47-.45a.71.71,0,0,1-.18-.72.69.69,0,0,1,.57-.48L12,49.27a4,4,0,0,0,3-2.21l3.68-7.45a.69.69,0,0,1,.63-.39m0-1.67a2.37,2.37,0,0,0-2.12,1.33l-3.68,7.44a2.38,2.38,0,0,1-1.78,1.3L3.57,48.81a2.37,2.37,0,0,0-1.95,2.72,2.33,2.33,0,0,0,.64,1.28l.47.46,5.48,5.34a2.38,2.38,0,0,1,.68,2.1L7.48,68.93a2.39,2.39,0,0,0,2,2.74l.38,0a2.2,2.2,0,0,0,1.1-.28l7.35-3.86a2.38,2.38,0,0,1,2.2,0l7.35,3.86a2.29,2.29,0,0,0,1.11.28,2.38,2.38,0,0,0,2.37-2.38,1.72,1.72,0,0,0,0-.39l-1.41-8.18a2.44,2.44,0,0,1,.69-2.1l5.94-5.8a2.37,2.37,0,0,0-1.31-4L27,47.62a2.41,2.41,0,0,1-1.78-1.3L23.78,43.4l-2.29-4.52a2.3,2.3,0,0,0-2.12-1.33Z"/><ellipse class="cls-4" cx="16.5" cy="44.87" rx="2.95" ry="1.47" transform="translate(-31.25 47.39) rotate(-72.84)"/><ellipse class="cls-4" cx="19.01" cy="46.08" rx="1.38" ry="0.73" transform="translate(-30.65 50.48) rotate(-72.65)"/><path class="cls-1" d="M77.85,135.91a4.87,4.87,0,0,1-2.27-.57l-11.41-6a2.46,2.46,0,0,0-1.16-.29,2.38,2.38,0,0,0-1.14.29l-11.43,6a4.75,4.75,0,0,1-2.27.57,4.93,4.93,0,0,1-3.73-1.75,4.76,4.76,0,0,1-1.07-3.95l2.19-12.72a2.52,2.52,0,0,0-.72-2.2L36.34,107l-.73-.7A4.88,4.88,0,0,1,38.3,98l12.77-1.85a2.48,2.48,0,0,0,1.86-1.36l5.75-11.56a4.86,4.86,0,0,1,8.73,0l5.71,11.56A2.49,2.49,0,0,0,75,96.13L87.68,98a4.86,4.86,0,0,1,2.7,8.31l-9.23,9a2.52,2.52,0,0,0-.72,2.2l2.25,12.72a4.8,4.8,0,0,1-1.07,3.95A4.91,4.91,0,0,1,77.85,135.91Z"/><path class="cls-2" d="M63,81.68a3.63,3.63,0,0,1,3.3,2.06l3.47,7L72,95.29a3.69,3.69,0,0,0,2.77,2l12.76,1.86a3.67,3.67,0,0,1,2,6.27l-9.24,9a3.73,3.73,0,0,0-1.06,3.26l2.23,12.73a3.69,3.69,0,0,1-3,4.25,4,4,0,0,1-.6.05,3.66,3.66,0,0,1-1.71-.42l-11.46-6a3.64,3.64,0,0,0-1.71-.42,3.79,3.79,0,0,0-1.71.42l-11.37,6a3.67,3.67,0,0,1-5-1.52,3.62,3.62,0,0,1-.38-2.35l2.19-12.71a3.74,3.74,0,0,0-1.06-3.27l-8.51-8.3-.73-.7a3.67,3.67,0,0,1,2-6.27l12.8-1.88a3.7,3.7,0,0,0,2.77-2l5.67-11.55A3.62,3.62,0,0,1,63,81.68m0-2.39a6,6,0,0,0-5.44,3.39L51.86,94.29a1.31,1.31,0,0,1-1,.71L38.13,96.8a6.06,6.06,0,0,0-3.36,10.35l.74.71,8.5,8.29a1.3,1.3,0,0,1,.37,1.14L42.19,130a6.07,6.07,0,0,0,5,7,5.89,5.89,0,0,0,1,.09,6,6,0,0,0,2.83-.7l11.42-6a1.23,1.23,0,0,1,.59-.15,1.31,1.31,0,0,1,.59.14l11.43,6A6.08,6.08,0,0,0,84,131a5.75,5.75,0,0,0-.09-1l-2.19-12.69a1.3,1.3,0,0,1,.37-1.14l9.24-9A6.06,6.06,0,0,0,87.93,96.8L75.13,95a1.3,1.3,0,0,1-1-.71l-2.25-4.53-3.47-7A6,6,0,0,0,63,79.29Z"/><path class="cls-3" d="M80.35,114.44a3.73,3.73,0,0,0-1.06,3.26l2.19,12.71a3.68,3.68,0,0,1-5.34,3.88l-11.46-6a3.69,3.69,0,0,0-3.42,0l-11.37,6a3.68,3.68,0,0,1-5-1.55,3.73,3.73,0,0,1-.37-2.32l2.19-12.71a3.74,3.74,0,0,0-1.06-3.27l-8.51-8.3,1,.25c22.48,6.06,29.87-4,31.65-15.62L72,95.29a3.69,3.69,0,0,0,2.77,2l12.76,1.86a3.67,3.67,0,0,1,2,6.27Z"/><path class="cls-4" d="M63,84.29a1,1,0,0,1,1,.61l3.47,7,2.2,4.54a6.29,6.29,0,0,0,4.71,3.43l12.77,1.85a1,1,0,0,1,.88.75,1,1,0,0,1-.28,1.12l-9.24,9a6.36,6.36,0,0,0-1.8,5.54l2.19,12.71a1,1,0,0,1-.23.88,1.16,1.16,0,0,1-.85.41,1,1,0,0,1-.51-.14l-11.4-6a6.4,6.4,0,0,0-2.91-.7,6.31,6.31,0,0,0-2.91.73l-11.42,6a1,1,0,0,1-.51.14,1.17,1.17,0,0,1-.85-.41,1.09,1.09,0,0,1-.23-.87l2.2-12.73a6.29,6.29,0,0,0-1.81-5.53L39,104.29l-.73-.7a1.09,1.09,0,0,1,.6-1.86l12.84-1.86a6.29,6.29,0,0,0,4.69-3.43L62,84.87a1,1,0,0,1,1-.6m0-2.59a3.62,3.62,0,0,0-3.36,2.06L54,95.29a3.7,3.7,0,0,1-2.77,2L38.47,99.17a3.67,3.67,0,0,0-2,6.27l.73.7,8.48,8.3a3.73,3.73,0,0,1,1.06,3.26l-2.19,12.71a3.67,3.67,0,0,0,3,4.25,3.61,3.61,0,0,0,2.37-.37l11.41-6a3.79,3.79,0,0,1,1.71-.42,3.72,3.72,0,0,1,1.67.42l11.42,6A3.67,3.67,0,0,0,81.49,131a3,3,0,0,0,0-.6L79.29,117.7a3.73,3.73,0,0,1,1.06-3.26l9.24-9a3.67,3.67,0,0,0,.09-5.19,3.62,3.62,0,0,0-2.09-1.08l-12.8-1.88a3.69,3.69,0,0,1-2.77-2l-2.24-4.52-3.47-7A3.63,3.63,0,0,0,63,81.71Z"/><ellipse class="cls-4" cx="58.55" cy="93.05" rx="4.58" ry="2.29" transform="translate(-47.63 121.54) rotate(-72.84)"/><ellipse class="cls-4" cx="62.12" cy="94.87" rx="2.12" ry="1.13" transform="translate(-46.85 126.23) rotate(-72.84)"/><path class="cls-1" d="M74.85,36.47a3.13,3.13,0,0,1-1.47-.36L66,32.25a1.48,1.48,0,0,0-.74-.19,1.59,1.59,0,0,0-.74.18L57.2,36.11a3.14,3.14,0,0,1-3.87-.76,3.1,3.1,0,0,1-.69-2.55l1.41-8.18a1.64,1.64,0,0,0-.46-1.44l-5.48-5.32-.46-.45a3.14,3.14,0,0,1,1.73-5.36l8.22-1.19A1.61,1.61,0,0,0,58.8,10l3.68-7.44a3.12,3.12,0,0,1,5.62,0L71.78,10a1.63,1.63,0,0,0,1.21.88l8.21,1.19a3.13,3.13,0,0,1,1.72,5.35l-6,5.8a1.65,1.65,0,0,0-.46,1.42l1.46,8.18a3.1,3.1,0,0,1-.69,2.55A3.16,3.16,0,0,1,74.85,36.47Z"/><path class="cls-2" d="M65.29,1.55a2.33,2.33,0,0,1,2.12,1.33L69.65,7.4l1.44,2.92a2.39,2.39,0,0,0,1.83,1.3l8.22,1.19a2.37,2.37,0,0,1,2,2.72,2.42,2.42,0,0,1-.65,1.28l-5.94,5.8a2.38,2.38,0,0,0-.69,2.1l1.41,8.18a2.38,2.38,0,0,1-1.94,2.74l-.39,0a2.26,2.26,0,0,1-1.11-.28l-7.35-3.86a2.38,2.38,0,0,0-2.2,0l-7.35,3.86a2.25,2.25,0,0,1-1.1.28,2.37,2.37,0,0,1-2.37-2.39,2.43,2.43,0,0,1,0-.38l1.41-8.18a2.38,2.38,0,0,0-.68-2.1l-5.53-5.3-.47-.46a2.37,2.37,0,0,1,0-3.35,2.42,2.42,0,0,1,1.28-.65l8.22-1.19a2.4,2.4,0,0,0,1.78-1.3l3.68-7.44a2.36,2.36,0,0,1,2.12-1.33m0-1.53a3.85,3.85,0,0,0-3.5,2.12L58.11,9.62a.83.83,0,0,1-.63.46l-8.21,1.21A3.9,3.9,0,0,0,47.11,18l.47.46,5.47,5.33a.82.82,0,0,1,.24.74l-1.37,8.18a3.91,3.91,0,0,0,3.19,4.52,4,4,0,0,0,2.49-.4l7.32-3.86a.72.72,0,0,1,.38-.1.85.85,0,0,1,.38.09L73,36.79a3.86,3.86,0,0,0,1.82.45,3.9,3.9,0,0,0,3.9-3.92,3.45,3.45,0,0,0-.05-.64l-1.41-8.2a.85.85,0,0,1,.24-.73l6-5.8a3.91,3.91,0,0,0-2.16-6.66L73.15,10.1a.84.84,0,0,1-.62-.46L71.09,6.72l-2.3-4.54A3.86,3.86,0,0,0,65.29,0Z"/><path class="cls-3" d="M76.46,22.65a2.38,2.38,0,0,0-.69,2.1l1.41,8.18a2.37,2.37,0,0,1-3.44,2.5l-7.35-3.87a2.38,2.38,0,0,0-2.2,0l-7.35,3.87a2.37,2.37,0,0,1-3.2-1,2.32,2.32,0,0,1-.24-1.51l1.41-8.18a2.38,2.38,0,0,0-.68-2.1l-5.48-5.34.62.16c14.47,3.9,19.23-2.6,20.38-10.07l1.44,2.92a2.39,2.39,0,0,0,1.83,1.3l8.22,1.19a2.37,2.37,0,0,1,2,2.72,2.42,2.42,0,0,1-.65,1.28Z"/><path class="cls-4" d="M65.29,3.18a.67.67,0,0,1,.63.4l2.24,4.6L69.6,11.1a4,4,0,0,0,3,2.21l8.22,1.19a.7.7,0,0,1,.39,1.2l-5.95,5.8a4.08,4.08,0,0,0-1.16,3.57l1.44,8.11a.61.61,0,0,1-.15.56.71.71,0,0,1-.54.27.63.63,0,0,1-.33-.09l-7.35-3.86a4.07,4.07,0,0,0-3.75,0l-7.36,3.86a.62.62,0,0,1-.32.09.7.7,0,0,1-.55-.27.61.61,0,0,1-.15-.56L56.45,25a4,4,0,0,0-1.16-3.56l-5.48-5.31-.47-.45a.7.7,0,0,1,.39-1.2l8.19-1.19a4,4,0,0,0,3-2.21L64.6,3.61a.67.67,0,0,1,.63-.39m0-1.67a2.36,2.36,0,0,0-2.12,1.33l-3.68,7.44a2.4,2.4,0,0,1-1.78,1.3l-8.16,1.19a2.37,2.37,0,0,0-2,2.72,2.42,2.42,0,0,0,.65,1.28l.47.46,5.48,5.34a2.38,2.38,0,0,1,.68,2.1L53.4,32.93a2.38,2.38,0,0,0,2,2.74,2.34,2.34,0,0,0,.38,0,2.25,2.25,0,0,0,1.1-.28l7.35-3.86a2.38,2.38,0,0,1,2.2,0l7.35,3.86a2.26,2.26,0,0,0,1.11.28,2.36,2.36,0,0,0,2.36-2.38,2.56,2.56,0,0,0,0-.39l-1.41-8.18a2.38,2.38,0,0,1,.69-2.1l5.94-5.8a2.37,2.37,0,0,0,0-3.35,2.42,2.42,0,0,0-1.28-.65l-8.17-1.23a2.4,2.4,0,0,1-1.78-1.3L69.7,7.4,67.41,2.88a2.33,2.33,0,0,0-2.12-1.33Z"/><ellipse class="cls-4" cx="62.41" cy="8.87" rx="2.95" ry="1.47" transform="translate(35.52 65.89) rotate(-72.84)"/><ellipse class="cls-4" cx="64.92" cy="10.08" rx="1.38" ry="0.73" transform="translate(35.93 69.04) rotate(-72.65)"/></g></g></svg>