<svg xmlns="http://www.w3.org/2000/svg" viewBox="0 0 60.2 57.79"><defs><style>.cls-1{fill:#fffa75;}.cls-2{fill:#e37d17;}.cls-3{fill:#ffd7ba;}.cls-4{fill:#fff;}</style></defs><g id="Layer_2" data-name="Layer 2"><g id="Layer_1-2" data-name="Layer 1"><path class="cls-1" d="M44.92,56.62a4.87,4.87,0,0,1-2.27-.57l-11.41-6a2.43,2.43,0,0,0-1.16-.29,2.38,2.38,0,0,0-1.14.29l-11.43,6a4.75,4.75,0,0,1-2.27.57,4.93,4.93,0,0,1-3.73-1.75,4.76,4.76,0,0,1-1.07-3.95L12.63,38.2a2.53,2.53,0,0,0-.72-2.2l-8.5-8.29L2.68,27a4.88,4.88,0,0,1,2.69-8.32l12.77-1.85A2.48,2.48,0,0,0,20,15.48L25.75,3.92a4.86,4.86,0,0,1,8.73,0l5.71,11.56a2.51,2.51,0,0,0,1.87,1.36l12.69,1.85A4.86,4.86,0,0,1,57.45,27l-9.23,9a2.52,2.52,0,0,0-.72,2.2l2.25,12.72a4.8,4.8,0,0,1-1.07,3.95A4.91,4.91,0,0,1,44.92,56.62Z"/><path class="cls-2" d="M30.08,2.39a3.63,3.63,0,0,1,3.3,2.06l3.47,7L39.09,16a3.69,3.69,0,0,0,2.77,2l12.76,1.86a3.67,3.67,0,0,1,2,6.27l-9.24,9a3.73,3.73,0,0,0-1.06,3.26l2.23,12.73a3.69,3.69,0,0,1-3,4.25,4,4,0,0,1-.6.05A3.66,3.66,0,0,1,43.21,55L31.75,49A3.61,3.61,0,0,0,30,48.58a3.79,3.79,0,0,0-1.71.42L17,55a3.67,3.67,0,0,1-5.34-3.87l2.19-12.71a3.71,3.71,0,0,0-1.06-3.27l-8.51-8.3-.73-.7a3.67,3.67,0,0,1,2-6.27L18.31,18a3.7,3.7,0,0,0,2.77-2L26.75,4.45A3.62,3.62,0,0,1,30,2.39M30,0A6,6,0,0,0,24.6,3.39L18.93,15a1.31,1.31,0,0,1-1,.71L5.2,17.51A6.06,6.06,0,0,0,1.84,27.86l.74.71,8.5,8.29A1.3,1.3,0,0,1,11.45,38L9.26,50.7a6.07,6.07,0,0,0,5,7,6,6,0,0,0,1,.09,6,6,0,0,0,2.83-.7l11.42-6a1.23,1.23,0,0,1,.59-.15,1.31,1.31,0,0,1,.59.14l11.43,6A6.08,6.08,0,0,0,51,51.7a5.75,5.75,0,0,0-.09-1L48.75,38a1.3,1.3,0,0,1,.37-1.14l9.24-9a6.05,6.05,0,0,0,.14-8.57A6.12,6.12,0,0,0,55,17.51L42.2,15.66a1.3,1.3,0,0,1-1-.71L39,10.42l-3.47-7A6,6,0,0,0,30.08,0Z"/><path class="cls-3" d="M47.42,35.15a3.73,3.73,0,0,0-1.06,3.26l2.19,12.71A3.68,3.68,0,0,1,43.21,55L31.75,49a3.69,3.69,0,0,0-3.42,0L17,55a3.68,3.68,0,0,1-5-1.55,3.73,3.73,0,0,1-.37-2.32l2.19-12.71a3.71,3.71,0,0,0-1.06-3.27l-8.51-8.3,1,.25c22.48,6.06,29.87-4,31.65-15.62L39.09,16a3.69,3.69,0,0,0,2.77,2l12.76,1.86a3.67,3.67,0,0,1,2,6.27Z"/><path class="cls-4" d="M30.08,5a1,1,0,0,1,1,.61l3.47,7,2.2,4.54a6.29,6.29,0,0,0,4.71,3.43l12.77,1.85a1,1,0,0,1,.88.75,1,1,0,0,1-.28,1.12l-9.24,9a6.36,6.36,0,0,0-1.8,5.54L46,51.55a1,1,0,0,1-.23.88,1.16,1.16,0,0,1-.85.41,1,1,0,0,1-.51-.14L33,46.7a6.4,6.4,0,0,0-2.91-.7,6.31,6.31,0,0,0-2.91.73l-11.42,6a1,1,0,0,1-.51.14,1.17,1.17,0,0,1-.85-.41,1.09,1.09,0,0,1-.23-.87l2.2-12.73a6.29,6.29,0,0,0-1.81-5.53L6,25l-.73-.7a1.09,1.09,0,0,1,0-1.54,1.16,1.16,0,0,1,.62-.32l12.84-1.86a6.27,6.27,0,0,0,4.69-3.43L29.11,5.58a1,1,0,0,1,1-.6m0-2.59a3.62,3.62,0,0,0-3.36,2.06L21.08,16a3.7,3.7,0,0,1-2.77,2L5.54,19.88a3.67,3.67,0,0,0-2,6.27l.73.7,8.48,8.3a3.73,3.73,0,0,1,1.06,3.26L11.62,51.12A3.66,3.66,0,0,0,17,55l11.41-6a3.79,3.79,0,0,1,1.71-.42,3.72,3.72,0,0,1,1.67.42l11.42,6a3.67,3.67,0,0,0,5.39-3.27,3,3,0,0,0-.05-.6L46.36,38.41a3.73,3.73,0,0,1,1.06-3.26l9.24-9a3.66,3.66,0,0,0-2-6.27L41.86,18a3.69,3.69,0,0,1-2.77-2l-2.24-4.52-3.47-7a3.63,3.63,0,0,0-3.3-2.06Z"/><ellipse class="cls-4" cx="25.62" cy="13.76" rx="4.58" ry="2.29" transform="translate(4.91 34.18) rotate(-72.84)"/><ellipse class="cls-4" cx="29.19" cy="15.58" rx="2.12" ry="1.13" transform="translate(5.69 38.87) rotate(-72.84)"/></g></g></svg>