<svg xmlns="http://www.w3.org/2000/svg" xmlns:xlink="http://www.w3.org/1999/xlink" viewBox="0 0 87.09 79.43"><defs><style>.cls-1{isolation:isolate;}.cls-2{fill:url(#radial-gradient);}.cls-3{fill:#317a35;}.cls-4{fill:#fff;mix-blend-mode:overlay;}.cls-5{fill:url(#radial-gradient-2);}</style><radialGradient id="radial-gradient" cx="7490.53" cy="35.07" r="26.02" gradientTransform="matrix(-1, 0, 0, 1, 7561.87, 0)" gradientUnits="userSpaceOnUse"><stop offset="0" stop-color="#cbff8b"/><stop offset="1" stop-color="#c7ed34"/></radialGradient><radialGradient id="radial-gradient-2" cx="7518.88" cy="58.44" r="32.68" xlink:href="#radial-gradient"/></defs><g class="cls-1"><g id="Layer_2" data-name="Layer 2"><g id="Layer_1-2" data-name="Layer 1"><path class="cls-2" d="M78,69.18a.93.93,0,0,1-.55-.18,53.66,53.66,0,0,1-17-22.67c-4-10.58-3.84-21.66.58-32.93a66.78,66.78,0,0,1,6.26-12A1,1,0,0,1,68.06,1a1.06,1.06,0,0,1,.51.14l.38.26a28.14,28.14,0,0,1,3.89,3.37C80.59,12.63,91.82,31,80,65.4c-.24.72-.5,1.45-.77,2.2-.12.31-.24.64-.36,1a.94.94,0,0,1-.62.58A.86.86,0,0,1,78,69.18Z"/><path class="cls-3" d="M68.06,1.92l.35.23A28.39,28.39,0,0,1,72.16,5.4c6.86,7,18.81,25.13,7,59.69-.25.72-.5,1.44-.77,2.18-.12.31-.23.63-.36,1A53.24,53.24,0,0,1,61.31,46c-3.3-8.64-4.41-19.54.57-32.24A64.87,64.87,0,0,1,68.06,1.92m0-1.92a1.93,1.93,0,0,0-1.61.87,67.77,67.77,0,0,0-6.36,12.18c-4.5,11.5-4.7,22.81-.57,33.62A54.64,54.64,0,0,0,76.88,69.78a1.89,1.89,0,0,0,1.12.36,2.09,2.09,0,0,0,.55-.08,1.93,1.93,0,0,0,1.24-1.16l.36-1c.27-.74.53-1.47.78-2.2,5.29-15.41,6.5-29.29,3.59-41.25a43.44,43.44,0,0,0-11-20.4,28.83,28.83,0,0,0-4-3.48L69.08.29a1.91,1.91,0,0,0-1-.29Z"/><path class="cls-4" d="M80.88,59.47a103.53,103.53,0,0,0,.53-27A39.38,39.38,0,0,0,68,8.11c-4.28,2.94-7,9.25-8.57,14a50.41,50.41,0,0,1,2.49-8.34A64.87,64.87,0,0,1,68.06,1.92l.35.23A28.39,28.39,0,0,1,72.16,5.4C78.64,12,89.66,28.55,80.88,59.47Z"/><path class="cls-3" d="M76.26,69.46c-.93-4.37-1.78-8.71-2.58-13.08s-1.55-8.73-2.21-13.12-1.26-8.78-1.69-13.19a98.16,98.16,0,0,1-.59-13.27,98,98,0,0,0,1.57,13.13c.76,4.35,1.66,8.67,2.65,13s2,8.59,3.16,12.85,2.29,8.53,3.52,12.73h0a2,2,0,0,1-1.35,2.46A2,2,0,0,1,76.3,69.6,1,1,0,0,1,76.26,69.46Z"/><path class="cls-3" d="M74,53.12a46,46,0,0,1,1.35-5.79,41.69,41.69,0,0,1,2.08-5.52,26,26,0,0,1,3-5.05,15.59,15.59,0,0,1,4.33-3.89A15.33,15.33,0,0,0,80.79,37a25.26,25.26,0,0,0-2.52,5.14,39.25,39.25,0,0,0-1.56,5.51,45.87,45.87,0,0,0-.85,5.63v0A1,1,0,1,1,74,53.19.17.17,0,0,1,74,53.12Z"/><path class="cls-3" d="M71.5,43.86a29.1,29.1,0,0,0-2.3-4.65A32.33,32.33,0,0,0,66.11,35a26.6,26.6,0,0,0-3.82-3.68,24.72,24.72,0,0,0-4.51-2.85,24.92,24.92,0,0,1,4.79,2.46,26.66,26.66,0,0,1,4.23,3.41,32.72,32.72,0,0,1,3.59,4.12,30.32,30.32,0,0,1,2.89,4.73,1,1,0,0,1-1.73.84l0-.08Z"/><path class="cls-3" d="M78.92,13.11C73.4,15,70.16,27.74,70.16,27.74l-.38-2.46C72.55,17.19,74.65,14,78.92,13.11Z"/><path class="cls-3" d="M75.6,60.65a23.05,23.05,0,0,0-2.46-4.5,24.75,24.75,0,0,0-3.42-4c-.62-.62-1.32-1.14-2-1.7a24.76,24.76,0,0,0-2.22-1.44,23.6,23.6,0,0,0-4.89-2.11,23.72,23.72,0,0,1,5.11,1.68c.84.35,1.6.84,2.4,1.27a26.45,26.45,0,0,1,2.23,1.58,25.27,25.27,0,0,1,3.93,3.81,23.87,23.87,0,0,1,3.09,4.64A1,1,0,0,1,77,61.21a1,1,0,0,1-1.29-.43.25.25,0,0,1,0-.07Z"/><path class="cls-5" d="M53.58,78.22c-1.52,0-3-.06-4.54-.17C34.78,77,22.22,70.75,11.72,59.62A83.91,83.91,0,0,1,1.39,46a1.2,1.2,0,0,1,.38-1.65s.16-.11.5-.3a35.53,35.53,0,0,1,6-2.63A51.68,51.68,0,0,1,25,38.66c13,0,33.25,4.73,56.42,27.27.69.67,1.39,1.36,2.09,2.07l.91.93a1.21,1.21,0,0,1-.28,1.9A68.33,68.33,0,0,1,53.58,78.22Z"/><path class="cls-3" d="M25,39.87c14,0,33.45,5.4,55.58,26.93.68.66,1.37,1.34,2.07,2l.9.92a67.68,67.68,0,0,1-30,7.24c-1.45,0-2.94-.06-4.45-.17-11.64-.9-24.69-5.51-36.52-18.05A82.54,82.54,0,0,1,2.42,45.35l.46-.28a35.29,35.29,0,0,1,5.74-2.53A50.06,50.06,0,0,1,25,39.87m0-2.42h0a52.21,52.21,0,0,0-17.17,2.8A37.1,37.1,0,0,0,1.68,43l-.56.33a2.44,2.44,0,0,0-.76,3.32A85.83,85.83,0,0,0,10.84,60.45C21.56,71.81,34.37,78.13,49,79.25c1.52.12,3.08.18,4.63.18a69.74,69.74,0,0,0,31.14-7.54,2.43,2.43,0,0,0,.56-3.81l-.93-.94c-.69-.7-1.4-1.4-2.1-2.08C58.8,42.24,38.16,37.45,25,37.45Z"/><path class="cls-4" d="M75.09,61.75c-6-4-17.59-11-30.61-15.2-18.85-6-35,2.25-35,2.25,1.05,6.48,6.79,13,11.36,17.33a62.4,62.4,0,0,1-8.19-7.34A82.54,82.54,0,0,1,2.42,45.35l.46-.28a35.29,35.29,0,0,1,5.74-2.53C19.66,38.7,44.5,35,75.09,61.75Z"/><path class="cls-3" d="M84,72.42c-5.49-1.29-10.9-2.67-16.33-4.1S56.87,65.37,51.5,63.76s-10.71-3.3-16-5.19A123.71,123.71,0,0,1,20,52.08a124.9,124.9,0,0,0,15.85,5.3c5.37,1.48,10.79,2.77,16.24,4s10.9,2.3,16.38,3.32,11,2,16.45,2.85h0a2.5,2.5,0,1,1-.77,4.94Z"/><path class="cls-3" d="M64.1,66.23a55.94,55.94,0,0,1-5.87-4.67A50.44,50.44,0,0,1,53,56.21a32.77,32.77,0,0,1-4.15-6.16,19.62,19.62,0,0,1-2.11-7,19.72,19.72,0,0,0,2.63,6.75,32.45,32.45,0,0,0,4.53,5.65,47.4,47.4,0,0,0,5.45,4.76,57.65,57.65,0,0,0,6,4h0a1.22,1.22,0,1,1-1.21,2.11Z"/><path class="cls-3" d="M52.2,64a36.91,36.91,0,0,0-6.55.13,40.32,40.32,0,0,0-6.54,1.23,33.58,33.58,0,0,0-6.26,2.37,31.82,31.82,0,0,0-5.69,3.62,32.15,32.15,0,0,1,5.4-4.15,33.79,33.79,0,0,1,6.17-3,41,41,0,0,1,6.65-1.88,39.65,39.65,0,0,1,7-.75,1.22,1.22,0,1,1,0,2.43H52.2Z"/><path class="cls-3" d="M21.07,39c-.82,7.33,12,17.92,12,17.92l-3-.9C22.3,48.46,19.81,44.34,21.07,39Z"/><path class="cls-3" d="M73.59,68.42a28.93,28.93,0,0,0-6.46.38,30.91,30.91,0,0,0-6.37,1.77,32.85,32.85,0,0,0-3,1.38,29.45,29.45,0,0,0-7.88,6.2,29.89,29.89,0,0,1,4.68-4.93,31.11,31.11,0,0,1,2.74-2.06c1-.58,1.95-1.21,3-1.7A32.19,32.19,0,0,1,66.75,67a31.1,31.1,0,0,1,7-1,1.22,1.22,0,0,1,.06,2.43h-.19Z"/></g></g></g></svg>