<svg xmlns="http://www.w3.org/2000/svg" xmlns:xlink="http://www.w3.org/1999/xlink" viewBox="0 0 82.25 220.41"><defs><style>.cls-1{isolation:isolate;}.cls-2{fill:url(#radial-gradient);}.cls-3{fill:#317a35;}.cls-4{fill:#fff;mix-blend-mode:overlay;}.cls-5{fill:#0e8003;}.cls-6{fill:#5f911f;mix-blend-mode:multiply;opacity:0.51;}.cls-7{fill:#23731c;}.cls-8{fill:url(#radial-gradient-2);}.cls-9{fill:url(#radial-gradient-3);}.cls-10{fill:url(#radial-gradient-4);}.cls-11{fill:url(#radial-gradient-5);}.cls-12{fill:url(#radial-gradient-6);}.cls-13{fill:url(#radial-gradient-7);}.cls-14{fill:url(#radial-gradient-8);}</style><radialGradient id="radial-gradient" cx="4530.92" cy="663.1" r="23.39" gradientTransform="matrix(-0.98, -0.19, -0.19, 0.98, 4615.14, 233.43)" gradientUnits="userSpaceOnUse"><stop offset="0" stop-color="#cbff8b"/><stop offset="1" stop-color="#c7ed34"/></radialGradient><radialGradient id="radial-gradient-2" cx="4539.87" cy="695.98" r="18.73" xlink:href="#radial-gradient"/><radialGradient id="radial-gradient-3" cx="4507.8" cy="718.5" r="18.22" xlink:href="#radial-gradient"/><radialGradient id="radial-gradient-4" cx="-304.79" cy="971.77" r="19.3" gradientTransform="matrix(0.96, 0.29, -0.29, 0.96, 608.72, -728.35)" xlink:href="#radial-gradient"/><radialGradient id="radial-gradient-5" cx="-277.51" cy="970.79" r="17.48" gradientTransform="matrix(0.96, 0.29, -0.29, 0.96, 608.72, -728.35)" xlink:href="#radial-gradient"/><radialGradient id="radial-gradient-6" cx="4476.16" cy="836.52" r="14.82" xlink:href="#radial-gradient"/><radialGradient id="radial-gradient-7" cx="-286.24" cy="1019.12" r="21.58" gradientTransform="matrix(0.96, 0.29, -0.29, 0.96, 608.72, -728.35)" xlink:href="#radial-gradient"/><radialGradient id="radial-gradient-8" cx="4515.59" cy="680.82" r="17.61" xlink:href="#radial-gradient"/></defs><g class="cls-1"><g id="Layer_2" data-name="Layer 2"><g id="Layer_1-2" data-name="Layer 1"><path class="cls-2" d="M25.46,37.24a20.92,20.92,0,0,1-6.9-.94c-3.07-1.12-5-3-5.86-5.65C10.93,25,15.2,17.85,16.47,15.9A10.13,10.13,0,0,1,20.36,5.48a20.11,20.11,0,0,1,6.88-3.27c.55-.15,1.14-.3,1.75-.44l.88-.18.3-.06a18.87,18.87,0,0,1,3.46-.32c14.52,0,30,15.72,33.41,21.7a4.08,4.08,0,0,1,.73,2.21c0,1-1,2.07-5.45,3.94l-1,.38c-8.2,3.24-24.77,7.8-35.9,7.8Z"/><path class="cls-3" d="M33.63,2.42c14,0,29.24,15.64,32.36,21.09A3.28,3.28,0,0,1,66.56,25c0,.66-1.84,1.7-4.71,2.9l-.93.37C52.34,31.7,36,36,25.46,36A19.79,19.79,0,0,1,19,35.16C7.34,30.92,17.8,16.1,17.8,16.1a8.79,8.79,0,0,1,3.31-9.67,18.62,18.62,0,0,1,6.46-3c.53-.15,1.09-.29,1.69-.43l1.15-.23a17.38,17.38,0,0,1,3.22-.3m0-2.42A20.2,20.2,0,0,0,30,.33l-.37.08-.88.18c-.67.16-1.26.3-1.79.45a21.47,21.47,0,0,0-7.3,3.48,11.16,11.16,0,0,0-4.43,11.12C13.56,18.22,9.71,25.18,11.54,31c.65,2.07,2.32,4.86,6.61,6.42a21.4,21.4,0,0,0,7.31,1c11.29,0,28.05-4.61,36.35-7.89l1-.39c4.53-1.89,6.1-3.15,6.19-5a5.07,5.07,0,0,0-.88-2.85C64.57,16.16,48.64,0,33.63,0Z"/><path class="cls-4" d="M29.26,3A38.63,38.63,0,0,1,42.13,5.78C54.66,11.16,64,23.47,64.79,24.69c.29.46-1.53,2-3.87,3.62l.93-.37c2.87-1.2,4.68-2.24,4.71-2.9C66.78,22.09,46.93-.38,30.41,2.72Z"/><path class="cls-5" d="M46.34,17.69a54.83,54.83,0,0,0-7.28-1.45,57,57,0,0,0-7.37-.54,68.33,68.33,0,0,0-7.32.51,67,67,0,0,0-7.27,1.32h0a.08.08,0,0,1-.08-.05.07.07,0,0,1,0-.07,20.42,20.42,0,0,1,3.45-1.52c.6-.2,1.2-.42,1.81-.56l1.86-.4a32.27,32.27,0,0,1,7.54-.27,54,54,0,0,1,14.66,2.91.06.06,0,0,1,0,.08A.07.07,0,0,1,46.34,17.69Z"/><path class="cls-6" d="M19.12,35.06c8.4,3.07,31.24-2.62,41.94-6.84l.93-.38c2.87-1.19,4.68-2.24,4.72-2.89a3.39,3.39,0,0,0-.58-1.54c-5.82-1.8-15-4.06-20.29-2.43-8.23,2.54-15.25,9.14-17.9,7-2.25-1.79,2.82-16.4-.23-24.7a18.7,18.7,0,0,0-6.46,3.06A8.77,8.77,0,0,0,17.94,16S7.48,30.83,19.12,35.06Z"/><path class="cls-7" d="M62.7,214.73a105.83,105.83,0,0,0-.28-13.68c-.47-4.51-1.12-9.1-3.53-12.83-1.16-1.9-2.65-3.62-4-5.63a14,14,0,0,1-2.32-6.85,18.88,18.88,0,0,1,.11-3.61l.51-3.42c.31-2.25.56-4.53.78-6.81.89-9.12,1.44-18.28,1.65-27.43.09-4.58.09-9.15-.11-13.71-.1-2.27-.25-4.55-.5-6.79a39.61,39.61,0,0,0-1.2-6.56,15.33,15.33,0,0,0-.54-1.49c-.1-.24-.21-.46-.32-.67s-.32-.57-.43-.85a20.18,20.18,0,0,1-1.14-3.48c-.55-2.31-.92-4.6-1.26-6.89-.66-4.57-1.2-9.13-1.79-13.68-1.2-9.06-2.61-18.14-5.53-26.74a43.56,43.56,0,0,0-6.06-12,23.59,23.59,0,0,0-4.64-4.72,17.15,17.15,0,0,0-2.8-1.76c-1-.53-2-1-3-1.5a32.31,32.31,0,0,0-12.88-3.26,17,17,0,0,0-6.36,1.08,13.4,13.4,0,0,0-2.8,1.49,14.38,14.38,0,0,0-1.21,1,8.69,8.69,0,0,0-1,1.06L0,33.49a9.61,9.61,0,0,1,1.42-1.43,16,16,0,0,1,1.52-1.12,16.08,16.08,0,0,1,3.35-1.6,19.61,19.61,0,0,1,7.18-1A35.89,35.89,0,0,1,27.07,32c1.06.49,2.1,1,3.12,1.57a22.26,22.26,0,0,1,3,1.9,25,25,0,0,1,5,5.06A46.45,46.45,0,0,1,44.64,53c3.12,8.79,4.66,18,6,27.07.67,4.55,1.19,9.12,1.87,13.64.34,2.25.71,4.5,1.24,6.66a18.59,18.59,0,0,0,1,3.06c.11.25.21.41.35.69a7.85,7.85,0,0,1,.42.88,14.75,14.75,0,0,1,.62,1.76,40.7,40.7,0,0,1,1.22,7c.24,2.32.37,4.64.46,7,.15,4.63.11,9.25,0,13.85q-.45,13.83-1.9,27.57c-.25,2.29-.52,4.58-.86,6.88l-.53,3.38a16.45,16.45,0,0,0-.14,3.28,12.25,12.25,0,0,0,2,6.06c1.17,1.87,2.69,3.64,3.9,5.69A20.87,20.87,0,0,1,62.82,194a49.51,49.51,0,0,1,.94,6.93,105.09,105.09,0,0,1,0,13.86Z"/><path class="cls-8" d="M32,72.88C29.7,72.82,19.7,65.2,14.21,59.29c-2.93-3.15-4.67-5.8-5.16-7.89-1.77-7.52,1.12-13.52,7.35-15.3a23.45,23.45,0,0,1,6.35-.88,21,21,0,0,1,3.72.32A15.43,15.43,0,0,1,33,34.08a13.56,13.56,0,0,1,4.74.84c4.09,1.53,8.12,8.82,7,15.16a45.94,45.94,0,0,1-3,8.54c-1.06,2.38-6.5,14.26-9.6,14.26Z"/><path class="cls-3" d="M33,35.29a12.19,12.19,0,0,1,4.32.77c3.58,1.34,7.24,8.11,6.24,13.81a43.23,43.23,0,0,1-2.93,8.26c-2.87,6.44-7,13.54-8.5,13.54h0c-1.57,0-11-6.77-17-13.2-2.49-2.67-4.39-5.29-4.87-7.35-1.66-7,1-12.29,6.51-13.85a21.91,21.91,0,0,1,6-.84,17.16,17.16,0,0,1,3.88.39A13.87,13.87,0,0,1,33,35.29m0-2.42h0a16.66,16.66,0,0,0-6.65,1.41A23.12,23.12,0,0,0,22.76,34a24.21,24.21,0,0,0-6.68.93c-6.92,2-10.14,8.53-8.21,16.73.55,2.33,2.33,5.1,5.46,8.45,5,5.33,15.51,13.89,18.68,14h.07c1.79,0,3.37-1.5,5.82-5.52a86.38,86.38,0,0,0,4.89-9.47,47,47,0,0,0,3.1-8.81c1.13-6.45-2.72-14.62-7.78-16.51A14.77,14.77,0,0,0,33,32.87Z"/><path class="cls-4" d="M10,44.62a15.11,15.11,0,0,0,.24,6.5c.48,2.06,2.38,4.68,4.87,7.35,6,6.43,15.4,13.16,17,13.2s5.63-7.09,8.51-13.54c.43-1,.83-1.94,1.19-2.85-3.91,6.79-8.66,14.71-9.62,15-1.69.42-13.94-9.65-16.58-12.68s-5.31-9-5.17-12A.93.93,0,0,0,10,44.62Z"/><path class="cls-5" d="M27.85,54.21a50.43,50.43,0,0,1-2.33-9,20.43,20.43,0,0,1-.42-4.69,11.39,11.39,0,0,1,1.15-4.58.06.06,0,0,1,.09,0,.07.07,0,0,1,0,.06c-.05,1.57,0,3.06,0,4.57s0,3,.15,4.54.32,3,.57,4.56.51,3,.86,4.53a.06.06,0,0,1-.12,0Z"/><path class="cls-6" d="M10,44.62a15.11,15.11,0,0,0,.24,6.5c.48,2.06,2.38,4.68,4.87,7.35,6,6.43,15.4,13.16,17,13.2s5.63-7.09,8.51-13.54c.43-1,.83-1.94,1.19-2.85a31.56,31.56,0,0,0,1.74-5.41c1-5.7-2.66-12.47-6.24-13.81a13.55,13.55,0,0,0-10.63.76,20.94,20.94,0,0,0-9.9.45A9.2,9.2,0,0,0,10,44.62Z"/><path class="cls-9" d="M66.31,100.45a7.54,7.54,0,0,1-1.24-.13,31.16,31.16,0,0,1-3.92-1,65.11,65.11,0,0,1-16.7-7.75A32.12,32.12,0,0,1,39,87c-3.44-3.73-5-10.57-3.61-15.58.74-2.62,2.28-4.38,4.34-5a19.31,19.31,0,0,1,2.86-.56,22.9,22.9,0,0,1,2.66-.16,26,26,0,0,1,5.66.64,12.46,12.46,0,0,1,7.58-2.49,15.63,15.63,0,0,1,5.34,1,8.77,8.77,0,0,1,2.89,1.92A17.42,17.42,0,0,1,69.27,70c2.37,3.56,3.45,7.59,2.88,10.78-.13.75-.28,1.61-.44,2.55-2.47,14.28-3.33,16.69-4.82,17.1A2,2,0,0,1,66.31,100.45Z"/><path class="cls-3" d="M58.49,65.11a14.21,14.21,0,0,1,4.92.93,7.52,7.52,0,0,1,2.48,1.66,17.12,17.12,0,0,1,2.37,2.9c1.93,2.92,3.27,6.71,2.7,9.92-1,5.7-3,18.31-4.39,18.69a.88.88,0,0,1-.26,0,6.23,6.23,0,0,1-1-.12,26.81,26.81,0,0,1-3.77-.93A62.72,62.72,0,0,1,45.13,90.6a30.83,30.83,0,0,1-5.24-4.42c-4.85-5.25-5.32-17,.17-18.54a18.53,18.53,0,0,1,2.67-.53A22.13,22.13,0,0,1,45.25,67a23.75,23.75,0,0,1,6,.75,10.82,10.82,0,0,1,7.27-2.61m0-2.42h0a13.82,13.82,0,0,0-7.85,2.4,27.65,27.65,0,0,0-5.39-.55,23.43,23.43,0,0,0-2.81.17,21.39,21.39,0,0,0-3,.59c-2.49.7-4.33,2.76-5.19,5.8-1.52,5.37.19,12.72,3.89,16.73a33.59,33.59,0,0,0,5.65,4.77,65.52,65.52,0,0,0,17.05,7.91,30.16,30.16,0,0,0,4.08,1,8.68,8.68,0,0,0,1.42.15,3.66,3.66,0,0,0,.91-.11c2.15-.59,3-2.44,5.68-18.06.16-.94.31-1.8.44-2.54.62-3.49-.52-7.86-3.07-11.69a18.5,18.5,0,0,0-2.7-3.3,9.85,9.85,0,0,0-3.34-2.2,16.58,16.58,0,0,0-5.74-1.07Z"/><path class="cls-4" d="M42.73,67.11l8.89.91a12,12,0,0,1,13.8.9c3.58,3,4.48,7.11,3.76,14.5-.52,5.2-2.63,12-3.9,15.7a3.77,3.77,0,0,0,1.29.09c1.4-.38,3.37-13,4.39-18.69.78-4.45-2.07-10-5.07-12.82A7.52,7.52,0,0,0,63.41,66c-7.65-2.82-12.19,1.68-12.19,1.68A23.88,23.88,0,0,0,42.73,67.11Z"/><path class="cls-5" d="M59.05,83.13a40.2,40.2,0,0,0-1.38-4.45,31.54,31.54,0,0,0-1.82-4.26,34.11,34.11,0,0,0-2.42-3.84,17.13,17.13,0,0,0-3-3.37.07.07,0,0,1,0-.1.06.06,0,0,1,.07,0,8.15,8.15,0,0,1,4,2.7A14.84,14.84,0,0,1,56.79,74a35.89,35.89,0,0,1,2.39,9.12s0,.07-.06.07S59.06,83.16,59.05,83.13Z"/><path class="cls-6" d="M39.89,86.18a30.83,30.83,0,0,0,5.24,4.42c-.92-6-1.75-18,6.32-17.08,6,.66,12.37-1.17,16.81-2.92a17.12,17.12,0,0,0-2.37-2.9A7.52,7.52,0,0,0,63.41,66c-7.65-2.82-12.19,1.68-12.19,1.68a23.88,23.88,0,0,0-8.49-.61,18.53,18.53,0,0,0-2.67.53C34.57,69.18,35,80.93,39.89,86.18Z"/><path class="cls-10" d="M29.17,134.41a4.87,4.87,0,0,1-2.61-.7l-.11-.06c-3.47-2.36-6.52-19.84-3.26-30.24,1.95-6.29,8.43-9.11,14-9.11a12.82,12.82,0,0,1,2.47.22c2.83.55,4.22,1.37,4.9,2.1a19.81,19.81,0,0,1,3.53-.32,12.58,12.58,0,0,1,5.74,1.21l.07,0A6.45,6.45,0,0,1,57,102c1.38,5.6-1.41,14.78-9.41,21.47-5.74,4.83-10.17,8-13.53,9.61a1.45,1.45,0,0,1-.22.09,11.1,11.1,0,0,1-4.64,1.26Z"/><path class="cls-3" d="M37.16,95.51a11.88,11.88,0,0,1,2.24.2c4.46.86,4.54,2.26,4.54,2.26a18.79,18.79,0,0,1,4.12-.46,11.41,11.41,0,0,1,5.2,1.09l.05,0a5.33,5.33,0,0,1,2.48,3.64c1.25,5.06-1.27,13.79-9,20.26-5.6,4.72-10,7.87-13.34,9.48h0a10.23,10.23,0,0,1-4.26,1.21,3.6,3.6,0,0,1-2-.54l0,0c-2.69-1.82-6.05-18.44-2.79-28.87,1.88-6,8.22-8.26,12.82-8.26m0-2.42c-6,0-13,3.08-15.13,10-1.53,4.9-1.87,11.72-.93,18.71.44,3.22,1.77,10.91,4.67,12.89l.16.1a6.07,6.07,0,0,0,3.24.87,12.29,12.29,0,0,0,5.1-1.34,1.77,1.77,0,0,0,.31-.15c3.46-1.68,8-4.87,13.76-9.75,8.38-7,11.27-16.72,9.8-22.7a7.67,7.67,0,0,0-3.7-5.2l-.09,0-.05,0a13.68,13.68,0,0,0-6.24-1.32,20.75,20.75,0,0,0-3.15.24,11.49,11.49,0,0,0-5-2,14.35,14.35,0,0,0-2.7-.24Z"/><path class="cls-4" d="M27.13,132.64l0,0c1.4.89,3.45.67,6.26-.67-2.21.33-4.57.46-5.51-.18-2-1.35-1.91-5.51-3.52-14.64s1.94-18.26,8.92-20,9.86,1.91,9.86,1.91l10.08-.45c-3.9-2-9.32-.63-9.32-.63s-.08-1.4-4.54-2.26-12.85,1-15.06,8.06C21.08,114.2,24.44,130.82,27.13,132.64Z"/><path class="cls-5" d="M35,116.1a45.87,45.87,0,0,1,2.74-10.48,19.63,19.63,0,0,1,2.53-4.87,10.84,10.84,0,0,1,4.25-3.5.07.07,0,0,1,.09,0,.07.07,0,0,1,0,.07,24,24,0,0,0-3.26,4.13A47.42,47.42,0,0,0,38.65,106a42.57,42.57,0,0,0-2,4.94,50.82,50.82,0,0,0-1.54,5.15.07.07,0,1,1-.13,0Z"/><path class="cls-11" d="M76.42,141c-1.47,0-6-1.75-10.24-4-3.92-2-11.06-6.23-14.79-11.51a41.1,41.1,0,0,1-3-4.78c-4.14-7.76-1.76-11.33,1-13a6.62,6.62,0,0,1,3.39-.77,22.8,22.8,0,0,1,6.48,1.22,5.57,5.57,0,0,1,.53-.33,9.56,9.56,0,0,1,4.76-1.12,15.64,15.64,0,0,1,2.66.24c4.8.86,10.79,9.45,13,16.56a16.94,16.94,0,0,1,.85,6c-.46,6.51-2,10.78-4.07,11.42a1.72,1.72,0,0,1-.52.07Z"/><path class="cls-3" d="M64.55,108a14.14,14.14,0,0,1,2.45.23c4.16.74,9.89,8.77,12,15.71a15.76,15.76,0,0,1,.8,5.51c-.51,7.26-2.2,10-3.22,10.35a.37.37,0,0,1-.16,0c-1,0-5.06-1.43-9.68-3.85-5.23-2.71-11.19-6.65-14.36-11.14a40.3,40.3,0,0,1-2.89-4.63c-2.76-5.19-3-9.27.52-11.37a5.48,5.48,0,0,1,2.77-.6,22.93,22.93,0,0,1,6.71,1.37,4.23,4.23,0,0,1,.89-.64,8.4,8.4,0,0,1,4.17-1m0-2.42h0a10.76,10.76,0,0,0-5.35,1.27l-.12.06a23.13,23.13,0,0,0-6.3-1.1,7.83,7.83,0,0,0-4,.94c-2.6,1.55-6.25,5.51-1.42,14.59a43.61,43.61,0,0,0,3,4.89c3.68,5.21,10.31,9.34,15.23,11.89,3.9,2.05,8.87,4.13,10.79,4.13a3,3,0,0,0,.87-.13c3.6-1.11,4.63-8.31,4.93-12.5a18.22,18.22,0,0,0-.9-6.38c-2.27-7.46-8.53-16.44-13.9-17.4a17.1,17.1,0,0,0-2.87-.26Z"/><path class="cls-4" d="M78.08,125.78c1.42,5.2-.69,12.46-2.88,12.27a84.51,84.51,0,0,1-8.46-2.1c4.92,2.58,9.18,4,9.84,3.83,1-.31,2.71-3.09,3.22-10.35S72.35,109.15,67,108.21c-3.43-.6-5.54.12-6.62.73,1.89,0,4.21-.15,5.76-.07C69.89,109.07,76.68,120.56,78.08,125.78Z"/><path class="cls-5" d="M68.42,121.94a31.81,31.81,0,0,0-1.89-3.73,30.66,30.66,0,0,0-2.24-3.47c-.84-1.09-1.8-2.06-2.69-3a32.23,32.23,0,0,0-3-2.81.07.07,0,0,1,0-.09.07.07,0,0,1,.07,0,8.54,8.54,0,0,1,3.84,2,14.19,14.19,0,0,1,2.64,3.4,31.17,31.17,0,0,1,3.4,7.74.06.06,0,0,1,0,.08A.07.07,0,0,1,68.42,121.94Z"/><path class="cls-6" d="M49.49,120.18c3.11-2.52,6.64-4.53,10.3-5,6.87-.88,14.24,4.26,19.21,8.74-2.11-6.94-7.84-15-12-15.71-3.43-.6-5.54.12-6.62.73a4.23,4.23,0,0,0-.89.64s-6.6-2.48-9.48-.77C46.49,110.91,46.73,115,49.49,120.18Z"/><path class="cls-12" d="M62.64,219.2a1.33,1.33,0,0,1-.28,0c-2.44-.47-7.19-5.77-10-11.12a23.78,23.78,0,0,1-2.59-7.79,18.73,18.73,0,0,1-.13-1.92c0-3.81,1-8.81,3.56-11.41a5.26,5.26,0,0,1,3.73-1.7,9.5,9.5,0,0,1,6.62,2.64,4.8,4.8,0,0,1,3.54-1.35,8.78,8.78,0,0,1,2.42.38,6.34,6.34,0,0,1,3,1.89,10.49,10.49,0,0,1,2.31,5,23.52,23.52,0,0,1-.6,10.33c-1.78,6.46-9.25,15-11.6,15Z"/><path class="cls-3" d="M57,186.44a8.25,8.25,0,0,1,6.71,3.43,3.33,3.33,0,0,1,3.41-2.14,7.59,7.59,0,0,1,2.08.33,5.12,5.12,0,0,1,2.41,1.54,9.4,9.4,0,0,1,2,4.46,22.45,22.45,0,0,1-.58,9.79C71.24,210.49,64,218,62.64,218h0c-1.73-.33-6.22-4.91-9.1-10.49A22.65,22.65,0,0,1,51,200.11a17,17,0,0,1-.12-1.79c-.07-5.18,2-11.85,6.09-11.88h0M57,184h0a6.39,6.39,0,0,0-4.59,2.07c-3,3-4,8.5-3.91,12.27a18.72,18.72,0,0,0,.14,2.06,24.86,24.86,0,0,0,2.71,8.18c2.68,5.19,7.66,11.15,10.8,11.76a2.21,2.21,0,0,0,.51,0c1.62,0,3.94-1.84,6.91-5.47,1.68-2.05,4.67-6.14,5.85-10.45a24.73,24.73,0,0,0,.62-10.9A11.52,11.52,0,0,0,73.43,188a7.48,7.48,0,0,0-3.53-2.24,9.68,9.68,0,0,0-2.76-.43,6.25,6.25,0,0,0-3.52,1A10.56,10.56,0,0,0,57,184Z"/><path class="cls-5" d="M63.59,204.54a35,35,0,0,0,.52-3.95,37,37,0,0,0,.13-3.94c0-1.32-.27-2.6-.35-3.89s-.29-2.55-.46-3.92a.07.07,0,0,1,0-.08.09.09,0,0,1,.07,0,9.87,9.87,0,0,1,1.62,3.78,15.65,15.65,0,0,1,.1,4.1,32.51,32.51,0,0,1-1.55,7.91.07.07,0,0,1-.08,0S63.59,204.58,63.59,204.54Z"/><path class="cls-4" d="M50.9,198.32a17,17,0,0,0,.12,1.79c1,8.35,9.12,17.4,11.57,17.87,1.17.23,8.63-7.39,10.48-14.13a22.45,22.45,0,0,0,.58-9.79,35.56,35.56,0,0,1-2.13,10.54c-3.27,8-6.46,11.16-8.89,11.49C60.8,216.35,53.15,206.84,50.9,198.32Z"/><path class="cls-6" d="M50.9,198.32a17,17,0,0,0,.12,1.79,22.65,22.65,0,0,0,2.47,7.38c1.13-3,2.45-6.45,3.84-9.35,2.09-4.32,9-7,14.3-8.54a5.12,5.12,0,0,0-2.41-1.54c-4.57-1.33-5.49,1.81-5.49,1.81A8.27,8.27,0,0,0,57,186.44C52.94,186.47,50.83,193.14,50.9,198.32Z"/><path class="cls-13" d="M23.24,184.57a3.35,3.35,0,0,1-1.69-.32c-2.29-1.36-.89-12.15-.73-13.38.63-4.52,2.25-12.88,6.12-18.1a31,31,0,0,1,8.87-7.66c2.29-1.35,5.74-3,9.16-3a9.32,9.32,0,0,1,3.14.49c3,1,4.82,2.41,5.48,4.08a4.18,4.18,0,0,1,.23.89c2.22.14,6.29.75,8.58,3.34A7.06,7.06,0,0,1,63.9,157c-1.38,8.27-7.64,18.47-16.93,22-7.26,2.74-19.46,5.63-23.73,5.63Z"/><path class="cls-3" d="M45,143.31a8.18,8.18,0,0,1,2.73.42c6.24,2.19,4.77,5,4.77,5h.23c1.15,0,6.31.16,8.78,3a5.92,5.92,0,0,1,1.22,5.08c-1.41,8.41-7.7,17.84-16.17,21-7.46,2.81-19.46,5.55-23.3,5.55a2.5,2.5,0,0,1-1.09-.16c-.79-.47-1-5.83-.13-12.16.85-6.14,2.67-13.19,5.9-17.55a29.86,29.86,0,0,1,8.5-7.34A18.27,18.27,0,0,1,45,143.31m0-2.42h0c-3.69,0-7.35,1.75-9.77,3.18a31.79,31.79,0,0,0-9.22,8c-4,5.43-5.71,14-6.35,18.65a58.06,58.06,0,0,0-.57,8.65c.06,3.55.57,5.15,1.87,5.92a4.42,4.42,0,0,0,2.32.5c4.38,0,16.79-2.93,24.15-5.7,9.72-3.66,16.26-14.3,17.71-22.9a8.29,8.29,0,0,0-1.79-7.07c-2.28-2.59-6-3.42-8.52-3.68a1.8,1.8,0,0,0-.08-.21c-.79-2-2.88-3.61-6.2-4.78a10.61,10.61,0,0,0-3.52-.55Z"/><path class="cls-4" d="M22.15,183.2c1.57.91,15.92-2.2,24.39-5.39s14.76-12.62,16.17-21a5.92,5.92,0,0,0-1.22-5.08,20.67,20.67,0,0,1-.71,8.88c-2.17,5.77-8.8,14-12.74,15.06s-22.17,7.07-24.75,6,.13-18.34,3.55-24.57c1.71-3.1,5.84-7.4,9.58-10.92a29.86,29.86,0,0,0-8.5,7.34C21.36,162.34,20.59,182.29,22.15,183.2Z"/><path class="cls-5" d="M35.64,166.85a120.7,120.7,0,0,1,7.71-10.45,41.7,41.7,0,0,1,4.37-4.84,26.92,26.92,0,0,1,2.56-2.07l1.38-.89c.5-.25,1-.52,1.48-.74a.06.06,0,0,1,.08,0,.06.06,0,0,1,0,.07c-1.63,1.44-3.1,3-4.58,4.52s-3,3-4.49,4.59-2.89,3.19-4.28,4.85-2.78,3.3-4.11,5a.06.06,0,0,1-.1-.08Z"/><path class="cls-6" d="M22,171c-.86,6.33-.66,11.69.13,12.16,1.57.91,15.92-2.2,24.39-5.39s14.76-12.62,16.17-21a5.92,5.92,0,0,0-1.22-5.08c-2.79-3.16-9-3-9-3s1.47-2.82-4.77-5a8.18,8.18,0,0,0-2.73-.42c3.47,5.42,6.85,14.2-2,20.45C36.17,168.5,28.33,170.3,22,171Z"/><path class="cls-14" d="M65.7,61.53a1.43,1.43,0,0,1-.66-.16l-.39-.22c-4.26-2.37-8-3.58-11-3.58h-1c-4.78,0-12.13-3.13-16.15-8.37a14.07,14.07,0,0,1-2-3.44c-1.31-3.25.06-8.24,1.45-11.86.39-1,.71-1.73.84-2a11.89,11.89,0,0,1,3.35-6,8.77,8.77,0,0,1,6.1-2.27,15.18,15.18,0,0,1,5.48,1.15,24,24,0,0,1,6.73,4c7.27,6,10.6,15.5,10.55,20,0,4-.85,10.59-2.14,12.15A1.49,1.49,0,0,1,65.7,61.53Z"/><path class="cls-3" d="M46.29,24.83a14,14,0,0,1,5.05,1.07,22.9,22.9,0,0,1,6.39,3.79c7,5.77,10.15,14.77,10.11,19.06,0,4.72-1,10.35-1.86,11.39a.38.38,0,0,1-.28.18l-.1,0c-.87-.45-6.56-3.93-11.9-3.93h-1c-4.6,0-11.46-3-15.19-7.9a12.62,12.62,0,0,1-1.84-3.15c-1.23-3,.36-8.13,1.45-11,.49-1.27.87-2.09.87-2.09a10.73,10.73,0,0,1,3-5.48,7.59,7.59,0,0,1,5.29-2m0-2.43A10,10,0,0,0,39.37,25a13,13,0,0,0-3.69,6.52c-.16.36-.46,1.06-.81,2-2.13,5.56-2.61,9.85-1.44,12.75A15.26,15.26,0,0,0,35.62,50C40,55.7,47.7,58.8,52.71,58.8h1c2.79,0,6.28,1.16,10.36,3.43l.42.23a2.62,2.62,0,0,0,1.22.3,2.77,2.77,0,0,0,2.18-1.1c1.73-2.18,2.36-9.74,2.39-12.87,0-4.87-3.34-14.6-11-20.94a25.28,25.28,0,0,0-7.06-4.19,16.5,16.5,0,0,0-5.92-1.24Z"/><path class="cls-6" d="M35.82,45.23a12.86,12.86,0,0,0,1.84,3.16c3.86,5,11.07,8.1,15.65,7.88h.39c5.37-.07,11.16,3.47,12,3.93.12.06.25,0,.38-.15-3.89-5.24-14.73-18.91-24.86-23a8.42,8.42,0,0,1-4-2.82C36.18,37.11,34.59,42.2,35.82,45.23Z"/><path class="cls-4" d="M41,26.79c6.07-3.3,11.88.78,15,2.63,4,2.38,8.47,8.51,10.17,14.26S66.1,58,65.34,58.82s-5.73-2.61-8.85-3.22a3.54,3.54,0,0,0-2.93.76c5.37-.06,11.16,3.47,12,3.93s2.21-6.12,2.24-11.54c0-4.29-3.15-13.29-10.11-19.06a22.9,22.9,0,0,0-6.39-3.79C46.19,23.9,43,25,41,26.79Z"/><path class="cls-5" d="M57.31,41.62a29.5,29.5,0,0,0-4.54-3.42,30,30,0,0,0-5-2.58,37.27,37.27,0,0,0-5.36-1.55,51.14,51.14,0,0,0-5.56-1h0a.06.06,0,0,1,0-.07.06.06,0,0,1,0-.06,14,14,0,0,1,2.89-.37h1.47l1.46.18a18.65,18.65,0,0,1,5.53,1.88,29.84,29.84,0,0,1,9.22,6.85s0,.07,0,.09A.07.07,0,0,1,57.31,41.62Z"/></g></g></g></svg>