<svg xmlns="http://www.w3.org/2000/svg" xmlns:xlink="http://www.w3.org/1999/xlink" viewBox="0 0 210.88 46.77"><defs><style>.cls-1{isolation:isolate;}.cls-2{fill:#23731c;}.cls-3{fill:url(#radial-gradient);}.cls-4{fill:#317a35;}.cls-5{fill:#fff;mix-blend-mode:overlay;}.cls-6{fill:#0e8003;}.cls-7{fill:#81c42a;}.cls-10,.cls-7{mix-blend-mode:multiply;opacity:0.51;}.cls-8{fill:url(#radial-gradient-2);}.cls-9{fill:url(#radial-gradient-3);}.cls-10{fill:#5f911f;}.cls-11{fill:url(#radial-gradient-4);}.cls-12{fill:url(#radial-gradient-5);}.cls-13{fill:url(#radial-gradient-6);}.cls-14{fill:url(#radial-gradient-7);}.cls-15{fill:url(#radial-gradient-8);}</style><radialGradient id="radial-gradient" cx="633.89" cy="5172.92" r="12.78" gradientTransform="translate(4947.3 -1961.94) rotate(74.46)" gradientUnits="userSpaceOnUse"><stop offset="0" stop-color="#cbff8b"/><stop offset="1" stop-color="#c7ed34"/></radialGradient><radialGradient id="radial-gradient-2" cx="611.86" cy="5188.39" r="12.44" xlink:href="#radial-gradient"/><radialGradient id="radial-gradient-3" cx="-1721.17" cy="745.73" r="10.75" gradientTransform="translate(1525.17 -1279.24) rotate(-20.85)" xlink:href="#radial-gradient"/><radialGradient id="radial-gradient-4" cx="617.29" cy="5213.87" r="12.98" xlink:href="#radial-gradient"/><radialGradient id="radial-gradient-5" cx="599.26" cy="5215.45" r="11.88" xlink:href="#radial-gradient"/><radialGradient id="radial-gradient-6" cx="587.29" cy="5285.32" r="10.1" xlink:href="#radial-gradient"/><radialGradient id="radial-gradient-7" cx="603.52" cy="5267.04" r="14.71" xlink:href="#radial-gradient"/><radialGradient id="radial-gradient-8" cx="620.22" cy="5146.37" r="12.02" xlink:href="#radial-gradient"/></defs><g class="cls-1"><g id="Layer_2" data-name="Layer 2"><g id="Layer_1-2" data-name="Layer 1"><path class="cls-2" d="M19.64,17.21a74.77,74.77,0,0,1,7.9-.71c1.32-.05,2.65-.05,4,0a21.88,21.88,0,0,1,4,.5,14.91,14.91,0,0,1,3.79,1.47c1.19.64,2.28,1.4,3.4,2a8.52,8.52,0,0,0,3.52,1,12.06,12.06,0,0,0,3.71-.42c5.16-1.26,10.35-2.1,15.56-2.9S76,16.75,81.22,16.36c2.63-.19,5.28-.31,8-.26a32.6,32.6,0,0,1,4,.31,12.83,12.83,0,0,1,2,.46,15.46,15.46,0,0,0,1.8.64,43.19,43.19,0,0,0,7.66.83c2.61.12,5.24.18,7.87.26a129.29,129.29,0,0,1,15.8,1.22,35.49,35.49,0,0,1,7.76,2,14.39,14.39,0,0,1,3.56,2,8,8,0,0,1,2.56,3.35l-.75-.38c5.67-1.46,11.37-2.55,17.12-3.47s11.54-1.59,17.34-2,11.63-.63,17.46-.54A149.9,149.9,0,0,1,210.88,22l-.25,1.76a148.08,148.08,0,0,0-17.23-1.44c-5.78-.18-11.56,0-17.33.39s-11.52,1-17.23,1.92-11.42,2-17,3.39h0a.63.63,0,0,1-.74-.38,6.8,6.8,0,0,0-2.15-2.85A13,13,0,0,0,135.66,23a33.68,33.68,0,0,0-7.49-1.87,130.93,130.93,0,0,0-15.63-1c-2.63-.06-5.26-.1-7.9-.19a42.41,42.41,0,0,1-8-.81,18,18,0,0,1-1.9-.69A12.63,12.63,0,0,0,93,18a31.91,31.91,0,0,0-3.82-.32c-2.59-.07-5.2,0-7.81.19-5.22.34-10.43.94-15.62,1.66s-10.4,1.56-15.46,2.75a13.34,13.34,0,0,1-4.09.42,9.81,9.81,0,0,1-4-1.2c-1.21-.64-2.28-1.4-3.39-2A13.89,13.89,0,0,0,35.27,18a21.59,21.59,0,0,0-3.81-.55c-1.29-.09-2.59-.11-3.9-.08a75.72,75.72,0,0,0-7.81.55Z"/><path class="cls-3" d="M136.57,45.86a14.06,14.06,0,0,1-2-.16c-1.44-.22-3.34-1.26-5.65-3.09-4.34-3.43-10.08-9.83-10.25-11.41-.21-2.07,7.63-6.45,9.2-7.31a31.4,31.4,0,0,1,5.66-2.52,8.75,8.75,0,0,1,2.26-.28c3.55,0,7.33,1.89,8.41,4.21a10,10,0,0,1,.18,7.68,15.42,15.42,0,0,1,.17,6.91C143.81,43.57,140.75,45.86,136.57,45.86Z"/><path class="cls-4" d="M135.78,21.84c3.34,0,6.81,1.8,7.74,3.77a9.32,9.32,0,0,1,.06,7.32,14.56,14.56,0,0,1,.23,6.81c-.67,3.33-3.35,5.37-7.24,5.37a12.66,12.66,0,0,1-1.9-.15c-1.43-.22-3.33-1.38-5.3-2.94-4.73-3.74-9.85-9.83-10-10.9s4.55-4.25,8.82-6.57a29.26,29.26,0,0,1,5.5-2.46,8.3,8.3,0,0,1,2.06-.25m0-1.5h0a9.65,9.65,0,0,0-2.44.3,32.2,32.2,0,0,0-5.84,2.59,58.92,58.92,0,0,0-6.21,3.87c-3,2.13-3.48,3.18-3.38,4.17.21,1.95,6.3,8.58,10.53,11.93,2.45,1.94,4.41,3,6,3.24a14.08,14.08,0,0,0,2.12.17c4.56,0,7.9-2.52,8.71-6.57a16.53,16.53,0,0,0-.12-7,10.81,10.81,0,0,0-.28-8c-1.22-2.6-5.22-4.64-9.1-4.64Z"/><path class="cls-5" d="M139.14,44.77a10.74,10.74,0,0,1-4.47.19c-1.43-.22-3.33-1.38-5.3-2.94-4.73-3.74-9.85-9.83-10-10.9s4.55-4.25,8.82-6.57c.64-.35,1.28-.68,1.89-1-4.44,3.05-9.61,6.73-9.72,7.4-.2,1.18,7.37,9,9.59,10.67s6.46,3.14,8.5,2.89A.61.61,0,0,1,139.14,44.77Z"/><path class="cls-6" d="M131.61,33c1,.16,2.1.26,3.16.34s2.1.15,3.15.14,2.09-.11,3.12-.15,2.06-.11,3.13-.23c0,0,.05,0,.05,0a.05.05,0,0,1,0,0,7.88,7.88,0,0,1-3.08,1,14,14,0,0,1-3.23,0,35.2,35.2,0,0,1-6.3-1.1.07.07,0,0,1,0-.06A.05.05,0,0,1,131.61,33Z"/><path class="cls-7" d="M139.14,44.77a10.74,10.74,0,0,1-4.47.19c-1.43-.22-3.33-1.38-5.3-2.94-4.73-3.74-9.85-9.83-10-10.9s4.55-4.25,8.82-6.57c.64-.35,1.28-.68,1.89-1a20.91,20.91,0,0,1,3.61-1.49c3.84-1,8.68,1.14,9.8,3.52a9.32,9.32,0,0,1,.06,7.32,14.56,14.56,0,0,1,.23,6.81A6.36,6.36,0,0,1,139.14,44.77Z"/><path class="cls-8" d="M115.72,29.35a11.93,11.93,0,0,1-7.15-2.21,22.47,22.47,0,0,1-3.43-3.46,45.49,45.49,0,0,1-6.21-11A19.8,19.8,0,0,1,98.06,10a2.73,2.73,0,0,1-.14-1.19c.19-1,1.86-1.73,11.38-4.17L111,4.24A7.17,7.17,0,0,1,112.86,4a11.94,11.94,0,0,1,5.67,1.6,11.58,11.58,0,0,1,2.24,1.55A6.15,6.15,0,0,1,122.24,9a8.88,8.88,0,0,1-.34,8.88,17,17,0,0,1,.8,5.69,13.62,13.62,0,0,1-.23,2C122,27.86,119.37,29.35,115.72,29.35Z"/><path class="cls-4" d="M112.86,4.77a11.46,11.46,0,0,1,5.3,1.5,12.12,12.12,0,0,1,2.12,1.46,5.2,5.2,0,0,1,1.27,1.61c2.35,5.09-.48,8.44-.48,8.44a16.52,16.52,0,0,1,.88,5.78,11.93,11.93,0,0,1-.22,1.86c-.41,2.13-3.07,3.18-6,3.18A11.19,11.19,0,0,1,109,26.55a20.6,20.6,0,0,1-3.31-3.35,42.88,42.88,0,0,1-6.1-10.8,19.26,19.26,0,0,1-.84-2.53A2.58,2.58,0,0,1,98.66,9c.19-1,8.72-3,12.56-4a6.3,6.3,0,0,1,1.64-.2m0-1.5h0a8.22,8.22,0,0,0-2,.24L109.12,4C98.66,6.63,97.46,7.28,97.18,8.71a3.47,3.47,0,0,0,.16,1.53,20,20,0,0,0,.9,2.71,44.14,44.14,0,0,0,6.32,11.19,22.8,22.8,0,0,0,3.55,3.59,12.7,12.7,0,0,0,7.61,2.37c4.08,0,7-1.68,7.49-4.39a13.77,13.77,0,0,0,.24-2.08,18.14,18.14,0,0,0-.73-5.61,9.72,9.72,0,0,0,.2-9.3,6.81,6.81,0,0,0-1.64-2.1A12.59,12.59,0,0,0,118.87,5a12.75,12.75,0,0,0-6-1.68Z"/><path class="cls-5" d="M122,23.56l-1.11-6a8.25,8.25,0,0,0-1.37-9.4c-2.22-2.28-5.12-2.68-10.14-1.78A54.8,54.8,0,0,0,98.79,9.87,2.58,2.58,0,0,1,98.66,9c.19-1,8.72-3,12.56-4,3-.78,7,.87,9.06,2.76a5.2,5.2,0,0,1,1.27,1.61c2.35,5.09-.48,8.44-.48,8.44A16.52,16.52,0,0,1,122,23.56Z"/><path class="cls-6" d="M110.09,13.18a24.51,24.51,0,0,1,6.38,1.13,10.08,10.08,0,0,1,3,1.38,5.56,5.56,0,0,1,2.07,2.58,0,0,0,0,1,0,.06s0,0-.05,0A11.4,11.4,0,0,0,119,16.43,22.54,22.54,0,0,0,116.22,15a23.67,23.67,0,0,0-3-1,30.13,30.13,0,0,0-3.13-.7,0,0,0,0,1,0,0A.05.05,0,0,1,110.09,13.18Z"/><path class="cls-7" d="M109,26.55a20.6,20.6,0,0,1-3.31-3.35c4.15.31,12.4.23,11.35-5.26-.78-4.08.13-8.53,1.08-11.67a12.12,12.12,0,0,1,2.12,1.46,5.2,5.2,0,0,1,1.27,1.61c2.35,5.09-.48,8.44-.48,8.44a16.52,16.52,0,0,1,.88,5.78,11.93,11.93,0,0,1-.22,1.86C121,29.27,112.9,29.59,109,26.55Z"/><path class="cls-9" d="M176.16,43.39c-.92-.08-1.67-1.4-4.54-9.44l-.51-1.43a9.25,9.25,0,0,1,.58-6.58,10,10,0,0,1,1.16-2.05,5.21,5.21,0,0,1,1.5-1.43,8.64,8.64,0,0,1,4.34-1.24A7,7,0,0,1,182,22a14.55,14.55,0,0,1,4.77-1.12l.63,0a10.09,10.09,0,0,1,1.09.06,3.91,3.91,0,0,1,3,2.45,10.54,10.54,0,0,1-.52,9.43,19.21,19.21,0,0,1-2.7,3.22,38.58,38.58,0,0,1-8.9,6.18,19.46,19.46,0,0,1-2.19,1,2.72,2.72,0,0,1-.95.22Z"/><path class="cls-4" d="M187.4,21.64c.33,0,.67,0,1,0,3.34.34,4.25,7.2,2,10.73a17.63,17.63,0,0,1-2.59,3.09,37.18,37.18,0,0,1-8.72,6,17.6,17.6,0,0,1-2.09.92,3,3,0,0,1-.71.18h0c-.85-.08-3.27-7.19-4.43-10.39a8.59,8.59,0,0,1,.57-6,9.42,9.42,0,0,1,1.08-1.91,4.5,4.5,0,0,1,1.27-1.22,7.81,7.81,0,0,1,4-1.14,6.12,6.12,0,0,1,3.28.89,13.92,13.92,0,0,1,4.85-1.21h.59m0-1.51-.67,0a16.12,16.12,0,0,0-4.7,1,8,8,0,0,0-3.35-.72A9.35,9.35,0,0,0,174,21.81a6.12,6.12,0,0,0-1.72,1.62A10.76,10.76,0,0,0,171,25.66a10,10,0,0,0-.6,7.12l.52,1.43c3.17,8.87,3.81,9.8,5.18,9.93h.17a3.61,3.61,0,0,0,1.21-.27,19.41,19.41,0,0,0,2.27-1,39.25,39.25,0,0,0,9.09-6.31,20.2,20.2,0,0,0,2.8-3.35,11.42,11.42,0,0,0,.57-10.16,4.65,4.65,0,0,0-3.65-2.88,10.84,10.84,0,0,0-1.16-.06Z"/><path class="cls-5" d="M186.81,21.65l-5.06,1.42a7.07,7.07,0,0,0-7.9,1.91c-1.77,2.08-1.88,4.58-.72,8.78A47.17,47.17,0,0,0,177,42.47a2.61,2.61,0,0,1-.74.18c-.85-.08-3.27-7.19-4.43-10.39-.9-2.49.2-6,1.65-7.93a4.5,4.5,0,0,1,1.27-1.22c4.14-2.4,7.23-.25,7.23-.25A13.92,13.92,0,0,1,186.81,21.65Z"/><path class="cls-6" d="M178.9,32.58a21,21,0,0,1,.46-5.53,8.6,8.6,0,0,1,.94-2.67,4.76,4.76,0,0,1,2-2,0,0,0,0,1,0,0,.07.07,0,0,1,0,.05A9.79,9.79,0,0,0,181,24.74a20,20,0,0,0-1,2.47,19.88,19.88,0,0,0-.63,2.64,22.62,22.62,0,0,0-.34,2.73s0,0,0,0S178.9,32.6,178.9,32.58Z"/><path class="cls-10" d="M190.38,32.41a17.63,17.63,0,0,1-2.59,3.09c-.07-3.56-.8-10.59-5.38-9.26a21.74,21.74,0,0,1-10,0,9.42,9.42,0,0,1,1.08-1.91,4.5,4.5,0,0,1,1.27-1.22c4.14-2.4,7.23-.25,7.23-.25a13.92,13.92,0,0,1,4.85-1.21,10.74,10.74,0,0,1,1.6,0C191.75,22,192.66,28.88,190.38,32.41Z"/><path class="cls-11" d="M87.94,40.51c-4.39,0-9.45-.76-10.61-2.21a.21.21,0,0,1,0-.06c-.84-1.12-.84-2.73,0-4.93a.75.75,0,0,1,0-.16,50.44,50.44,0,0,1,5.83-9.77c4-5.67,9.43-7.68,12.84-7.68a8.63,8.63,0,0,1,1.28.1,4.33,4.33,0,0,1,3.14,1.84l0,.05a10.57,10.57,0,0,1,1.1,6.29,5.85,5.85,0,0,1,1.71,3.23c1,3.62-.22,9.68-5.14,11.65A28.58,28.58,0,0,1,87.94,40.51Z"/><path class="cls-4" d="M96,16.45a7.18,7.18,0,0,1,1.16.09A3.67,3.67,0,0,1,99.79,18s0,0,0,0c1.59,2.55.93,6.34.93,6.34h0s1,0,1.8,3,0,8.86-4.7,10.75a27.47,27.47,0,0,1-9.9,1.6c-4.86,0-9.2-.91-10-1.93,0,0,0,0,0,0-.69-.9-.65-2.33.12-4.32,0,0,0,0,0,0a49.13,49.13,0,0,1,5.76-9.65c3.6-5.08,8.68-7.37,12.23-7.37M96,15c-3.59,0-9.27,2.1-13.45,8a50.46,50.46,0,0,0-5.91,9.91,2,2,0,0,0-.08.22c-.9,2.43-.87,4.27.12,5.6l.06.09c1.58,2,7.78,2.49,11.2,2.49a29.47,29.47,0,0,0,10.46-1.7c5.33-2.14,6.67-8.66,5.59-12.55a7.65,7.65,0,0,0-1.65-3.35,11.16,11.16,0,0,0-1.24-6.35h0l0-.07a5.13,5.13,0,0,0-3.67-2.18A8.7,8.7,0,0,0,96,15Z"/><path class="cls-5" d="M77.91,37.83s0,0,0,0c-.69-.9-.65-2.33.12-4.32-.1,1.53-.07,3.16.42,3.77,1,1.29,3.88,1,10.22,1.6s12.4-2.32,13.23-7.2S100.05,25,100.05,25l-.24-6.92c1.59,2.55.93,6.34.93,6.34s1,0,1.8,3,0,8.86-4.7,10.75C90.87,41,79.31,39.57,77.91,37.83Z"/><path class="cls-6" d="M88.79,31.47a35,35,0,0,0,3.44-1.34,26.47,26.47,0,0,0,3.28-1.65,29.58,29.58,0,0,0,3-2.06A16.12,16.12,0,0,0,101.13,24s0,0,.06,0,0,0,0,.05A7.45,7.45,0,0,1,99,27.11a13,13,0,0,1-3.2,2,31,31,0,0,1-7,2.44s0,0,0,0A.05.05,0,0,1,88.79,31.47Z"/><path class="cls-7" d="M77.91,37.83s0,0,0,0c-.69-.9-.65-2.33.12-4.32,0,0,0,0,0,0a49.13,49.13,0,0,1,5.76-9.65c4-5.66,9.86-7.86,13.39-7.28A3.67,3.67,0,0,1,99.79,18s0,0,0,0c1.59,2.55.93,6.34.93,6.34s1,0,1.8,3,0,8.86-4.7,10.75C90.87,41,79.31,39.57,77.91,37.83Z"/><path class="cls-12" d="M89.51,23.67a12,12,0,0,1-4.58-1.15,27.57,27.57,0,0,1-3.41-1.77c-3.8-2.25-7.07-6.9-8.67-9.47-1.38-2.19-3.49-6.06-3.26-7.09.32-1.44,3.14-2.69,7.54-3.35A7.64,7.64,0,0,1,78.34.75a14.11,14.11,0,0,1,2.87.34c5,1.09,11.15,4.7,12,7.91A7.41,7.41,0,0,1,93,14.07a3.09,3.09,0,0,1-.21.41c.52,1.23,1.84,4.71.86,6.71A4.33,4.33,0,0,1,89.51,23.67Z"/><path class="cls-4" d="M78.34,1.5a12.75,12.75,0,0,1,2.71.33c4.88,1.06,10.69,4.55,11.43,7.36a6.75,6.75,0,0,1-.15,4.57,2.76,2.76,0,0,1-.39.64s2.06,4.39,1,6.46a3.58,3.58,0,0,1-3.48,2.06,11.23,11.23,0,0,1-4.28-1.09,27.3,27.3,0,0,1-3.33-1.72c-3.25-1.93-6.27-5.79-8.41-9.23-2-3.23-3.27-6.07-3.17-6.53.16-.72,2-2,6.92-2.77a7.58,7.58,0,0,1,1.1-.08m0-1.5h0A9.37,9.37,0,0,0,77,.09C74.2.52,69.4,1.59,68.86,4c-.36,1.64,2.73,6.67,3.36,7.66,2,3.2,5.17,7.5,8.92,9.72a27.76,27.76,0,0,0,3.51,1.82,12.55,12.55,0,0,0,4.86,1.2,5,5,0,0,0,4.82-2.9c1-2.12,0-5.42-.7-7l.06-.14a8.15,8.15,0,0,0,.24-5.58C93,5.24,86.56,1.49,81.37.36a14.3,14.3,0,0,0-3-.36Z"/><path class="cls-5" d="M79.84,2.55c-3.65-.68-8.5,1.16-8.26,2.65a59.89,59.89,0,0,0,1.91,5.68c-2-3.23-3.27-6.07-3.17-6.53.16-.72,2-2,6.92-2.77s14.29,4,15.23,7.61a6.7,6.7,0,0,1-.14,4.57c-.11-1.29-.13-2.89-.26-3.95C91.73,7.26,83.48,3.23,79.84,2.55Z"/><path class="cls-6" d="M83,8.88a21.18,21.18,0,0,1,5.49,1.91A9.76,9.76,0,0,1,91,12.41a6,6,0,0,1,1.58,2.52.07.07,0,0,1,0,.06l0,0a20.27,20.27,0,0,0-2.09-1.89c-.73-.56-1.44-1.17-2.23-1.68a23.12,23.12,0,0,0-2.5-1.35A24.73,24.73,0,0,0,83,9s0,0,0-.05S83,8.87,83,8.88Z"/><path class="cls-7" d="M85.23,21.83a14.59,14.59,0,0,0,2.86-7.33c.23-4.75-3.69-9.51-7-12.67,4.88,1.06,10.69,4.55,11.42,7.36a6.7,6.7,0,0,1-.14,4.57,2.76,2.76,0,0,1-.39.64s2.06,4.39,1,6.46C91.74,23.38,88.94,23.44,85.23,21.83Z"/><path class="cls-13" d="M14.79,27.43h-.44A16.3,16.3,0,0,1,8.9,26.08c-3.79-1.6-7.66-4.53-8.11-6.15s5.4-7.35,9.58-8.86A16.93,16.93,0,0,1,16,10a11.67,11.67,0,0,1,1.35.08,7.07,7.07,0,0,1,3.54,1.29,4.28,4.28,0,0,1,1.43,1.89,4.31,4.31,0,0,1,.11,3.35,2.93,2.93,0,0,1-.49.76,6.42,6.42,0,0,1,2.2,4.39,3.46,3.46,0,0,1-.94,2.59c-1.62,1.86-5,2.86-7.56,3Z"/><path class="cls-4" d="M16,10.77a12.59,12.59,0,0,1,1.26.07A6.51,6.51,0,0,1,20.46,12a3.53,3.53,0,0,1,1.18,1.57c1.17,3.06-.93,3.86-.93,3.86a5.65,5.65,0,0,1,2.71,4.43c.2,2.77-4.25,4.58-7.8,4.81l-.83,0h-.4a15.58,15.58,0,0,1-5.2-1.29c-4-1.67-7.35-4.49-7.68-5.66-.22-.78,4.6-6.31,9.11-7.95a16.58,16.58,0,0,1,5.41-1m0-1.5h0a17.86,17.86,0,0,0-5.91,1.09A21.16,21.16,0,0,0,3.25,15C-.38,18.5-.06,19.68.07,20.13c.57,2.06,4.88,5.1,8.54,6.64a17.31,17.31,0,0,0,5.7,1.4h.48l.92,0c2.76-.18,6.32-1.26,8.08-3.29a4.23,4.23,0,0,0,1.13-3.13,7.08,7.08,0,0,0-2-4.42c.07-.12.14-.24.2-.37a5.08,5.08,0,0,0-.1-3.93,5,5,0,0,0-1.68-2.22,7.82,7.82,0,0,0-3.9-1.44A13.3,13.3,0,0,0,16,9.27Z"/><path class="cls-6" d="M10.63,18.22A22.18,22.18,0,0,1,16,16.72a10.55,10.55,0,0,1,2.81-.15,6.76,6.76,0,0,1,2.68.9.06.06,0,0,1,0,.07l0,0c-.95,0-1.82-.09-2.71-.1s-1.78-.08-2.68,0a27.56,27.56,0,0,0-5.38.87s0,0-.05,0A0,0,0,0,1,10.63,18.22Z"/><path class="cls-5" d="M15.62,26.65a10.23,10.23,0,0,1-1.23,0c-5.78-.26-12.42-5.29-12.88-7-.22-.78,4.6-6.31,9.11-7.95a15.52,15.52,0,0,1,6.67-.93,24.58,24.58,0,0,0-7.1,2c-5.31,2.67-7.29,5-7.38,6.72C2.73,20.86,9.66,25.58,15.62,26.65Z"/><path class="cls-7" d="M15.62,26.65a10.23,10.23,0,0,1-1.23,0A15.46,15.46,0,0,1,9.2,25.38c2-.93,4.28-2,6.19-3.14,2.85-1.67,4.34-6.56,5.07-10.26a3.53,3.53,0,0,1,1.18,1.57c1.17,3.06-.93,3.86-.93,3.86a5.65,5.65,0,0,1,2.71,4.43C23.62,24.61,19.17,26.42,15.62,26.65Z"/><path class="cls-14" d="M24.52,46c-1.52,0-2-.25-2.26-.62-1.08-1.55.85-12.77,2.25-17.63C26.39,21.24,33,16.42,38.57,15A6,6,0,0,1,40,14.84a4.42,4.42,0,0,1,2.7.87c1.92,1.43,2.54,4.28,2.74,5.71,1,0,2.42.66,3.72,3.59a6.61,6.61,0,0,1,.5,2.09,13.53,13.53,0,0,1-1.56,6.41A21.4,21.4,0,0,1,43.4,40c-3.35,2.92-9,4.49-12,5.16A35.63,35.63,0,0,1,24.52,46Z"/><path class="cls-4" d="M40,15.59a3.74,3.74,0,0,1,2.26.72c2.32,1.74,2.52,6,2.52,6a1.21,1.21,0,0,1,.62-.15c.7,0,1.89.48,3.07,3.15A5.77,5.77,0,0,1,49,27.16a12.65,12.65,0,0,1-1.48,6A20.33,20.33,0,0,1,42.9,39.4c-2.8,2.45-7.54,4.08-11.69,5a34.73,34.73,0,0,1-6.69.86c-.92,0-1.51-.09-1.65-.29-.71-1,.64-11,2.36-17s7.84-10.8,13.53-12.22A5.07,5.07,0,0,1,40,15.59m0-1.5a7,7,0,0,0-1.65.21c-5.77,1.44-12.64,6.46-14.6,13.26-1.08,3.76-3.57,16.22-2.15,18.27.55.78,1.55.94,2.88.94a35.72,35.72,0,0,0,7-.91c3.13-.68,8.88-2.29,12.36-5.33a21.88,21.88,0,0,0,4.93-6.7,14.2,14.2,0,0,0,1.62-6.77,7,7,0,0,0-.56-2.35c-1.21-2.74-2.61-3.71-3.74-4-.29-1.65-1-4.21-2.94-5.64a5.19,5.19,0,0,0-3.16-1Z"/><path class="cls-5" d="M22.87,45c-.71-1,.64-11,2.36-17s7.84-10.8,13.53-12.22a4,4,0,0,1,3.54.55,14.07,14.07,0,0,0-6,1c-3.84,1.8-9.11,6.8-9.62,9.55S23,42.4,23.88,44.11,36.44,43,40.51,40.34c2-1.34,4.75-4.41,7-7.16A20.33,20.33,0,0,1,42.9,39.4C37.2,44.38,23.58,46,22.87,45Z"/><path class="cls-6" d="M33.27,34.78c2.17-2,4.28-4.11,6.29-6.28,1-1.09,1.93-2.24,2.9-3.33S44.4,23,45.3,21.78a.06.06,0,0,1,.07,0s0,0,0,.05a13.91,13.91,0,0,1-2.23,3.91A27.94,27.94,0,0,1,40.07,29a85.19,85.19,0,0,1-6.74,5.86s0,0-.06,0A0,0,0,0,1,33.27,34.78Z"/><path class="cls-7" d="M31.21,44.4c-4.29.93-8,1.09-8.34.57-.71-1,.64-11,2.36-17s7.84-10.8,13.53-12.22a4,4,0,0,1,3.54.55c2.32,1.74,2.52,6,2.52,6s1.85-1.16,3.69,3A5.77,5.77,0,0,1,49,27.16c-3.9-2.08-10.11-3.92-13.9,2.52A31.36,31.36,0,0,0,31.21,44.4Z"/><path class="cls-15" d="M154.92,26.73a4.9,4.9,0,0,1-1.54-.22,9.21,9.21,0,0,1-2.45-1.18c-3.93-2.55-6.49-7.64-6.59-10.89l0-.23c-.14-2.1-1.17-4.6-3.07-7.44l-.17-.25a1,1,0,0,1,.22-1.22c1-.94,5.4-1.86,8.14-2.1.21,0,.44,0,.69,0a20.91,20.91,0,0,1,13.52,6.14,16.49,16.49,0,0,1,3.09,4.37c1.9,3.93,1,6.47-.14,7.91a8.06,8.06,0,0,1-3.89,2.59c-.19.1-.68.37-1.35.69A16.67,16.67,0,0,1,154.92,26.73Z"/><path class="cls-4" d="M150.13,3.93a20.17,20.17,0,0,1,13,5.91A15.93,15.93,0,0,1,166.06,14c1.65,3.42,1.08,5.67-.05,7.13a7.39,7.39,0,0,1-3.59,2.35s-.54.31-1.38.71A16.2,16.2,0,0,1,154.92,26a4.63,4.63,0,0,1-1.32-.18,9.05,9.05,0,0,1-2.26-1.09c-3.65-2.37-6.15-7.14-6.25-10.29,0-.09,0-.18,0-.27-.25-3.68-3-7.45-3.35-8-.05-.08,0-.17.08-.27.67-.64,4.47-1.62,7.71-1.9a6.12,6.12,0,0,1,.62,0m0-1.51c-.27,0-.52,0-.76,0-2.36.2-7.29,1.09-8.59,2.29a1.7,1.7,0,0,0-.33,2.17s.1.15.18.27c1.82,2.73,2.81,5.11,2.94,7.06v.24c.12,3.52,2.75,8.76,6.94,11.48a10.6,10.6,0,0,0,2.63,1.26,6,6,0,0,0,1.76.25,17.31,17.31,0,0,0,6.77-1.93c.61-.29,1.08-.54,1.31-.66a8.74,8.74,0,0,0,4.2-2.84c1.24-1.6,2.28-4.41.21-8.69a17.3,17.3,0,0,0-3.23-4.57,21.74,21.74,0,0,0-14.05-6.37Z"/><path class="cls-7" d="M153.66,25.69a8.39,8.39,0,0,1-2.26-1.08c-3.65-2.37-6.15-7.14-6.25-10.3a2.28,2.28,0,0,1,0-.26c-.25-3.68-3-7.45-3.35-8-.05-.07,0-.17.08-.26,3.8,2.38,13.76,9.06,17.09,15.77a5.82,5.82,0,0,0,2.15,2.58C159.21,25,155.81,26.37,153.66,25.69Z"/><path class="cls-5" d="M166,21.14c1.93-4.34-1.18-8.1-2.62-10.12-1.84-2.59-6.29-5.34-10.32-6.2s-9.8.83-10.33,1.4,2.11,3.78,2.69,5.89a2.4,2.4,0,0,1-.36,2c-.25-3.68-3-7.45-3.35-8s4.07-1.85,7.79-2.17c2.93-.26,9.27,1.44,13.6,5.89A15.93,15.93,0,0,1,166.06,14C167.71,17.43,167.14,19.68,166,21.14Z"/><path class="cls-6" d="M155,10.71a20.58,20.58,0,0,1,5.2,5.94,12.89,12.89,0,0,1,1.59,3.69,10.53,10.53,0,0,1,.18,4s0,0-.05,0,0,0,0,0a32.3,32.3,0,0,0-1-3.76A25.06,25.06,0,0,0,159.59,17a20.65,20.65,0,0,0-2-3.29A21.13,21.13,0,0,0,155,10.78s0,0,0-.06S155,10.7,155,10.71Z"/></g></g></g></svg>