<svg xmlns="http://www.w3.org/2000/svg" xmlns:xlink="http://www.w3.org/1999/xlink" viewBox="0 0 65.39 65.38"><defs><style>.cls-1{isolation:isolate;}.cls-2{fill:#b5654c;}.cls-3{fill:url(#linear-gradient);}.cls-4,.cls-6{fill:#82634b;}.cls-4,.cls-5{mix-blend-mode:multiply;opacity:0.47;}.cls-7{fill:#f1a134;}.cls-8{mix-blend-mode:overlay;}.cls-9{fill:#ffd8bf;}.cls-10{fill:#3e0100;}.cls-11{fill:#872903;}</style><linearGradient id="linear-gradient" x1="32.7" x2="32.7" y2="65.38" gradientUnits="userSpaceOnUse"><stop offset="0" stop-color="#804736"/><stop offset="1" stop-color="#502f40"/></linearGradient></defs><g class="cls-1"><g id="Layer_2" data-name="Layer 2"><g id="Layer_1-2" data-name="Layer 1"><path class="cls-2" d="M63.39,32.69a30.53,30.53,0,0,1-7.13,19.67,29.34,29.34,0,0,1-3.36,3.42,30.44,30.44,0,0,1-14,7,29.51,29.51,0,0,1-3.13.47c-1,.1-2,.15-3,.15-.56,0-1.1,0-1.65-.05a30.65,30.65,0,0,1-13.78-4.1l-.77-.46a31.32,31.32,0,0,1-4.08-3A30.78,30.78,0,0,1,2,32.69,30.65,30.65,0,0,1,15.85,7c.83-.54,1.67-1,2.54-1.5A30.67,30.67,0,0,1,32.7,2c.31,0,.62,0,.92,0a24,24,0,0,1,2.83.22A30.21,30.21,0,0,1,43.62,4a30.73,30.73,0,0,1,8.17,4.67,25.46,25.46,0,0,1,2.14,1.88.69.69,0,0,1,.18.16,30.49,30.49,0,0,1,5.33,6.92,31.47,31.47,0,0,1,2.18,4.75A30.59,30.59,0,0,1,63.39,32.69Z"/><path class="cls-3" d="M32.7,2c.31,0,.62,0,.92,0a24,24,0,0,1,2.83.22A30.21,30.21,0,0,1,43.62,4a30.73,30.73,0,0,1,8.17,4.67,25.46,25.46,0,0,1,2.14,1.88.69.69,0,0,1,.18.16,30.66,30.66,0,0,1,5.33,6.91,32,32,0,0,1,2.18,4.76,30.77,30.77,0,0,1-5.36,30,29.34,29.34,0,0,1-3.36,3.42,30.44,30.44,0,0,1-14,7,29.51,29.51,0,0,1-3.13.47c-1,.1-2,.15-3,.15-.56,0-1.1,0-1.65-.05a30.65,30.65,0,0,1-13.78-4.1l-.77-.46a31.32,31.32,0,0,1-4.08-3A30.69,30.69,0,0,1,15.85,7c.83-.54,1.67-1,2.54-1.5A30.67,30.67,0,0,1,32.7,2m0-2A32.71,32.71,0,0,0,17.46,3.77a28.7,28.7,0,0,0-2.7,1.59A32.69,32.69,0,0,0,11.1,57.23a34.08,34.08,0,0,0,4.33,3.23l.05,0,.28.17.52.31A32.77,32.77,0,0,0,31,65.33c.49,0,1,0,1.75,0A31.22,31.22,0,0,0,36,65.22a28.78,28.78,0,0,0,3.33-.51,32.34,32.34,0,0,0,14.93-7.43,30,30,0,0,0,3.57-3.64A32.66,32.66,0,0,0,55.51,9.28s-.14-.14-.26-.24A28.53,28.53,0,0,0,53,7.1,32.31,32.31,0,0,0,36.69.25a27.35,27.35,0,0,0-3-.23c-.33,0-.66,0-1,0Z"/><path class="cls-4" d="M16.5,58.77a31.32,31.32,0,0,1-4.08-3,38.24,38.24,0,0,1,1.2-26C17.87,19.39,17.38,11.91,15.85,7c.83-.54,1.67-1,2.54-1.5,1.88,5.41,2.61,13.73-2.15,25.24A36.19,36.19,0,0,0,16.5,58.77Z"/><path class="cls-4" d="M38.88,62.76a29.51,29.51,0,0,1-3.13.47c2.2-7.86,3.82-20-1.25-32.91A40.19,40.19,0,0,1,33.62,2a24,24,0,0,1,2.83.22c-2.38,6.53-3.68,15.89.7,27A54,54,0,0,1,38.88,62.76Z"/><g class="cls-5"><path class="cls-6" d="M56.26,52.36a29.34,29.34,0,0,1-3.36,3.42c.89-4.29,1.2-11.93-3.48-22.08-5.07-11-1.43-19.62,2.37-25a25.46,25.46,0,0,1,2.14,1.88c-3.38,4.89-6.34,12.38-1.93,22C55.81,40.79,56.56,47.52,56.26,52.36Z"/></g><path class="cls-7" d="M54.59,35.57A21.89,21.89,0,1,1,32.7,13.67,22,22,0,0,1,54.59,35.57Z"/><g class="cls-8"><path class="cls-9" d="M63.39,32.69c0,.38,0,.75,0,1.13A30.69,30.69,0,0,0,2,33.82c0-.38,0-.75,0-1.13a30.7,30.7,0,0,1,61.39,0Z"/></g><path class="cls-4" d="M54.59,32.69A21.89,21.89,0,1,1,32.7,10.8,22.06,22.06,0,0,1,54.59,32.69Z"/><path class="cls-10" d="M54.59,32.69c0,.75,0,1.49-.11,2.22a21.89,21.89,0,0,0-43.56,0,20.37,20.37,0,0,1-.11-2.22,21.89,21.89,0,0,1,43.78,0Z"/><path class="cls-10" d="M50.28,34.92c0,.16,0,.33,0,.49a17.64,17.64,0,0,1-35.27,0c0-.16,0-.33,0-.49a17.65,17.65,0,1,1,35.29,0Z"/><path class="cls-11" d="M50.28,34.92c0,.16,0,.33,0,.49-4.1,4.13-10.47,6.78-17.64,6.78S19.09,39.54,15,35.41c0-.16,0-.33,0-.49a17.65,17.65,0,1,1,35.29,0Z"/></g></g></g></svg>